<?xml version="1.0" encoding="UTF-8" standalone="no"?>
<!-- Created with Inkscape (http://www.inkscape.org/) -->

<svg
   xmlns:dc="http://purl.org/dc/elements/1.1/"
   xmlns:cc="http://creativecommons.org/ns#"
   xmlns:rdf="http://www.w3.org/1999/02/22-rdf-syntax-ns#"
   xmlns:svg="http://www.w3.org/2000/svg"
   xmlns="http://www.w3.org/2000/svg"
   xmlns:sodipodi="http://sodipodi.sourceforge.net/DTD/sodipodi-0.dtd"
   xmlns:inkscape="http://www.inkscape.org/namespaces/inkscape"
   width="43.44836mm"
   height="43.44836mm"
   viewBox="0 0 43.44836 43.44836"
   version="1.1"
   id="svg16"
   inkscape:version="0.92.3 (2405546, 2018-03-11)"
   sodipodi:docname="aleph0.svg">
  <defs
     id="defs10" />
  <sodipodi:namedview
     id="base"
     pagecolor="#ffffff"
     bordercolor="#666666"
     borderopacity="1.0"
     inkscape:pageopacity="0.0"
     inkscape:pageshadow="2"
     inkscape:zoom="1.979899"
     inkscape:cx="67.03578"
     inkscape:cy="17.919726"
     inkscape:document-units="mm"
     inkscape:current-layer="layer1"
     showgrid="false"
     inkscape:window-width="1269"
     inkscape:window-height="910"
     inkscape:window-x="477"
     inkscape:window-y="20"
     inkscape:window-maximized="0"
     inkscape:measure-start="0,0"
     inkscape:measure-end="0,0"
     inkscape:snap-others="false"
     fit-margin-top="0"
     fit-margin-left="0"
     fit-margin-right="0"
     fit-margin-bottom="0" />
  <metadata
     id="metadata13">
    <rdf:RDF>
      <cc:Work
         rdf:about="">
        <dc:format>image/svg+xml</dc:format>
        <dc:type
           rdf:resource="http://purl.org/dc/dcmitype/StillImage" />
        <dc:title></dc:title>
      </cc:Work>
    </rdf:RDF>
  </metadata>
  <g
     inkscape:label="Layer 1"
     inkscape:groupmode="layer"
     id="layer1"
     transform="translate(-23.018741,-18.157516)">
    <text
       xml:space="preserve"
       style="font-style:normal;font-weight:normal;font-size:10.58333302px;line-height:1.25;font-family:sans-serif;letter-spacing:0px;word-spacing:0px;fill:#000000;fill-opacity:1;stroke:none;stroke-width:0.26458332"
       x="90.871643"
       y="45.766644"
       id="text39"><tspan
         sodipodi:role="line"
         id="tspan37"
         x="90.871643"
         y="55.130413"
         style="stroke-width:0.26458332" /></text>
    <circle
       id="path49"
       cx="44.742924"
       cy="39.881699"
       r="21.360596"
       style="fill:none;stroke:#b7c4c8;stroke-width:0.72716928;stroke-opacity:1" />
    <g
       aria-label="ℵ"
       style="font-style:normal;font-weight:normal;font-size:34.68436813px;line-height:1.25;font-family:sans-serif;letter-spacing:0px;word-spacing:0px;fill:#b7c4c8;fill-opacity:1;stroke:none;stroke-width:0.86710912"
       id="text43">
      <path
         d="m 43.931555,39.569455 5.51893,5.51893 q 1.383225,1.383225 1.383225,2.067852 0,1.816356 -2.011964,2.878227 0,-1.159674 -0.698599,-1.858273 L 37.322811,37.375855 35.157155,39.555483 q -0.866262,0.880234 0.05589,1.802385 l 2.40318,2.403179 q 1.397197,1.397198 1.397197,2.892199 0,1.495001 -0.85229,2.109768 -1.20159,0.866262 -2.165656,0.866262 H 32.57234 v -0.78243 q 2.738507,-0.880235 2.738507,-2.179628 0,-0.405187 -0.656683,-1.06187 l -1.369253,-1.383226 q -0.740515,-0.754486 -0.740515,-2.067852 0,-1.313365 1.956077,-3.283414 L 36.652157,36.7052 33.284911,33.337954 q -1.383226,-1.383225 -1.383226,-2.067852 0,-1.816356 2.011965,-2.878226 0,1.159673 0.698598,1.858272 l 8.662624,8.63468 3.926125,-3.926125 -1.620749,-1.620749 q -1.383225,-1.383225 -1.383225,-2.067852 0,-1.816356 2.011964,-2.878226 0,1.159673 0.698599,1.858272 l 2.542899,2.542899 q 1.383225,1.383226 1.383225,2.067853 0,1.816356 -2.011964,2.878226 0,-1.159674 -0.698599,-1.858272 l -0.251495,-0.251496 z"
         style="font-style:normal;font-variant:normal;font-weight:normal;font-stretch:normal;font-size:28.61460304px;font-family:Likhan;-inkscape-font-specification:Likhan;font-variant-ligatures:normal;font-variant-caps:normal;font-variant-numeric:normal;font-feature-settings:normal;text-align:start;writing-mode:lr-tb;text-anchor:start;stroke-width:0.86710912;fill:#b7c4c8;fill-opacity:1"
         id="path4686" />
    </g>
    <g
       aria-label="0"
       style="font-style:normal;font-weight:normal;font-size:34.68436813px;line-height:1.25;font-family:sans-serif;letter-spacing:0px;word-spacing:0px;fill:#b7c4c8;fill-opacity:1;stroke:none;stroke-width:0.86710912"
       id="text4561">
      <path
         d="m 55.908069,40.070431 q 1.634862,0 2.745846,1.463246 1.210339,1.598733 1.345825,4.317482 0.01807,0.298068 0.01807,0.614202 0,2.249064 -0.812915,3.992315 -0.41549,0.894206 -0.966465,1.409053 -0.975498,0.966465 -2.402615,0.966465 -1.643895,0 -2.700684,-1.264534 -0.821947,-0.975498 -1.237437,-2.926494 -0.243875,-1.147113 -0.243875,-2.285194 0,-2.176805 0.812915,-3.911023 0.41549,-0.885174 0.966466,-1.418085 1.011627,-0.957433 2.474874,-0.957433 z m -0.05419,0.478716 q -1.806477,0 -2.267129,3.396178 -0.15355,1.120016 -0.15355,2.57423 0,5.536854 2.176805,5.807825 0.108389,0.01807 0.22581,0.01807 2.258097,0 2.393582,-5.18459 0.009,-0.316134 0.009,-0.659365 0,-4.561355 -1.454215,-5.645242 -0.415489,-0.307101 -0.930336,-0.307101 z"
         style="font-style:normal;font-variant:normal;font-weight:normal;font-stretch:normal;font-size:18.49832916px;font-family:likhan;-inkscape-font-specification:likhan;stroke-width:0.86710912;fill:#b7c4c8;fill-opacity:1"
         id="path4689" />
    </g>
  </g>
</svg>
