<?xml version="1.0" encoding="UTF-8" standalone="no"?>
<!-- Created with matplotlib (https://matplotlib.org/) -->

<svg
   xmlns:dc="http://purl.org/dc/elements/1.1/"
   xmlns:cc="http://creativecommons.org/ns#"
   xmlns:rdf="http://www.w3.org/1999/02/22-rdf-syntax-ns#"
   xmlns:svg="http://www.w3.org/2000/svg"
   xmlns="http://www.w3.org/2000/svg"
   xmlns:sodipodi="http://sodipodi.sourceforge.net/DTD/sodipodi-0.dtd"
   xmlns:inkscape="http://www.inkscape.org/namespaces/inkscape"
   height="600pt"
   version="1.1"
   viewBox="0 0 900 600"
   width="900pt"
   id="svg2"
   inkscape:version="0.91 r13725"
   sodipodi:docname="batman_eq_ed.svg">
  <metadata
     id="metadata49">
    <rdf:RDF>
      <cc:Work
         rdf:about="">
        <dc:format>image/svg+xml</dc:format>
        <dc:type
           rdf:resource="http://purl.org/dc/dcmitype/StillImage" />
        <dc:title></dc:title>
      </cc:Work>
    </rdf:RDF>
  </metadata>
  <sodipodi:namedview
     pagecolor="#ffffff"
     bordercolor="#666666"
     borderopacity="1"
     objecttolerance="10"
     gridtolerance="10"
     guidetolerance="10"
     inkscape:pageopacity="0"
     inkscape:pageshadow="2"
     inkscape:window-width="1327"
     inkscape:window-height="834"
     id="namedview47"
     showgrid="false"
     inkscape:zoom="0.42222222"
     inkscape:cx="748.44788"
     inkscape:cy="342.91507"
     inkscape:window-x="1459"
     inkscape:window-y="261"
     inkscape:window-maximized="0"
     inkscape:current-layer="svg2" />
  <defs
     id="defs4"
     style="stroke-linecap:butt;stroke-linejoin:round">
    <style
       type="text/css"
       id="style6">
*{stroke-linecap:butt;stroke-linejoin:round;}
  </style>
  </defs>
  <g
     id="matplotlib.axis_1"
     style="stroke-linecap:butt;stroke-linejoin:round"
     transform="translate(0,96)" />
  <g
     id="matplotlib.axis_2"
     style="stroke-linecap:butt;stroke-linejoin:round"
     transform="translate(0,96)" />
  <g
     style="stroke-linecap:butt;stroke-linejoin:round"
     id="g4221"
     transform="translate(-54.001949,48.000002)">
    <g
       style="stroke-linecap:butt;stroke-linejoin:round"
       id="PolyCollection_1">
      <path
         inkscape:connector-curvature="0"
         id="path19"
         style="fill:#f5f500;stroke-linecap:butt;stroke-linejoin:round"
         d="m 888.23528,252 0,0 -0.005,1.1753 -0.0144,1.17528 -0.024,1.17521 -0.0336,1.17513 -0.0432,1.17501 -0.0528,1.17486 -0.0624,1.17469 -0.072,1.17448 -0.0816,1.17425 -0.0912,1.17398 -0.10081,1.17369 -0.11041,1.17336 -0.12,1.17302 -0.12958,1.17263 -0.13916,1.17222 -0.14874,1.17178 -0.15832,1.17131 -0.16789,1.17081 -0.17745,1.17028 -0.18702,1.16973 -0.19658,1.16913 -0.20613,1.16853 -0.21567,1.16787 -0.22522,1.16721 -0.23476,1.1665 -0.24428,1.16577 -0.25382,1.165 -0.26333,1.16422 -0.27284,1.16339 -0.28235,1.16255 -0.29184,1.16166 -0.30134,1.16076 -0.31081,1.15983 -0.3203,1.15886 -0.32976,1.15786 -0.33922,1.15684 -0.34867,1.15579 -0.35812,1.15471 -0.36754,1.1536 -0.37697,1.15246 -0.38639,1.15129 -0.39579,1.15009 -0.40518,1.14887 -0.41457,1.14762 -0.42394,1.14634 -0.43331,1.14502 -0.44266,1.14369 -0.452,1.14231 -0.46133,1.14092 -0.47066,1.13949 -0.47995,1.13804 -0.48926,1.13656 -0.49853,1.13505 -0.50781,1.1335 -0.51707,1.13194 -0.52631,1.13035 -0.53554,1.12872 -0.54476,1.12707 -0.55397,1.12538 -0.56315,1.12368 -0.57233,1.12194 -0.5815,1.12018 -0.59064,1.11839 -0.59978,1.11656 -0.6089,1.11471 -0.61799,1.11284 -0.62709,1.11094 -0.63615,1.109 -0.64522,1.10705 -0.65425,1.10505 -0.66328,1.10304 -0.67228,1.101 -0.68128,1.09893 -0.69024,1.09683 -0.6992,1.0947 -0.70815,1.09256 -0.71706,1.09037 -0.72596,1.08817 -0.73485,1.08593 -0.74371,1.08367 -0.75257,1.08138 -0.76139,1.07907 -0.7702,1.07672 -0.77899,1.07436 -0.78776,1.07196 -0.79652,1.06953 -0.80524,1.06709 -0.81396,1.06461 -0.82265,1.0621 -0.83131,1.05958 -0.83997,1.05702 -0.8486,1.05444 -0.8572,1.05183 -0.86579,1.04919 -0.87435,1.04654 -0.8829,1.04384 -0.89141,1.04113 -0.89992,1.03839 -0.90839,1.03563 -0.91684,1.03284 -0.92528,1.03001 -0.93367,1.02718 -0.94207,1.0243 -0.95042,1.02141 -0.95876,1.0185 -0.96707,1.01554 -0.97536,1.01258 -0.98362,1.00958 -0.99187,1.00655 -1.00007,1.00351 -1.00827,1.00044 -1.01643,0.99735 -1.02456,0.99422 -1.03268,0.99107 -1.04077,0.98791 -1.04883,0.9847 -1.05687,0.98149 -1.06487,0.97824 -1.07285,0.97498 -1.08082,0.97168 -1.08873,0.96836 -1.09664,0.96502 -1.10451,0.96165 -1.11236,0.95826 -1.12018,0.95485 -1.12796,0.95141 -1.13573,0.94794 -1.14346,0.94446 -1.15117,0.94095 -1.15884,0.93742 -1.16649,0.93386 -1.17411,0.93029 -1.18169,0.92668 -1.18926,0.92305 -1.19678,0.9194 -1.20429,0.91574 -1.21175,0.91203 -1.21919,0.90832 -1.2266,0.90458 -1.23398,0.90081 -1.24132,0.89703 -1.24864,0.89322 -1.25593,0.88939 -1.26318,0.88554 -1.2704,0.88166 -1.27759,0.87777 -1.28475,0.87385 -1.29187,0.8699 -1.29897,0.86595 -1.30603,0.86196 -1.31306,0.85795 -1.32005,0.85393 -1.32702,0.84987 -1.33394,0.84581 -1.34085,0.84172 -1.3477,0.83761 -1.35454,0.83347 -1.36132,0.82932 -1.36809,0.82514 -1.37482,0.82095 -1.38151,0.81674 -1.38817,0.8125 -1.39478,0.80824 -1.40138,0.80396 -1.40793,0.79967 -1.41445,0.79535 -1.42094,0.79102 -1.42738,0.78666 -1.43379,0.78228 -1.44017,0.77789 -1.4465,0.77347 -1.45281,0.76904 -1.45908,0.76459 -1.46531,0.76011 -1.4715,0.75562 -1.47766,0.75111 -1.48378,0.74658 -1.48987,0.74204 -1.49591,0.73747 -1.50192,0.73288 -1.50788,0.72828 -1.51383,0.72365 -1.51972,0.71902 -1.52557,0.71436 -1.5314,0.70969 -1.53717,0.70499 -1.54292,0.70028 -1.54863,0.69555 -1.55428,0.69081 -1.55992,0.68604 -1.5655,0.68127 -1.57105,0.67647 -1.57656,0.67165 -1.58204,0.66682 -1.58746,0.66198 -1.59285,0.65711 -1.5982,0.65223 -1.60351,0.64733 -1.60878,0.64242 -1.61402,0.63749 -1.6192,0.63255 -1.62435,0.62759 -1.62946,0.62261 -1.63454,0.61761 -1.63955,0.61262 -1.64455,0.60758 -1.64949,0.60255 -1.65439,0.5975 -1.65926,0.59243 -1.66407,0.58734 -1.66886,0.58225 -1.6736,0.57714 -1.67829,0.57201 -1.68294,0.56687 -1.68756,0.56171 -1.69212,0.55655 -1.69666,0.55136 -1.70114,0.54617 -1.70558,0.54095 -1.70998,0.53573 -1.71434,0.5305 -1.71865,0.52524 -1.72293,0.51998 -1.72715,0.51471 -1.73134,0.50941 -1.73548,0.50411 -1.73958,0.4988 -1.74363,0.49347 -1.74765,0.48813 -1.75161,0.48278 -1.75554,0.47741 -1.75941,0.47204 -1.76325,0.46666 -1.76705,0.46125 -1.77079,0.45584 -1.7745,0.45042 -1.77815,0.44498 -1.78177,0.43954 -1.78534,0.43409 -1.78886,0.42862 -1.79235,0.42314 -1.79578,0.41766 -1.79917,0.41215 -1.80252,0.40665 -1.80582,0.40113 -1.80908,0.3956 -1.81228,0.39006 -1.81545,0.38451 -1.81858,0.37896 -1.82164,0.37339 -1.82468,0.36781 -1.82765,0.36222 -1.8306,0.35663 -1.83349,0.35103 -1.83633,0.34541 -1.83914,0.33979 -1.84188,0.33417 -1.8446,0.32852 -1.84726,0.32288 -1.84987,0.31722 -1.85245,0.31156 -1.85496,0.3059 -1.85745,0.30021 -1.85987,0.29453 -1.86226,0.28883 -1.86459,0.28314 -1.86689,0.27743 -1.86913,0.27171 -1.87133,0.26599 -1.87348,0.26027 -1.87558,0.25453 -1.87764,0.24879 -1.87965,0.24305 -1.88161,0.23729 -1.88352,0.23154 -1.8854,0.22577 -1.88722,0.22 -1.88899,0.21422 -1.89072,0.20845 -1.8924,0.20266 -1.89403,0.19687 -1.89562,0.19107 -1.89716,0.18527 -1.89864,0.17946 -1.90009,0.17366 -1.90149,0.16784 -1.90283,0.16202 -1.90413,0.1562 -1.90539,0.15038 -1.90659,0.14454 -1.90775,0.13871 -1.90886,0.13288 -1.90992,0.12703 -1.91093,0.12119 -1.9119,0.11534 -1.91282,0.10949 -1.9137,0.10364 -1.91451,0.0978 -1.91529,0.0919 -1.91602,0.0861 -1.9167,0.0802 -1.91732,0.0744 -1.91792,0.0685 -1.91844,0.0626 -1.91894,0.0567 -1.91937,0.0509 -1.91977,0.045 -1.92011,0.0391 -1.92041,0.0333 -1.92065,0.0274 -1.92086,0.0215 -1.921,0.0156 -1.92111,0.01 -1.92117,0.004 -1.92117,-0.002 -1.92113,-0.008 -1.92105,-0.0137 -1.9209,-0.0196 -1.92073,-0.0255 -1.92049,-0.0314 -1.92021,-0.0373 -1.91988,-0.0431 -1.9195,-0.049 -1.91909,-0.0549 -1.9186,-0.0607 -1.91809,-0.0666 -1.91752,-0.0725 -1.9169,-0.0783 -1.91624,-0.0842 -1.91553,-0.0901 -1.91477,-0.0959 -1.91396,-0.10178 -1.9131,-0.10763 -1.9122,-0.11348 -1.91125,-0.11932 -1.91025,-0.12518 -1.9092,-0.13101 -1.90811,-0.13685 -1.90696,-0.14269 -1.90577,-0.14852 -1.90454,-0.15434 -1.90325,-0.16017 -1.90192,-0.16599 -1.90054,-0.1718 -1.89911,-0.17762 -1.89764,-0.18342 -1.89611,-0.18922 -1.89455,-0.19503 -1.89292,-0.20081 -1.89126,-0.2066 -1.88955,-0.21239 -1.88779,-0.21816 -1.88598,-0.22393 -1.88413,-0.2297 -1.88222,-0.23546 -1.88028,-0.24121 -1.87829,-0.24697 -1.87624,-0.2527 -1.87415,-0.25844 -1.87202,-0.26417 -1.86983,-0.26989 -1.86761,-0.27561 -1.86533,-0.28132 -1.86301,-0.28702 -1.86064,-0.29272 -1.85822,-0.2984 -1.85576,-0.30408 -1.85325,-0.30976 -1.8507,-0.31542 -1.84809,-0.32108 -1.84545,-0.32672 -1.84276,-0.33237 -1.84002,-0.338 -1.83723,-0.34363 -1.8344,-0.34924 -1.83152,-0.35484 -1.8286,-0.36045 -1.82563,-0.36603 -1.82261,-0.37161 -1.81956,-0.37718 -1.81645,-0.38275 -1.8133,-0.38829 -1.8101,-0.39384 -1.80686,-0.39937 -1.80358,-0.40489 -1.80024,-0.4104 -1.79687,-0.41591 -1.79344,-0.42139 -1.78998,-0.42688 -1.78647,-0.43234 -1.78291,-0.43781 -1.77931,-0.44325 -1.77566,-0.44869 -1.77198,-0.45411 -1.76825,-0.45954 -1.76446,-0.46493 -1.76064,-0.47032 -1.75678,-0.47571 -1.75287,-0.48107 -1.74891,-0.48642 -1.74492,-0.49178 -1.74087,-0.4971 -1.73679,-0.50242 -1.73266,-0.50772 -1.72849,-0.51302 -1.72428,-0.51831 -1.72002,-0.52357 -1.71572,-0.52882 -1.71137,-0.53406 -1.70699,-0.5393 -1.70256,-0.5445 -1.69809,-0.54971 -1.69357,-0.5549 -1.68902,-0.56007 -1.68441,-0.56523 -1.67978,-0.57037 -1.6751,-0.57551 -1.67037,-0.58062 -1.6656,-0.58572 -1.6608,-0.59081 -1.65595,-0.59589 -1.65105,-0.60094 -1.64613,-0.60598 -1.64115,-0.61101 -1.63613,-0.61603 -1.63108,-0.62102 -1.62599,-0.626 -1.62085,-0.63097 -1.61567,-0.63592 -1.61045,-0.64085 -1.6052,-0.64577 -1.59989,-0.65068 -1.59456,-0.65555 -1.58918,-0.66043 -1.58377,-0.66528 -1.57831,-0.67012 -1.57281,-0.67493 -1.56727,-0.67974 -1.5617,-0.68452 -1.55609,-0.6893 -1.55043,-0.69404 -1.54474,-0.69878 -1.53901,-0.70349 -1.53324,-0.70819 -1.52743,-0.71288 -1.52159,-0.71753 -1.51571,-0.72218 -1.50978,-0.72681 -1.50382,-0.73142 -1.49783,-0.73601 -1.4918,-0.74058 -1.48572,-0.74513 -1.47961,-0.74967 -1.47347,-0.75419 -1.46728,-0.75869 -1.46107,-0.76316 -1.45481,-0.76762 -1.44852,-0.77206 -1.44219,-0.77649 -1.43583,-0.78088 -1.42942,-0.78527 -1.42299,-0.78963 -1.41652,-0.79397 -1.41001,-0.7983 -1.40347,-0.8026 -1.3969,-0.80688 -1.39028,-0.81115 -1.38363,-0.81538 -1.37695,-0.81961 -1.37024,-0.82381 -1.36348,-0.82799 -1.35671,-0.83216 -1.34988,-0.83629 -1.34303,-0.84041 -1.33615,-0.84451 -1.32922,-0.84858 -1.32228,-0.85264 -1.31529,-0.85667 -1.30827,-0.86069 -1.30122,-0.86468 -1.29414,-0.86864 -1.28702,-0.8726 -1.27988,-0.87652 -1.27269,-0.88042 -1.26548,-0.88431 -1.25824,-0.88816 -1.25097,-0.89201 -1.24366,-0.89581 -1.23632,-0.89961 -1.22895,-0.90339 -1.22155,-0.90713 -1.21413,-0.91085 -1.20667,-0.91456 -1.19917,-0.91823 -1.19166,-0.9219 -1.18411,-0.92552 -1.17652,-0.92914 -1.16892,-0.93273 -1.16128,-0.93628 -1.15362,-0.93983 -1.14592,-0.94335 -1.13819,-0.94684 -1.13044,-0.95031 -1.12266,-0.95375 -1.11485,-0.95718 -1.10702,-0.96057 -1.09915,-0.96395 -1.09126,-0.9673 -1.08333,-0.97062 -1.0754,-0.97393 -1.06741,-0.9772 -1.05942,-0.98046 -1.05139,-0.98369 -1.04334,-0.98688 -1.03526,-0.99007 -1.02716,-0.99322 -1.01902,-0.99635 -1.01087,-0.99946 -1.00269,-1.00254 -0.99448,-1.00559 -0.98625,-1.00862 -0.97799,-1.01162 -0.96972,-1.0146 -0.96141,-1.01756 -0.95308,-1.02048 -0.94473,-1.02339 -0.93635,-1.02626 -0.92795,-1.02912 -0.91953,-1.03193 -0.91109,-1.03474 -0.90261,-1.03752 -0.89413,-1.04026 -0.88561,-1.04298 -0.87708,-1.04568 -0.86852,-1.04835 -0.85994,-1.051 -0.85134,-1.05361 -0.84272,-1.0562 -0.83407,-1.05876 -0.82541,-1.06131 -0.81673,-1.06381 -0.80802,-1.0663 -0.7993,-1.06876 -0.79055,-1.07119 -0.78179,-1.07359 -0.773,-1.07598 -0.7642,-1.07832 -0.75538,-1.08065 -0.74653,-1.08294 -0.73768,-1.08522 -0.72879,-1.08745 -0.7199,-1.08968 -0.71099,-1.09186 -0.70205,-1.09402 -0.6931,-1.09616 -0.68413,-1.09826 -0.67515,-1.10034 -0.66615,-1.1024 -0.65713,-1.10441 -0.64809,-1.10642 -0.63905,-1.10838 -0.62998,-1.11032 -0.62089,-1.11224 -0.6118,-1.11412 -0.60268,-1.11598 -0.59355,-1.1178 -0.58441,-1.11961 -0.57526,-1.12139 -0.56608,-1.12313 -0.55689,-1.12484 -0.54769,-1.12654 -0.53848,-1.12819 -0.52926,-1.12983 -0.52001,-1.13144 -0.51076,-1.13301 -0.50149,-1.13456 -0.49221,-1.13608 -0.48292,-1.13757 -0.47362,-1.13903 -0.4643,-1.14047 -0.45497,-1.14187 -0.44564,-1.14325 -0.43629,-1.1446 -0.42693,-1.14592 -0.41755,-1.14722 -0.40818,-1.14847 -0.39878,-1.14971 -0.38938,-1.15091 -0.37997,-1.15209 -0.37055,-1.15324 -0.36112,-1.15436 -0.35168,-1.15545 -0.34223,-1.15651 -0.33278,-1.15754 -0.32331,-1.15855 -0.31383,-1.15951 -0.30436,-1.16047 -0.29487,-1.16138 -0.28537,-1.16227 -0.27587,-1.16313 -0.26637,-1.16395 -0.25684,-1.16476 -0.24732,-1.16553 -0.23779,-1.16627 -0.22826,-1.16698 -0.21872,-1.16767 -0.20917,-1.16832 -0.19962,-1.16894 -0.19006,-1.16954 -0.1805,-1.17011 -0.17094,-1.17065 -0.16137,-1.17115 -0.15179,-1.17164 -0.14221,-1.17208 -0.13264,-1.1725 -0.12304,-1.1729 -0.11347,-1.17325 -0.10387,-1.17359 -0.0943,-1.17389 -0.0847,-1.17417 -0.0751,-1.17441 -0.0655,-1.17462 -0.0559,-1.17481 -0.0463,-1.17497 -0.0367,-1.17509 -0.0271,-1.17519 -0.0175,-1.17526 -0.008,-1.1753 0,-0.74874 0,0 0.008,-1.1753 0.0175,-1.17526 0.0271,-1.17519 0.0367,-1.17509 0.0463,-1.17497 0.0559,-1.17481 0.0655,-1.17462 0.0751,-1.17441 0.0847,-1.17417 0.0943,-1.17389 0.10387,-1.17359 0.11347,-1.17325 0.12304,-1.1729 0.13264,-1.1725 0.14221,-1.17208 0.15179,-1.17164 0.16137,-1.17115 0.17094,-1.17065 0.1805,-1.17011 0.19006,-1.16954 0.19962,-1.16894 0.20917,-1.16832 0.21872,-1.16767 0.22826,-1.16698 0.23779,-1.16627 0.24732,-1.16553 0.25684,-1.16476 0.26637,-1.16395 0.27587,-1.16313 0.28537,-1.16227 0.29487,-1.16138 0.30436,-1.16047 0.31383,-1.15952 0.32331,-1.15854 0.33278,-1.15754 0.34223,-1.15651 0.35168,-1.15545 0.36112,-1.15436 0.37055,-1.15324 0.37997,-1.15209 0.38938,-1.15091 0.39878,-1.14971 0.40818,-1.14847 0.41755,-1.14722 0.42693,-1.14592 0.43629,-1.1446 0.44564,-1.14325 0.45497,-1.14187 0.4643,-1.14047 0.47362,-1.13903 0.48292,-1.13757 0.49221,-1.13608 0.50149,-1.13456 0.51076,-1.13301 0.52001,-1.13144 0.52926,-1.12983 0.53848,-1.12819 0.54769,-1.12654 0.55689,-1.12485 0.56608,-1.12312 0.57526,-1.12139 0.58441,-1.11961 0.59355,-1.11781 0.60268,-1.11597 0.6118,-1.11412 0.62089,-1.11224 0.62998,-1.11032 0.63905,-1.10838 0.64809,-1.10642 0.65713,-1.10441 0.66615,-1.1024 0.67515,-1.10034 0.68413,-1.09826 0.6931,-1.09616 0.70205,-1.09402 0.71099,-1.09186 0.7199,-1.08967 0.72879,-1.08746 0.73768,-1.08522 0.74653,-1.08294 0.75538,-1.08065 0.7642,-1.07832 0.773,-1.07598 0.78179,-1.07359 0.79055,-1.07119 0.7993,-1.06876 0.80802,-1.0663 0.81673,-1.06381 0.82541,-1.06131 0.83407,-1.05876 0.84272,-1.0562 0.85134,-1.05361 0.85994,-1.051 0.86852,-1.04835 0.87708,-1.04568 0.88561,-1.04298 0.89413,-1.04026 0.90261,-1.03752 0.91109,-1.03474 0.91953,-1.03194 0.92795,-1.02911 0.93635,-1.02626 0.94473,-1.02339 0.95308,-1.02048 0.96141,-1.01756 0.96972,-1.0146 0.97799,-1.01163 0.98625,-1.00861 0.99448,-1.00559 1.00269,-1.00254 1.01087,-0.99946 1.01902,-0.99635 1.02716,-0.99322 1.03526,-0.99007 1.04334,-0.98688 1.05139,-0.98369 1.05942,-0.98046 1.06741,-0.9772 1.0754,-0.97393 1.08333,-0.97062 1.09126,-0.9673 1.09915,-0.96395 1.10702,-0.96057 1.11485,-0.95718 1.12266,-0.95375 1.13044,-0.95031 1.13819,-0.94684 1.14592,-0.94335 1.15362,-0.93983 1.16128,-0.93628 1.16892,-0.93273 1.17652,-0.92914 1.18411,-0.92552 1.19166,-0.9219 1.19917,-0.91823 1.20667,-0.91456 1.21413,-0.91085 1.22155,-0.90713 1.22895,-0.90339 1.23632,-0.89961 1.24366,-0.895815 1.25097,-0.892004 1.25824,-0.888165 1.26548,-0.884306 1.27269,-0.880423 1.27988,-0.87652 1.28702,-0.872594 1.29414,-0.868646 1.30122,-0.864677 1.30827,-0.860686 1.31529,-0.856674 1.32228,-0.852639 1.32922,-0.848584 1.33615,-0.844508 1.34303,-0.84041 1.34988,-0.836292 1.35671,-0.832152 1.36348,-0.827992 1.37024,-0.823811 1.37695,-0.819609 1.38363,-0.815387 1.39028,-0.811145 1.3969,-0.806882 1.40347,-0.802599 1.41001,-0.798296 1.41652,-0.793973 1.42299,-0.78963 1.42942,-0.785268 1.43583,-0.780886 1.44219,-0.776483 1.44852,-0.772063 1.45481,-0.767623 1.46107,-0.763163 1.46728,-0.758684 1.47347,-0.754186 1.47961,-0.749671 1.48572,-0.745134 1.4918,-0.740581 1.49783,-0.736009 1.50382,-0.731418 1.50978,-0.726809 1.51571,-0.722181 1.52159,-0.717537 1.52743,-0.712873 1.53324,-0.708192 1.53901,-0.703493 1.54474,-0.698777 1.55043,-0.694043 1.55609,-0.689292 1.5617,-0.684524 1.56727,-0.679738 1.57281,-0.674935 1.57831,-0.670117 1.58377,-0.66528 1.58918,-0.660427 1.59456,-0.655558 1.59989,-0.650673 1.6052,-0.64577 1.61045,-0.640853 1.61567,-0.635918 1.62085,-0.630969 1.62599,-0.626002 1.63108,-0.621021 1.63613,-0.616025 1.64115,-0.611012 1.64613,-0.605984 1.65105,-0.600942 1.65595,-0.595884 1.6608,-0.590811 1.6656,-0.585724 1.67037,-0.580621 1.6751,-0.575505 1.67978,-0.570374 1.68441,-0.565229 1.68902,-0.56007 1.69357,-0.554896 1.69809,-0.549708 1.70256,-0.544508 1.70699,-0.539293 1.71137,-0.534065 1.71572,-0.528824 1.72002,-0.523569 1.72428,-0.518301 1.72849,-0.513021 1.73266,-0.507727 1.73679,-0.50242 1.74087,-0.497102 1.74492,-0.491771 1.74891,-0.486427 1.75287,-0.481072 1.75678,-0.475703 1.76064,-0.470325 1.76446,-0.464932 1.76825,-0.45953 1.77198,-0.454116 1.77566,-0.448689 1.77931,-0.443253 1.78291,-0.437804 1.78647,-0.432346 1.78998,-0.426875 1.79344,-0.421395 1.79687,-0.415904 1.80024,-0.410403 1.80358,-0.40489 1.80686,-0.399369 1.8101,-0.393837 1.8133,-0.388295 1.81645,-0.382744 1.81956,-0.377183 1.82261,-0.371613 1.82563,-0.366033 1.8286,-0.360444 1.83152,-0.354846 1.8344,-0.349239 1.83723,-0.343625 1.84002,-0.338 1.84276,-0.332367 1.84545,-0.326727 1.84809,-0.321078 1.8507,-0.31542 1.85325,-0.309756 1.85576,-0.304084 1.85822,-0.298403 1.86064,-0.292715 1.86301,-0.28702 1.86533,-0.281319 1.86761,-0.275609 1.86983,-0.269892 1.87202,-0.26417 1.87415,-0.258441 1.87624,-0.252705 1.87829,-0.246962 1.88028,-0.241214 1.88222,-0.23546 1.88413,-0.229699 1.88598,-0.223933 1.88779,-0.218162 1.88955,-0.212385 1.89126,-0.206602 1.89292,-0.200814 1.89455,-0.195022 1.89611,-0.189224 1.89764,-0.183422 1.89911,-0.177616 1.90054,-0.171804 1.90192,-0.165988 1.90325,-0.160169 1.90454,-0.154345 1.90577,-0.148518 1.90696,-0.142687 1.90811,-0.136851 1.9092,-0.131013 1.91025,-0.125172 1.91125,-0.119327 1.9122,-0.11348 1.9131,-0.107629 1.91396,-0.101776 1.91477,-0.09592 1.91553,-0.09006 1.91624,-0.0842 1.9169,-0.07834 1.91752,-0.07247 1.91809,-0.06661 1.9186,-0.06074 1.91909,-0.05487 1.9195,-0.049 1.91988,-0.04313 1.92021,-0.03726 1.92049,-0.03138 1.92073,-0.02551 1.9209,-0.01963 1.92105,-0.01376 1.92113,-0.0079 1.92117,-0.002 1.92117,0.0039 1.92111,0.0098 1.921,0.01563 1.92086,0.0215 1.92065,0.02738 1.92041,0.03325 1.92011,0.03913 1.91977,0.045 1.91937,0.05087 1.91894,0.05674 1.91844,0.06261 1.91792,0.06848 1.91732,0.07434 1.9167,0.08021 1.91602,0.08607 1.91529,0.09193 1.91451,0.09779 1.9137,0.10364 1.91282,0.109493 1.9119,0.115343 1.91093,0.121189 1.90992,0.127033 1.90886,0.132873 1.90775,0.13871 1.90659,0.144545 1.90539,0.150374 1.90413,0.156201 1.90283,0.162023 1.90149,0.167841 1.90009,0.173656 1.89864,0.179465 1.89716,0.185271 1.89562,0.191072 1.89403,0.196867 1.8924,0.202659 1.89072,0.208444 1.88899,0.214225 1.88722,0.220001 1.8854,0.225771 1.88352,0.231534 1.88161,0.237294 1.87965,0.243045 1.87764,0.248792 1.87558,0.254533 1.87348,0.260266 1.87133,0.265994 1.86913,0.271714 1.86689,0.277429 1.86459,0.283135 1.86226,0.288835 1.85987,0.294528 1.85745,0.300213 1.85496,0.305891 1.85245,0.311561 1.84987,0.317224 1.84726,0.322878 1.8446,0.328524 1.84188,0.334163 1.83914,0.339792 1.83633,0.345414 1.83349,0.351026 1.8306,0.356631 1.82765,0.362225 1.82468,0.367811 1.82164,0.373388 1.81858,0.378955 1.81545,0.384514 1.81228,0.390061 1.80908,0.3956 1.80582,0.401129 1.80252,0.406648 1.79917,0.412155 1.79578,0.417655 1.79235,0.423141 1.78886,0.428619 1.78534,0.434086 1.78177,0.439541 1.77815,0.444986 1.7745,0.450419 1.77079,0.455841 1.76705,0.461252 1.76325,0.466652 1.75941,0.472039 1.75554,0.477415 1.75161,0.482778 1.74765,0.488131 1.74363,0.49347 1.73958,0.498798 1.73548,0.504112 1.73134,0.509414 1.72715,0.514704 1.72293,0.519981 1.71865,0.525244 1.71434,0.530495 1.70998,0.535731 1.70558,0.540956 1.70114,0.546166 1.69666,0.551363 1.69212,0.556545 1.68756,0.561714 1.68294,0.56687 1.67829,0.57201 1.6736,0.577136 1.66886,0.582248 1.66407,0.587346 1.65926,0.592429 1.65439,0.597496 1.64949,0.60255 1.64455,0.607587 1.63955,0.612611 1.63454,0.617617 1.62946,0.62261 1.62435,0.627586 1.6192,0.632547 1.61402,0.637492 1.60878,0.642421 1.60351,0.647333 1.5982,0.652231 1.59285,0.657111 1.58746,0.661975 1.58204,0.666822 1.57656,0.671653 1.57105,0.676467 1.5655,0.681265 1.55992,0.686044 1.55428,0.690807 1.54863,0.695553 1.54292,0.700281 1.53717,0.704992 1.5314,0.709685 1.52557,0.714361 1.51972,0.719017 1.51383,0.723658 1.50788,0.728279 1.50192,0.732882 1.49591,0.737467 1.48987,0.742034 1.48378,0.746581 1.47766,0.751111 1.4715,0.755621 1.46531,0.760113 1.45908,0.764585 1.45281,0.769039 1.4465,0.773474 1.44017,0.777888 1.43379,0.782283 1.42738,0.78666 1.42094,0.791016 1.41445,0.795352 1.40793,0.799669 1.40138,0.803965 1.39478,0.808242 1.38817,0.812498 1.38151,0.816735 1.37482,0.820949 1.36809,0.825145 1.36132,0.829319 1.35454,0.833473 1.3477,0.837606 1.34085,0.841718 1.33394,0.845808 1.32702,0.849879 1.32005,0.853926 1.31306,0.857954 1.30603,0.86196 1.29897,0.865943 1.29187,0.869906 1.28475,0.873847 1.27759,0.877766 1.2704,0.881663 1.26318,0.885537 1.25593,0.88939 1.24864,0.893221 1.24132,0.897037 1.23398,0.90081 1.2266,0.90458 1.21919,0.90832 1.21175,0.91203 1.20429,0.91574 1.19678,0.9194 1.18926,0.92305 1.18169,0.92668 1.17411,0.93028 1.16649,0.93387 1.15884,0.93741 1.15117,0.94096 1.14346,0.94446 1.13573,0.94794 1.12796,0.95141 1.12018,0.95485 1.11236,0.95826 1.10451,0.96165 1.09664,0.96502 1.08873,0.96836 1.08082,0.97168 1.07285,0.97498 1.06487,0.97824 1.05687,0.98149 1.04883,0.9847 1.04077,0.98791 1.03268,0.99107 1.02456,0.99422 1.01643,0.99735 1.00827,1.00044 1.00007,1.00351 0.99187,1.00655 0.98362,1.00958 0.97536,1.01258 0.96707,1.01554 0.95876,1.01849 0.95042,1.02142 0.94207,1.0243 0.93367,1.02718 0.92528,1.03001 0.91684,1.03284 0.90839,1.03562 0.89992,1.0384 0.89141,1.04113 0.8829,1.04384 0.87435,1.04654 0.86579,1.04919 0.8572,1.05183 0.8486,1.05444 0.83997,1.05702 0.83131,1.05958 0.82265,1.0621 0.81396,1.06461 0.80524,1.06709 0.79652,1.06953 0.78776,1.07196 0.77899,1.07436 0.7702,1.07672 0.76139,1.07907 0.75257,1.08138 0.74371,1.08367 0.73485,1.08593 0.72596,1.08817 0.71706,1.09037 0.70815,1.09256 0.6992,1.0947 0.69024,1.09683 0.68128,1.09893 0.67228,1.101 0.66328,1.10304 0.65425,1.10505 0.64522,1.10705 0.63615,1.109 0.62709,1.11093 0.61799,1.11284 0.6089,1.11472 0.59978,1.11656 0.59064,1.11839 0.5815,1.12018 0.57233,1.12194 0.56315,1.12368 0.55397,1.12539 0.54476,1.12706 0.53554,1.12872 0.52631,1.13035 0.51707,1.13194 0.50781,1.1335 0.49853,1.13505 0.48926,1.13656 0.47995,1.13804 0.47066,1.13949 0.46133,1.14092 0.452,1.14231 0.44266,1.14369 0.43331,1.14502 0.42394,1.14634 0.41457,1.14761 0.40518,1.14887 0.39579,1.1501 0.38639,1.15129 0.37697,1.15246 0.36754,1.1536 0.35812,1.15471 0.34867,1.15579 0.33922,1.15684 0.32976,1.15786 0.3203,1.15886 0.31081,1.15983 0.30134,1.16076 0.29184,1.16166 0.28235,1.16255 0.27284,1.16339 0.26333,1.16422 0.25382,1.165 0.24428,1.16577 0.23476,1.1665 0.22522,1.1672 0.21567,1.16788 0.20613,1.16853 0.19658,1.16913 0.18702,1.16973 0.17745,1.17028 0.16789,1.17081 0.15832,1.17131 0.14874,1.17178 0.13916,1.17222 0.12958,1.17263 0.12,1.17302 0.11041,1.17336 0.10081,1.17369 0.0912,1.17398 0.0816,1.17425 0.072,1.17448 0.0624,1.17469 0.0528,1.17486 0.0432,1.17501 0.0336,1.17513 0.024,1.17521 0.0144,1.17528 0.005,1.1753 z"
         clip-path="url(#p3c94fc5b93)" />
    </g>
    <g
       style="stroke-linecap:butt;stroke-linejoin:round"
       id="line2d_1">
      <path
         inkscape:connector-curvature="0"
         id="path22"
         style="fill:none;stroke:#f5f500;stroke-linecap:round;stroke-linejoin:round"
         d="m 888.23528,252 -0.12007,-5.87593 -0.36013,-5.87226 -0.59996,-5.86492 -0.83942,-5.85391 -1.07836,-5.83924 -1.31662,-5.82093 -1.55405,-5.79897 -1.79052,-5.7734 -2.02587,-5.74421 -2.25996,-5.71143 -2.49262,-5.67509 -2.72373,-5.6352 -2.95315,-5.59179 -3.1807,-5.54487 -3.40628,-5.4945 -3.62973,-5.4407 -3.85091,-5.38349 -4.06968,-5.32291 -4.28591,-5.25902 -4.49946,-5.19183 -4.7102,-5.1214 -4.91799,-5.04776 -5.12271,-4.97099 -5.32424,-4.89109 -5.52242,-4.80814 -5.71716,-4.72218 -5.90833,-4.63328 -6.09581,-4.54148 -7.55706,-5.32461 -7.81473,-5.183536 -8.06537,-5.037803 -8.30875,-4.887534 -8.54466,-4.732868 -8.77286,-4.573943 -8.99319,-4.410901 -9.20541,-4.243889 -9.40935,-4.073058 -9.60482,-3.898563 -9.79165,-3.720558 -9.96967,-3.539205 -10.13871,-3.354668 -10.29863,-3.167111 -10.44929,-2.976703 -10.59054,-2.783618 -10.72225,-2.588028 -10.84432,-2.390107 -10.95664,-2.190036 -11.05908,-1.987995 -11.15158,-1.784163 -11.23405,-1.578728 -11.30639,-1.37187 -11.36857,-1.163778 -11.42052,-0.95464 -11.46218,-0.744641 -11.49354,-0.533973 -11.51455,-0.322823 -11.5252,-0.111385 -11.52547,0.100155 -11.51537,0.311605 -11.49492,0.522773 -11.46411,0.733472 -11.42298,0.943511 -11.37159,1.1527 -11.30995,1.360853 -11.23814,1.567779 -11.15621,1.773297 -11.06425,1.977217 -10.96232,2.179358 -10.85053,2.379538 -10.72898,2.577577 -10.59777,2.773295 -10.45702,2.966519 -10.30687,3.157073 -10.14743,3.344785 -9.97887,3.529487 -9.80133,3.711013 -9.61495,3.889199 -9.41995,4.063886 -9.21644,4.234915 -9.00466,4.402132 -8.78476,4.56539 -8.55696,4.724536 -8.32147,4.879433 -8.07847,5.029938 -7.82822,5.175916 -7.57092,5.317233 -7.30679,5.45377 -5.88249,4.64557 -5.69083,4.73408 -5.49561,4.81962 -5.29696,4.90216 -5.095,4.98164 -4.88985,5.05799 -4.68164,5.13118 -4.47052,5.20118 -4.25659,5.26792 -4.04001,5.33137 -3.8209,5.39148 -3.59941,5.44823 -3.37566,5.50157 -3.14981,5.55148 -2.92198,5.5979 -2.69233,5.64085 -2.461,5.68025 -2.22813,5.71611 -1.99386,5.7484 -1.75836,5.7771 -1.52174,5.80218 -1.28419,5.82364 -1.04583,5.84145 -0.80681,5.85563 -0.5673,5.86613 -0.32741,5.87298 -0.0891,4.70084 0,0"
         clip-path="url(#p3c94fc5b93)" />
    </g>
    <g
       style="stroke-linecap:butt;stroke-linejoin:round"
       id="line2d_2">
      <path
         inkscape:connector-curvature="0"
         id="path25"
         style="fill:none;stroke:#000000;stroke-width:20;stroke-linecap:round;stroke-linejoin:round"
         d="m 888.23528,252 -0.12007,-5.87593 -0.36013,-5.87226 -0.59996,-5.86492 -0.83942,-5.85391 -1.07836,-5.83924 -1.31662,-5.82093 -1.55405,-5.79897 -1.79052,-5.7734 -2.02587,-5.74421 -2.25996,-5.71143 -2.49262,-5.67509 -2.72373,-5.6352 -2.95315,-5.59179 -3.1807,-5.54487 -3.40628,-5.4945 -3.62973,-5.4407 -3.85091,-5.38349 -4.06968,-5.32291 -4.28591,-5.25902 -4.49946,-5.19183 -4.7102,-5.1214 -4.91799,-5.04776 -5.12271,-4.97099 -5.32424,-4.89109 -5.52242,-4.80814 -5.71716,-4.72218 -5.90833,-4.63328 -6.09581,-4.54148 -7.55706,-5.32461 -7.81473,-5.183536 -8.06537,-5.037803 -8.30875,-4.887534 -8.54466,-4.732868 -8.77286,-4.573943 -8.99319,-4.410901 -9.20541,-4.243889 -9.40935,-4.073058 -9.60482,-3.898563 -9.79165,-3.720558 -9.96967,-3.539205 -10.13871,-3.354668 -10.29863,-3.167111 -10.44929,-2.976703 -10.59054,-2.783618 -10.72225,-2.588028 -10.84432,-2.390107 -10.95664,-2.190036 -11.05908,-1.987995 -11.15158,-1.784163 -11.23405,-1.578728 -11.30639,-1.37187 -11.36857,-1.163778 -11.42052,-0.95464 -11.46218,-0.744641 -11.49354,-0.533973 -11.51455,-0.322823 -11.5252,-0.111385 -11.52547,0.100155 -11.51537,0.311605 -11.49492,0.522773 -11.46411,0.733472 -11.42298,0.943511 -11.37159,1.1527 -11.30995,1.360853 -11.23814,1.567779 -11.15621,1.773297 -11.06425,1.977217 -10.96232,2.179358 -10.85053,2.379538 -10.72898,2.577577 -10.59777,2.773295 -10.45702,2.966519 -10.30687,3.157073 -10.14743,3.344785 -9.97887,3.529487 -9.80133,3.711013 -9.61495,3.889199 -9.41995,4.063886 -9.21644,4.234915 -9.00466,4.402132 -8.78476,4.56539 -8.55696,4.724536 -8.32147,4.879433 -8.07847,5.029938 -7.82822,5.175916 -7.57092,5.317233 -7.30679,5.45377 -5.88249,4.64557 -5.69083,4.73408 -5.49561,4.81962 -5.29696,4.90216 -5.095,4.98164 -4.88985,5.05799 -4.68164,5.13118 -4.47052,5.20118 -4.25659,5.26792 -4.04001,5.33137 -3.8209,5.39148 -3.59941,5.44823 -3.37566,5.50157 -3.14981,5.55148 -2.92198,5.5979 -2.69233,5.64085 -2.461,5.68025 -2.22813,5.71611 -1.99386,5.7484 -1.75836,5.7771 -1.52174,5.80218 -1.28419,5.82364 -1.04583,5.84145 -0.80681,5.85563 -0.5673,5.86613 -0.32741,5.87298 -0.0891,4.70084 0,0"
         clip-path="url(#p3c94fc5b93)" />
    </g>
    <g
       style="stroke-linecap:butt;stroke-linejoin:round"
       id="line2d_3">
      <path
         inkscape:connector-curvature="0"
         id="path34"
         style="fill:none;stroke:#000000;stroke-width:20;stroke-linecap:round;stroke-linejoin:round"
         d="m 888.23528,252 -0.12007,5.87593 -0.36013,5.87226 -0.59996,5.86492 -0.83942,5.85391 -1.07836,5.83924 -1.31662,5.82093 -1.55405,5.79897 -1.79052,5.7734 -2.02587,5.74421 -2.25996,5.71143 -2.49262,5.67509 -2.72373,5.6352 -2.95315,5.59178 -3.1807,5.54488 -3.40628,5.4945 -3.62973,5.4407 -3.85091,5.38349 -4.06968,5.32291 -4.28591,5.25902 -4.49946,5.19183 -4.7102,5.1214 -4.91799,5.04776 -5.12271,4.97099 -5.32424,4.89109 -5.52242,4.80814 -5.71716,4.72218 -5.90833,4.63328 -6.09581,4.54148 -7.55706,5.32461 -7.81473,5.18354 -8.06537,5.0378 -8.30875,4.88753 -8.54466,4.73287 -8.77286,4.57394 -8.99319,4.4109 -9.20541,4.24389 -9.40935,4.07306 -9.60482,3.89856 -9.79165,3.72056 -9.96967,3.53921 -10.13871,3.35467 -10.29863,3.16711 -10.44929,2.9767 -10.59054,2.78362 -10.72225,2.58803 -10.84432,2.3901 -10.95664,2.19004 -11.05908,1.98799 -11.15158,1.78417 -11.23405,1.57872 -11.30639,1.37187 -11.36857,1.16378 -11.42052,0.95464 -11.46218,0.74464 -11.49354,0.53398 -11.51455,0.32282 -11.5252,0.11138 -11.52547,-0.10015 -11.51537,-0.3116 -11.49492,-0.52278 -11.46411,-0.73347 -11.42298,-0.94351 -11.37159,-1.1527 -11.30995,-1.36085 -11.23814,-1.56778 -11.15621,-1.7733 -11.06425,-1.97722 -10.96232,-2.17935 -10.85053,-2.37954 -10.72898,-2.57758 -10.59777,-2.7733 -10.45702,-2.96651 -10.30687,-3.15708 -10.14743,-3.34478 -9.97887,-3.52949 -9.80133,-3.71101 -9.61495,-3.8892 -9.41995,-4.06389 -9.21644,-4.23491 -9.00466,-4.40213 -8.78476,-4.56539 -8.55696,-4.72454 -8.32147,-4.87943 -8.07847,-5.02994 -7.82822,-5.17592 -7.57092,-5.31723 -7.30679,-5.45377 -5.88249,-4.64557 -5.69083,-4.73408 -5.49561,-4.81962 -5.29696,-4.90216 -5.095,-4.98164 -4.88985,-5.05799 -4.68164,-5.13118 -4.47052,-5.20118 -4.25659,-5.26792 -4.04001,-5.33137 -3.8209,-5.39148 -3.59941,-5.44823 -3.37566,-5.50157 -3.14981,-5.55148 -2.92198,-5.59791 -2.69233,-5.64084 -2.461,-5.68025 -2.22813,-5.71611 -1.99386,-5.7484 -1.75836,-5.7771 -1.52174,-5.80218 -1.28419,-5.82364 -1.04583,-5.84145 -0.80681,-5.85563 -0.5673,-5.86613 -0.32741,-5.87298 -0.0891,-4.70084 0,0"
         clip-path="url(#p3c94fc5b93)" />
    </g>
    <g
       style="stroke-linecap:butt;stroke-linejoin:round"
       id="PolyCollection_2">
      <path
         style="stroke-linecap:butt;stroke-linejoin:round"
         inkscape:connector-curvature="0"
         id="path37"
         d="m 187.5705,252 0,0 0.45205,9.66161 0.45204,3.99708 0.45204,3.06374 0.45204,2.58006 0.45204,2.27061 0.45205,2.05058 0.45204,1.88366 0.45204,1.75136 0.45204,1.64313 0.45204,1.55242 0.45204,1.47495 0.45205,1.40775 0.45204,1.34875 0.45204,1.29637 0.45204,1.24947 0.45204,1.20715 0.45204,1.16869 0.45205,1.13354 0.45204,1.10125 0.45204,1.07144 0.45204,1.04382 0.45204,1.01812 0.45205,0.99412 0.45204,0.97166 0.45204,0.95055 0.45204,0.93068 0.45204,0.91193 0.45204,0.89419 0.45205,0.87737 0.45204,0.8614 0.45204,0.84621 0.45204,0.83172 0.45204,0.8179 0.45205,0.80468 0.45204,0.79204 0.45204,0.77991 0.45204,0.76828 0.45204,0.7571 0.45204,0.74635 0.45205,0.73599 0.45204,0.72602 0.45204,0.71639 0.45204,0.7071 0.45204,0.69812 0.45204,0.68943 0.45205,0.68102 0.45204,0.67288 0.45204,0.66499 0.45204,0.65733 0.45204,0.64989 0.45205,0.64268 0.45204,0.63566 0.45204,0.62884 0.45204,0.62221 0.45204,0.61575 0.45205,0.60945 0.45204,0.60332 0.45204,0.59735 0.45204,0.59152 0.45204,0.58583 0.45204,0.58028 0.45205,0.57485 0.45204,0.56956 0.45204,0.56438 0.45204,0.55932 0.45204,0.55436 0.45204,0.54952 0.45205,0.54478 0.45204,0.54013 0.45204,0.53559 0.45204,0.53113 0.45204,0.52676 0.45205,0.52248 0.45204,0.51829 0.45204,0.51416 0.45204,0.51012 0.45204,0.50616 0.45204,0.50227 0.45205,0.49844 0.45204,0.49469 0.45204,0.491 0.45204,0.48738 0.45204,0.48381 0.45204,0.48031 0.45205,0.47687 0.45204,0.47348 0.45204,0.47014 0.45204,0.46687 0.45204,0.46365 0.45205,0.46046 0.45204,0.45734 0.45204,0.45426 0.45204,0.45123 0.45204,0.44824 0.45204,0.4453 0.45205,0.4424 0.45204,0.43955 0.45204,0.43672 0.45204,0.43395 0.45204,0.43121 0.45205,0.42851 0.45204,0.42584 0.45204,0.42322 0.45204,0.42063 0.45204,0.41807 0.45204,0.41554 0.45205,0.41305 0.45204,0.41059 0.45204,0.40817 0.45204,0.40576 0.45204,0.4034 0.45204,0.40106 0.45205,0.39875 0.45204,0.39647 0.45204,0.39421 0.45204,0.39198 0.45204,0.38978 0.45205,0.38761 0.45204,0.38545 0.45204,0.38333 0.45204,0.38123 0.45204,0.37914 0.45204,0.37709 0.45205,0.37506 0.45204,0.37304 0.45204,0.37106 0.45204,0.36909 0.45204,0.36714 0.45205,0.36522 0.45204,0.3633 0.45204,0.36143 0.45204,0.35955 0.45204,0.3577 0.45204,0.35588 0.45205,0.35406 0.45204,0.35227 0.45204,0.3505 0.45204,0.34874 0.45204,0.34699 0.45204,0.34527 0.45205,0.34356 0.45204,0.34187 0.45204,0.34019 0.45204,0.33853 0.45204,0.33689 0.45205,0.33525 0.45204,0.33364 0.45204,0.33204 0.45204,0.33046 0.45204,0.32887 0.45204,0.32732 0.45205,0.32578 0.45204,0.32424 0.45204,0.32273 0.45204,0.32121 0.45204,0.31973 0.45205,0.31824 0.45204,0.31678 0.45204,0.31532 0.45204,0.31388 0.45204,0.31244 0.45204,0.31102 0.45205,0.30962 0.45204,0.30821 0.45204,0.30683 0.45204,0.30545 0.45204,0.30409 0.45205,0.30273 0.45204,0.30139 0.45204,0.30006 0.45204,0.29873 0.45204,0.29742 0.45204,0.29611 0.45205,0.29482 0.45204,0.29353 0.45204,0.29226 0.45204,0.291 0.45204,0.28974 0.45205,0.28848 0.45204,0.28726 0.45204,0.28602 0.45204,0.28479 0.45204,0.28359 0.45204,0.28238 0.45205,0.28119 0.45204,0.28 0.45204,0.27882 0.45204,0.27764 0.45204,0.27649 0.45204,0.27532 0.45205,0.27418 0.45204,0.27304 0.45204,0.27191 0.45204,0.27078 0.45204,0.26966 0.45205,0.26855 0.45204,0.26745 0.45204,0.26634 0.45204,0.26526 0.45204,0.26418 0.45204,0.2631 0.45205,0.26203 0.45204,0.26096 0.45204,0.25991 0.45204,0.25886 0.45204,0.25782 0.45204,0.25677 0.45205,0.25575 0.45204,0.25472 0.45204,0.2537 0.45204,0.25269 0.45204,0.25168 0.45205,0.25068 0.45204,0.24969 0.45204,0.24869 0.45204,0.24771 0.45204,0.24673 0.45204,0.24576 0.45205,0.24479 0.45204,0.24383 0.45204,0.24287 0.45204,0.24192 0.45204,0.24097 0.45204,0.24003 0.45205,0.2391 0.45204,0.23817 0.45204,0.23723 0.45204,0.23632 0.45204,0.2354 0.45205,0.23449 0.45204,0.23358 0.45204,0.23269 0.45204,0.23178 0.45204,0.23089 0.45204,0.23 0.45205,0.22912 0.45204,0.22824 0.45204,0.22737 0.45204,0.22649 0.45204,0.22563 0.45205,0.22477 0.45204,0.22391 0.45204,0.22306 0.45204,0.2222 0.45204,0.22137 0.45204,0.22052 0.45205,0.21968 0.45204,0.21886 0.45204,0.21802 0.45204,0.2172 0.45204,0.21638 0.45204,0.21556 0.45205,0.21474 0.45204,0.21394 0.45204,0.21313 0.45204,0.21233 0.45204,0.21153 0.45205,0.21074 0.45204,0.20994 0.45204,0.20916 0.45204,0.20837 0.45204,0.20759 0.45204,0.20681 0.45205,0.20604 0.45204,0.20527 0.45204,0.2045 0.45204,0.20374 0.45204,0.20298 0.45205,0.20221 0.45204,0.20147 0.45204,0.20071 0.45204,0.19997 0.45204,0.19922 0.45204,0.19848 0.45205,0.19774 0.45204,0.19701 0.45204,0.19627 0.45204,0.19554 0.45204,0.19482 0.45205,0.19409 0.45204,0.19337 0.45204,0.19266 0.45204,0.19194 0.45204,0.19123 0.45204,0.19051 0.45205,0.18981 0.45204,0.18911 0.45204,0.18841 0.45204,0.18771 0.45204,0.18701 0.45204,0.18632 0.45205,0.18563 0.45204,0.18494 0.45204,0.18425 0.45204,0.18358 0.45204,0.18289 0.45205,0.18222 0.45204,0.18154 0.45204,0.18087 0.45204,-0.75336 0.45204,-6.48084 0.45205,-2.72185 0.45204,-2.09619 0.45204,-1.76933 0.45204,-1.55853 0.45204,-1.40737 0.45204,-1.29176 0.45205,-1.19934 0.45204,-1.12307 0.45204,-1.05858 0.45204,-1.00301 0.45204,-0.95439 0.45205,-0.91129 0.45204,-0.87268 0.45204,-0.83779 0.45204,-0.806 0.45204,-0.77685 0.45204,-0.74994 0.45204,-0.72499 0.45205,-0.70173 0.45204,-0.67996 0.45204,-0.65951 0.45204,-0.64022 0.45204,-0.62199 0.45205,-0.60469 0.45204,-0.58823 0.45204,-0.57255 0.45204,-0.55755 0.45204,-0.5432 0.45205,-0.52942 0.45204,-0.51619 0.45204,-0.50343 0.45204,-0.49114 0.45204,-0.47926 0.45204,-0.46777 0.45205,-0.45664 0.45204,-0.44584 0.45204,-0.43537 0.45204,-0.42518 0.45204,-0.41527 0.45204,-0.40562 0.45205,-0.39619 0.45204,-0.38701 0.45204,-0.37803 0.45204,-0.36926 0.45204,-0.36067 0.45205,-0.35226 0.45204,-0.34402 0.45204,-0.33594 0.45204,-0.32801 0.45204,-0.32022 0.45204,-0.31257 0.45205,-0.30506 0.45204,-0.29765 0.45204,-0.29036 0.45204,-0.2832 0.45204,-0.27612 0.45204,-0.26916 0.45205,-0.26228 0.45204,-0.25549 0.45204,-0.2488 0.45204,-0.24218 0.45204,-0.23565 0.45205,-0.22918 0.45204,-0.22279 0.45204,-0.21646 0.45204,-0.2102 0.45204,-0.204 0.45204,-0.19786 0.45205,-0.19177 0.45204,-0.18574 0.45204,-0.17975 0.45204,-0.17382 0.45204,-0.16793 0.45205,-0.16208 0.45204,-0.15628 0.45204,-0.15051 0.45204,-0.14478 0.45204,-0.13908 0.45204,-0.13342 0.45205,-0.12778 0.45204,-0.12219 0.45204,-0.1166 0.45204,-0.11106 0.45204,-0.10554 0.45204,-0.10002 0.45205,-0.0946 0.45204,-0.0891 0.45204,-0.0836 0.45204,-0.0782 0.45204,-0.0728 0.45205,-0.0674 0.45204,-0.062 0.45204,-0.0566 0.45204,-0.0512 0.45204,-0.0459 0.45204,-0.0405 0.45205,-0.0352 0.45204,-0.0298 0.45204,-0.0245 0.45204,-0.0191 0.45204,-0.0138 0.45204,-0.008 0.45205,-0.003 0.45204,0.002 0.45204,0.008 0.45204,0.013 0.45204,0.0184 0.45205,0.0238 0.45204,0.0292 0.45204,0.0346 0.45204,0.04 0.45204,0.0455 0.45204,0.0509 0.45205,0.0564 0.45204,0.0619 0.45204,0.0675 0.45204,0.073 0.45204,0.0786 0.45205,0.0842 0.45204,0.0898 0.45204,0.0955 0.45204,0.10117 0.45204,0.10691 0.45204,0.11266 0.45205,0.11848 0.45204,0.12432 0.45204,0.13021 0.45204,0.13615 0.45204,0.14213 0.45204,0.14817 0.45205,0.15425 0.45204,0.16039 0.45204,0.1666 0.45204,0.17285 0.45204,0.17918 0.45205,0.18558 0.45204,0.19204 0.45204,0.19857 0.45204,0.20519 0.45204,0.21189 0.45204,0.21868 0.45205,0.22554 0.45204,0.23252 0.45204,0.23959 0.45204,0.24676 0.45204,0.25404 0.45205,0.26145 0.45204,0.26896 0.45204,0.27662 0.45204,0.2844 0.45204,0.29234 0.45204,0.30041 0.45205,0.30865 0.45204,0.31707 0.45204,0.32564 0.45204,0.33443 0.45204,0.3434 0.45205,0.35259 0.45204,0.36201 0.45204,0.37166 0.45204,0.38157 0.45204,0.39177 0.45204,0.40224 0.45205,0.41303 0.45204,0.42416 0.45204,0.43565 0.45204,0.44753 0.45204,0.45983 0.45204,0.47258 0.45205,0.48581 0.45204,0.4996 0.45204,0.51394 0.45204,0.52894 0.45204,0.54463 0.45205,0.56108 0.45204,0.57838 0.45204,0.59662 0.45204,0.6159 0.45204,0.63636 0.45205,0.65812 0.45204,0.68138 0.45204,0.70633 0.45204,0.73324 0.45204,0.7624 0.45204,0.79418 0.45205,0.82908 0.45204,0.86768 0.45204,0.91078 0.45204,0.9594 0.45204,1.01498 0.45204,1.07946 0.45205,1.15573 0.45204,1.24815 0.45204,1.36377 0.45204,1.51492 0.45204,1.72573 0.45204,2.05258 0.45205,2.67825 0.45204,6.43722 0.45204,-6.31561 0.45204,-2.55665 0.45204,-1.93097 0.45205,-1.60411 0.45204,-1.39331 0.45204,-1.24216 0.45204,-1.12654 0.45204,-1.03412 0.45205,-0.95786 0.45204,-0.89336 0.45204,-0.8378 0.45204,-0.78917 0.45204,-0.74607 0.45204,-0.70747 0.45205,-0.67257 0.45204,-0.64079 0.45204,-0.61163 0.45204,-0.58472 0.45204,-0.55977 0.45204,-0.53652 0.45205,-0.51474 0.45204,-0.49429 0.45204,-0.47501 0.45204,-0.45677 0.45204,-0.43948 0.45205,-0.42301 0.45204,-0.40733 0.45204,-0.39234 0.45204,-0.37798 0.45204,-0.36421 0.45204,-0.35097 0.45205,-0.33822 0.45204,-0.32592 0.45204,-0.31404 0.45204,-0.30255 0.45204,-0.29143 0.45204,-0.28063 0.45205,-0.27015 0.45204,-0.25997 0.45204,-0.25005 0.45204,-0.2404 0.45204,-0.23098 0.45205,-0.22179 0.45204,-0.21281 0.45204,-0.20404 0.45204,-0.19546 0.45204,-0.18704 0.45204,-0.1788 0.45205,-0.17073 0.45204,-0.16279 0.45204,-0.15501 0.45204,-0.14736 0.45204,-0.13983 0.45205,-0.13244 0.45204,-0.12515 0.45204,-0.11797 0.45204,-0.11091 0.45204,-0.10394 0.45204,-0.0971 0.45205,-0.0903 0.45204,-0.0836 0.45204,-0.077 0.45204,-0.0704 0.45204,-0.064 0.45204,-0.0576 0.45205,-0.0512 0.45204,-0.045 0.45204,-0.0388 0.45204,-0.0326 0.45204,-0.0266 0.45205,-0.0205 0.45204,-0.0145 0.45204,-0.009 0.45204,-0.003 0.45204,0.003 0.45204,0.009 0.45205,0.0147 0.45204,0.0204 0.45204,0.0261 0.45204,0.0318 0.45204,0.0374 0.45204,0.043 0.45205,0.0486 0.45204,0.0541 0.45204,0.0597 0.45204,0.0652 0.45204,0.0707 0.45205,0.0761 0.45204,0.0816 0.45204,0.087 0.45204,0.0924 0.45204,0.0978 0.45204,0.10322 0.45205,0.1086 0.45204,0.11397 0.45204,0.11933 0.45204,0.12469 0.45204,0.13005 0.45205,0.13539 0.45204,0.14074 0.45204,0.14608 0.45204,0.15144 0.45204,0.15678 0.45204,0.16213 0.45205,0.1675 0.45204,0.17285 0.45204,0.17823 0.45204,0.18361 0.45204,0.189 0.45204,0.1944 0.45205,0.19981 0.45204,0.20525 0.45204,0.21069 0.45204,0.21615 0.45204,0.22164 0.45205,0.22714 0.45204,0.23267 0.45204,0.23822 0.45204,0.24379 0.45204,0.2494 0.45204,0.25503 0.45205,0.26069 0.45204,0.26639 0.45204,0.27211 0.45204,0.27789 0.45204,0.28369 0.45205,0.28954 0.45204,0.29542 0.45204,0.30137 0.45204,0.30735 0.45204,0.31338 0.45204,0.31947 0.45205,0.32561 0.45204,0.3318 0.45204,0.33808 0.45204,0.34439 0.45204,0.35079 0.45205,0.35726 0.45204,0.36379 0.45204,0.37041 0.45204,0.3771 0.45204,0.38389 0.45204,0.39077 0.45205,0.39773 0.45204,0.4048 0.45204,0.41198 0.45204,0.41926 0.45204,0.42666 0.45204,0.43419 0.45205,0.44183 0.45204,0.44962 0.45204,0.45755 0.45204,0.46563 0.45204,0.47387 0.45205,0.48227 0.45204,0.49087 0.45204,0.49964 0.45204,0.50862 0.45204,0.5178 0.45205,0.52723 0.45204,0.53687 0.45204,0.54679 0.45204,0.55698 0.45204,0.56746 0.45204,0.57825 0.45205,0.58938 0.45204,0.60087 0.45204,0.61274 0.45204,0.62505 0.45204,0.63779 0.45204,0.65103 0.45205,0.66481 0.45204,0.67916 0.45204,0.69416 0.45204,0.70984 0.45204,0.7263 0.45205,0.7436 0.45204,0.76183 0.45204,0.78112 0.45204,0.80157 0.45204,0.82334 0.45204,0.84659 0.45205,0.87156 0.45204,0.89845 0.45204,0.92761 0.45204,0.9594 0.45204,0.99429 0.45205,1.0329 0.45204,1.076 0.45204,1.12462 0.45204,1.18019 0.45204,1.24468 0.45204,1.32095 0.45205,1.41336 0.45204,1.52899 0.45204,1.68013 0.45204,1.89095 0.45204,2.21779 0.45204,2.84347 0.45205,6.60244 0,0 0.45204,-6.60244 0.45204,-2.84347 0.45204,-2.21779 0.45204,-1.89095 0.45205,-1.68013 0.45204,-1.52899 0.45204,-1.41336 0.45204,-1.32095 0.45204,-1.24468 0.45204,-1.18019 0.45205,-1.12462 0.45204,-1.076 0.45204,-1.0329 0.45204,-0.99429 0.45204,-0.9594 0.45204,-0.92761 0.45205,-0.89845 0.45204,-0.87156 0.45204,-0.84659 0.45204,-0.82334 0.45204,-0.80157 0.45205,-0.78112 0.45204,-0.76183 0.45204,-0.7436 0.45204,-0.7263 0.45204,-0.70984 0.45204,-0.69416 0.45205,-0.67916 0.45204,-0.66481 0.45204,-0.65103 0.45204,-0.63779 0.45204,-0.62505 0.45205,-0.61274 0.45204,-0.60087 0.45204,-0.58938 0.45204,-0.57825 0.45204,-0.56746 0.45204,-0.55698 0.45205,-0.54679 0.45204,-0.53687 0.45204,-0.52723 0.45204,-0.5178 0.45204,-0.50862 0.45204,-0.49964 0.45205,-0.49087 0.45204,-0.48227 0.45204,-0.47387 0.45204,-0.46563 0.45204,-0.45755 0.45205,-0.44962 0.45204,-0.44183 0.45204,-0.43419 0.45204,-0.42666 0.45204,-0.41926 0.45205,-0.41198 0.45204,-0.4048 0.45204,-0.39773 0.45204,-0.39077 0.45204,-0.38389 0.45204,-0.3771 0.45204,-0.37041 0.45205,-0.36379 0.45204,-0.35726 0.45204,-0.35079 0.45204,-0.34439 0.45204,-0.33808 0.45205,-0.3318 0.45204,-0.32561 0.45204,-0.31947 0.45204,-0.31338 0.45204,-0.30735 0.45205,-0.30137 0.45204,-0.29542 0.45204,-0.28954 0.45204,-0.28369 0.45204,-0.27789 0.45204,-0.27211 0.45205,-0.26639 0.45204,-0.26069 0.45204,-0.25503 0.45204,-0.2494 0.45204,-0.24379 0.45204,-0.23822 0.45205,-0.23267 0.45204,-0.22714 0.45204,-0.22164 0.45204,-0.21615 0.45204,-0.21069 0.45205,-0.20525 0.45204,-0.19981 0.45204,-0.1944 0.45204,-0.189 0.45204,-0.18361 0.45204,-0.17823 0.45205,-0.17285 0.45204,-0.1675 0.45204,-0.16213 0.45204,-0.15678 0.45204,-0.15144 0.45204,-0.14608 0.45205,-0.14074 0.45204,-0.13539 0.45204,-0.13005 0.45204,-0.12469 0.45204,-0.11933 0.45205,-0.11397 0.45204,-0.1086 0.45204,-0.10322 0.45204,-0.0978 0.45204,-0.0924 0.45204,-0.087 0.45205,-0.0816 0.45204,-0.0761 0.45204,-0.0707 0.45204,-0.0652 0.45204,-0.0597 0.45204,-0.0541 0.45205,-0.0486 0.45204,-0.043 0.45204,-0.0374 0.45204,-0.0318 0.45204,-0.0261 0.45205,-0.0204 0.45204,-0.0147 0.45204,-0.009 0.45204,-0.003 0.45204,0.003 0.45204,0.009 0.45205,0.0145 0.45204,0.0205 0.45204,0.0266 0.45204,0.0326 0.45204,0.0388 0.45205,0.045 0.45204,0.0512 0.45204,0.0576 0.45204,0.064 0.45204,0.0704 0.45205,0.077 0.45204,0.0836 0.45204,0.0903 0.45204,0.0971 0.45204,0.10394 0.45204,0.11091 0.45205,0.11797 0.45204,0.12515 0.45204,0.13244 0.45204,0.13983 0.45204,0.14736 0.45204,0.15501 0.45205,0.16279 0.45204,0.17073 0.45204,0.1788 0.45204,0.18704 0.45204,0.19546 0.45205,0.20404 0.45204,0.21281 0.45204,0.22179 0.45204,0.23098 0.45204,0.2404 0.45204,0.25005 0.45205,0.25997 0.45204,0.27015 0.45204,0.28063 0.45204,0.29143 0.45204,0.30255 0.45204,0.31404 0.45205,0.32592 0.45204,0.33822 0.45204,0.35097 0.45204,0.36421 0.45204,0.37798 0.45205,0.39234 0.45204,0.40733 0.45204,0.42301 0.45204,0.43948 0.45204,0.45677 0.45205,0.47501 0.45204,0.49429 0.45204,0.51474 0.45204,0.53652 0.45204,0.55977 0.45204,0.58472 0.45204,0.61163 0.45205,0.64079 0.45204,0.67257 0.45204,0.70747 0.45204,0.74607 0.45204,0.78917 0.45205,0.8378 0.45204,0.89336 0.45204,0.95786 0.45204,1.03412 0.45204,1.12654 0.45205,1.24216 0.45204,1.39331 0.45204,1.60411 0.45204,1.93097 0.45204,2.55665 0.45204,6.31561 0.45205,-6.43722 0.45204,-2.67825 0.45204,-2.05258 0.45204,-1.72573 0.45204,-1.51492 0.45204,-1.36377 0.45205,-1.24815 0.45204,-1.15573 0.45204,-1.07946 0.45204,-1.01498 0.45204,-0.9594 0.45205,-0.91078 0.45204,-0.86768 0.45204,-0.82908 0.45204,-0.79418 0.45204,-0.7624 0.45204,-0.73324 0.45205,-0.70633 0.45204,-0.68138 0.45204,-0.65812 0.45204,-0.63636 0.45204,-0.6159 0.45204,-0.59662 0.45205,-0.57838 0.45204,-0.56108 0.45204,-0.54463 0.45204,-0.52894 0.45204,-0.51394 0.45205,-0.4996 0.45204,-0.48581 0.45204,-0.47258 0.45204,-0.45983 0.45204,-0.44753 0.45204,-0.43565 0.45205,-0.42416 0.45204,-0.41303 0.45204,-0.40224 0.45204,-0.39177 0.45204,-0.38157 0.45204,-0.37166 0.45205,-0.36201 0.45204,-0.35259 0.45204,-0.3434 0.45204,-0.33443 0.45204,-0.32564 0.45205,-0.31707 0.45204,-0.30865 0.45204,-0.30041 0.45204,-0.29234 0.45204,-0.2844 0.45205,-0.27662 0.45204,-0.26896 0.45204,-0.26145 0.45204,-0.25404 0.45204,-0.24676 0.45204,-0.23959 0.45205,-0.23252 0.45204,-0.22554 0.45204,-0.21868 0.45204,-0.21189 0.45204,-0.20519 0.45204,-0.19857 0.45205,-0.19204 0.45204,-0.18558 0.45204,-0.17918 0.45204,-0.17285 0.45204,-0.1666 0.45205,-0.16039 0.45204,-0.15425 0.45204,-0.14817 0.45204,-0.14213 0.45204,-0.13615 0.45204,-0.13021 0.45205,-0.12432 0.45204,-0.11848 0.45204,-0.11266 0.45204,-0.10691 0.45204,-0.10117 0.45204,-0.0955 0.45205,-0.0898 0.45204,-0.0842 0.45204,-0.0786 0.45204,-0.073 0.45204,-0.0675 0.45205,-0.0619 0.45204,-0.0564 0.45204,-0.0509 0.45204,-0.0455 0.45204,-0.04 0.45204,-0.0346 0.45205,-0.0292 0.45204,-0.0238 0.45204,-0.0184 0.45204,-0.013 0.45204,-0.008 0.45204,-0.002 0.45205,0.003 0.45204,0.008 0.45204,0.0138 0.45204,0.0191 0.45204,0.0245 0.45205,0.0298 0.45204,0.0352 0.45204,0.0405 0.45204,0.0459 0.45204,0.0512 0.45204,0.0566 0.45205,0.062 0.45204,0.0674 0.45204,0.0728 0.45204,0.0782 0.45204,0.0836 0.45205,0.0891 0.45204,0.0946 0.45204,0.10002 0.45204,0.10554 0.45204,0.11106 0.45205,0.1166 0.45204,0.12219 0.45204,0.12778 0.45204,0.13342 0.45204,0.13908 0.45204,0.14478 0.45205,0.15051 0.45204,0.15628 0.45204,0.16208 0.45204,0.16793 0.45204,0.17382 0.45204,0.17975 0.45205,0.18574 0.45204,0.19177 0.45204,0.19786 0.45204,0.204 0.45204,0.2102 0.45205,0.21646 0.45204,0.22279 0.45204,0.22918 0.45204,0.23565 0.45204,0.24218 0.45204,0.2488 0.45205,0.25549 0.45204,0.26228 0.45204,0.26916 0.45204,0.27612 0.45204,0.2832 0.45204,0.29036 0.45205,0.29765 0.45204,0.30506 0.45204,0.31257 0.45204,0.32022 0.45204,0.32801 0.45205,0.33594 0.45204,0.34402 0.45204,0.35226 0.45204,0.36067 0.45204,0.36926 0.45205,0.37803 0.45204,0.38701 0.45204,0.39619 0.45204,0.40562 0.45204,0.41527 0.45204,0.42518 0.45204,0.43537 0.45205,0.44584 0.45204,0.45664 0.45204,0.46777 0.45204,0.47926 0.45204,0.49114 0.45205,0.50343 0.45204,0.51619 0.45204,0.52942 0.45204,0.5432 0.45204,0.55755 0.45205,0.57255 0.45204,0.58823 0.45204,0.60469 0.45204,0.62199 0.45204,0.64022 0.45204,0.65951 0.45205,0.67996 0.45204,0.70173 0.45204,0.72499 0.45204,0.74994 0.45204,0.77685 0.45204,0.806 0.45205,0.83779 0.45204,0.87268 0.45204,0.91129 0.45204,0.95439 0.45204,1.00301 0.45205,1.05858 0.45204,1.12307 0.45204,1.19934 0.45204,1.29176 0.45204,1.40737 0.45204,1.55853 0.45205,1.76933 0.45204,2.09619 0.45204,2.72185 0.45204,6.48084 0.45204,0.75336 0.45204,-0.18087 0.45205,-0.18154 0.45204,-0.18222 0.45204,-0.18289 0.45204,-0.18358 0.45204,-0.18425 0.45205,-0.18494 0.45204,-0.18563 0.45204,-0.18632 0.45204,-0.18701 0.45204,-0.18771 0.45204,-0.18841 0.45205,-0.18911 0.45204,-0.18981 0.45204,-0.19051 0.45204,-0.19123 0.45204,-0.19194 0.45204,-0.19266 0.45205,-0.19337 0.45204,-0.19409 0.45204,-0.19482 0.45204,-0.19554 0.45204,-0.19627 0.45205,-0.19701 0.45204,-0.19774 0.45204,-0.19848 0.45204,-0.19922 0.45204,-0.19997 0.45205,-0.20071 0.45204,-0.20147 0.45204,-0.20221 0.45204,-0.20298 0.45204,-0.20374 0.45204,-0.2045 0.45205,-0.20527 0.45204,-0.20604 0.45204,-0.20681 0.45204,-0.20759 0.45204,-0.20837 0.45204,-0.20916 0.45205,-0.20994 0.45204,-0.21074 0.45204,-0.21153 0.45204,-0.21233 0.45204,-0.21313 0.45205,-0.21394 0.45204,-0.21474 0.45204,-0.21556 0.45204,-0.21638 0.45204,-0.2172 0.45204,-0.21802 0.45205,-0.21886 0.45204,-0.21968 0.45204,-0.22052 0.45204,-0.22137 0.45204,-0.2222 0.45204,-0.22306 0.45205,-0.22391 0.45204,-0.22477 0.45204,-0.22563 0.45204,-0.22649 0.45204,-0.22737 0.45205,-0.22824 0.45204,-0.22912 0.45204,-0.23 0.45204,-0.23089 0.45204,-0.23178 0.45204,-0.23269 0.45205,-0.23358 0.45204,-0.23449 0.45204,-0.2354 0.45204,-0.23632 0.45204,-0.23723 0.45204,-0.23817 0.45205,-0.2391 0.45204,-0.24003 0.45204,-0.24097 0.45204,-0.24192 0.45204,-0.24287 0.45205,-0.24383 0.45204,-0.24479 0.45204,-0.24576 0.45204,-0.24673 0.45204,-0.24771 0.45204,-0.24869 0.45205,-0.24969 0.45204,-0.25068 0.45204,-0.25168 0.45204,-0.25269 0.45204,-0.2537 0.45205,-0.25472 0.45204,-0.25575 0.45204,-0.25677 0.45204,-0.25782 0.45204,-0.25886 0.45205,-0.25991 0.45204,-0.26096 0.45204,-0.26203 0.45204,-0.2631 0.45204,-0.26418 0.45204,-0.26526 0.45205,-0.26634 0.45204,-0.26745 0.45204,-0.26855 0.45204,-0.26966 0.45204,-0.27078 0.45204,-0.27191 0.45205,-0.27304 0.45204,-0.27418 0.45204,-0.27532 0.45204,-0.27649 0.45204,-0.27764 0.45205,-0.27882 0.45204,-0.28 0.45204,-0.28119 0.45204,-0.28238 0.45204,-0.28359 0.45204,-0.28479 0.45205,-0.28602 0.45204,-0.28726 0.45204,-0.28848 0.45204,-0.28974 0.45204,-0.291 0.45204,-0.29226 0.45205,-0.29353 0.45204,-0.29482 0.45204,-0.29611 0.45204,-0.29742 0.45204,-0.29873 0.45205,-0.30006 0.45204,-0.30139 0.45204,-0.30273 0.45204,-0.30409 0.45204,-0.30545 0.45205,-0.30683 0.45204,-0.30821 0.45204,-0.30962 0.45204,-0.31102 0.45204,-0.31244 0.45204,-0.31388 0.45204,-0.31532 0.45205,-0.31678 0.45204,-0.31824 0.45204,-0.31973 0.45204,-0.32121 0.45204,-0.32273 0.45205,-0.32424 0.45204,-0.32578 0.45204,-0.32732 0.45204,-0.32887 0.45204,-0.33046 0.45205,-0.33204 0.45204,-0.33364 0.45204,-0.33525 0.45204,-0.33689 0.45204,-0.33853 0.45204,-0.34019 0.45205,-0.34187 0.45204,-0.34356 0.45204,-0.34527 0.45204,-0.34699 0.45204,-0.34874 0.45204,-0.3505 0.45205,-0.35227 0.45204,-0.35406 0.45204,-0.35588 0.45204,-0.3577 0.45204,-0.35955 0.45205,-0.36143 0.45204,-0.3633 0.45204,-0.36522 0.45204,-0.36714 0.45204,-0.36909 0.45204,-0.37106 0.45205,-0.37304 0.45204,-0.37506 0.45204,-0.37709 0.45204,-0.37914 0.45204,-0.38123 0.45204,-0.38333 0.45205,-0.38545 0.45204,-0.38761 0.45204,-0.38978 0.45204,-0.39198 0.45204,-0.39421 0.45205,-0.39647 0.45204,-0.39875 0.45204,-0.40106 0.45204,-0.4034 0.45204,-0.40576 0.45204,-0.40817 0.45205,-0.41059 0.45204,-0.41305 0.45204,-0.41554 0.45204,-0.41807 0.45204,-0.42063 0.45204,-0.42322 0.45205,-0.42584 0.45204,-0.42851 0.45204,-0.43121 0.45204,-0.43395 0.45204,-0.43672 0.45205,-0.43955 0.45204,-0.4424 0.45204,-0.4453 0.45204,-0.44824 0.45204,-0.45123 0.45204,-0.45426 0.45205,-0.45734 0.45204,-0.46046 0.45204,-0.46365 0.45204,-0.46687 0.45204,-0.47014 0.45205,-0.47348 0.45204,-0.47687 0.45204,-0.48031 0.45204,-0.48381 0.45204,-0.48738 0.45205,-0.491 0.45204,-0.49469 0.45204,-0.49844 0.45204,-0.50227 0.45204,-0.50616 0.45204,-0.51012 0.45205,-0.51416 0.45204,-0.51829 0.45204,-0.52248 0.45204,-0.52676 0.45204,-0.53113 0.45204,-0.53559 0.45205,-0.54013 0.45204,-0.54478 0.45204,-0.54952 0.45204,-0.55436 0.45204,-0.55932 0.45204,-0.56438 0.45205,-0.56956 0.45204,-0.57485 0.45204,-0.58028 0.45204,-0.58583 0.45204,-0.59152 0.45205,-0.59735 0.45204,-0.60332 0.45204,-0.60945 0.45204,-0.61575 0.45204,-0.62221 0.45204,-0.62884 0.45205,-0.63566 0.45204,-0.64268 0.45204,-0.64989 0.45204,-0.65733 0.45204,-0.66499 0.45204,-0.67288 0.45205,-0.68102 0.45204,-0.68943 0.45204,-0.69812 0.45204,-0.7071 0.45204,-0.71639 0.45205,-0.72602 0.45204,-0.73599 0.45204,-0.74635 0.45204,-0.7571 0.45204,-0.76828 0.45204,-0.77991 0.45205,-0.79204 0.45204,-0.80468 0.45204,-0.8179 0.45204,-0.83172 0.45204,-0.84621 0.45205,-0.8614 0.45204,-0.87737 0.45204,-0.89419 0.45204,-0.91193 0.45204,-0.93068 0.45205,-0.95055 0.45204,-0.97166 0.45204,-0.99412 0.45204,-1.01812 0.45204,-1.04382 0.45204,-1.07144 0.45204,-1.10125 0.45205,-1.13354 0.45204,-1.16869 0.45204,-1.20715 0.45204,-1.24947 0.45204,-1.29637 0.45205,-1.34875 0.45204,-1.40775 0.45204,-1.47495 0.45204,-1.55242 0.45204,-1.64313 0.45205,-1.75136 0.45204,-1.88366 0.45204,-2.05058 0.45204,-2.27061 0.45204,-2.58006 0.45204,-3.06374 0.45205,-3.99708 0.45204,-9.66161 0,0 0,0 -0.45204,-9.66161 -0.45205,-3.99708 -0.45204,-3.06374 -0.45204,-2.58006 -0.45204,-2.27061 -0.45204,-2.05058 -0.45204,-1.88366 -0.45205,-1.75136 -0.45204,-1.64313 -0.45204,-1.55242 -0.45204,-1.47495 -0.45204,-1.40775 -0.45205,-1.34875 -0.45204,-1.29637 -0.45204,-1.24947 -0.45204,-1.20715 -0.45204,-1.16869 -0.45205,-1.13354 -0.45204,-1.10125 -0.45204,-1.07144 -0.45204,-1.04382 -0.45204,-1.01812 -0.45204,-0.99412 -0.45204,-0.97166 -0.45205,-0.95055 -0.45204,-0.93068 -0.45204,-0.91193 -0.45204,-0.89419 -0.45204,-0.87737 -0.45205,-0.8614 -0.45204,-0.84621 -0.45204,-0.83172 -0.45204,-0.8179 -0.45204,-0.80469 -0.45205,-0.79203 -0.45204,-0.77991 -0.45204,-0.76828 -0.45204,-0.7571 -0.45204,-0.74635 -0.45204,-0.73599 -0.45205,-0.72602 -0.45204,-0.71639 -0.45204,-0.7071 -0.45204,-0.69812 -0.45204,-0.68943 -0.45205,-0.68102 -0.45204,-0.67288 -0.45204,-0.66499 -0.45204,-0.65733 -0.45204,-0.64989 -0.45204,-0.64268 -0.45205,-0.63566 -0.45204,-0.62884 -0.45204,-0.62221 -0.45204,-0.61575 -0.45204,-0.60945 -0.45204,-0.60332 -0.45205,-0.59735 -0.45204,-0.59152 -0.45204,-0.58583 -0.45204,-0.58028 -0.45204,-0.57485 -0.45205,-0.56956 -0.45204,-0.56438 -0.45204,-0.55932 -0.45204,-0.55436 -0.45204,-0.54952 -0.45204,-0.54478 -0.45205,-0.54013 -0.45204,-0.53559 -0.45204,-0.53113 -0.45204,-0.52676 -0.45204,-0.52248 -0.45204,-0.51829 -0.45205,-0.51416 -0.45204,-0.51013 -0.45204,-0.50615 -0.45204,-0.50227 -0.45204,-0.49844 -0.45204,-0.49469 -0.45205,-0.491 -0.45204,-0.48738 -0.45204,-0.48381 -0.45204,-0.48031 -0.45204,-0.47687 -0.45205,-0.47348 -0.45204,-0.47015 -0.45204,-0.46686 -0.45204,-0.46365 -0.45204,-0.46046 -0.45205,-0.45734 -0.45204,-0.45426 -0.45204,-0.45123 -0.45204,-0.44825 -0.45204,-0.44529 -0.45204,-0.4424 -0.45205,-0.43955 -0.45204,-0.43672 -0.45204,-0.43395 -0.45204,-0.43121 -0.45204,-0.42851 -0.45205,-0.42584 -0.45204,-0.42322 -0.45204,-0.42063 -0.45204,-0.41807 -0.45204,-0.41554 -0.45204,-0.41305 -0.45205,-0.41059 -0.45204,-0.40817 -0.45204,-0.40576 -0.45204,-0.4034 -0.45204,-0.40106 -0.45204,-0.39875 -0.45205,-0.39647 -0.45204,-0.39421 -0.45204,-0.39198 -0.45204,-0.38978 -0.45204,-0.38761 -0.45205,-0.38545 -0.45204,-0.38333 -0.45204,-0.38123 -0.45204,-0.37914 -0.45204,-0.37709 -0.45204,-0.37506 -0.45205,-0.37305 -0.45204,-0.37105 -0.45204,-0.36909 -0.45204,-0.36714 -0.45204,-0.36522 -0.45204,-0.3633 -0.45205,-0.36143 -0.45204,-0.35955 -0.45204,-0.3577 -0.45204,-0.35588 -0.45204,-0.35406 -0.45205,-0.35227 -0.45204,-0.3505 -0.45204,-0.34874 -0.45204,-0.34699 -0.45204,-0.34527 -0.45204,-0.34356 -0.45205,-0.34187 -0.45204,-0.34019 -0.45204,-0.33853 -0.45204,-0.33689 -0.45204,-0.33526 -0.45204,-0.33364 -0.45205,-0.33203 -0.45204,-0.33046 -0.45204,-0.32888 -0.45204,-0.32732 -0.45204,-0.32577 -0.45205,-0.32424 -0.45204,-0.32273 -0.45204,-0.32121 -0.45204,-0.31973 -0.45204,-0.31824 -0.45205,-0.31678 -0.45204,-0.31532 -0.45204,-0.31388 -0.45204,-0.31244 -0.45204,-0.31102 -0.45204,-0.30962 -0.45204,-0.30821 -0.45205,-0.30683 -0.45204,-0.30545 -0.45204,-0.30409 -0.45204,-0.30274 -0.45204,-0.30138 -0.45205,-0.30006 -0.45204,-0.29873 -0.45204,-0.29742 -0.45204,-0.29611 -0.45204,-0.29482 -0.45205,-0.29354 -0.45204,-0.29226 -0.45204,-0.29099 -0.45204,-0.28974 -0.45204,-0.28848 -0.45204,-0.28726 -0.45205,-0.28602 -0.45204,-0.2848 -0.45204,-0.28358 -0.45204,-0.28238 -0.45204,-0.28119 -0.45204,-0.28 -0.45205,-0.27882 -0.45204,-0.27764 -0.45204,-0.27649 -0.45204,-0.27533 -0.45204,-0.27417 -0.45205,-0.27304 -0.45204,-0.27191 -0.45204,-0.27078 -0.45204,-0.26966 -0.45204,-0.26855 -0.45204,-0.26745 -0.45205,-0.26635 -0.45204,-0.26525 -0.45204,-0.26418 -0.45204,-0.2631 -0.45204,-0.26203 -0.45204,-0.26096 -0.45205,-0.25991 -0.45204,-0.25886 -0.45204,-0.25782 -0.45204,-0.25677 -0.45204,-0.25575 -0.45205,-0.25472 -0.45204,-0.2537 -0.45204,-0.25269 -0.45204,-0.25168 -0.45204,-0.25068 -0.45205,-0.24969 -0.45204,-0.24869 -0.45204,-0.24771 -0.45204,-0.24673 -0.45204,-0.24576 -0.45204,-0.24479 -0.45205,-0.24383 -0.45204,-0.24287 -0.45204,-0.24192 -0.45204,-0.24097 -0.45204,-0.24003 -0.45205,-0.2391 -0.45204,-0.23817 -0.45204,-0.23723 -0.45204,-0.23632 -0.45204,-0.2354 -0.45204,-0.23449 -0.45205,-0.23359 -0.45204,-0.23268 -0.45204,-0.23178 -0.45204,-0.23089 -0.45204,-0.23 -0.45204,-0.22912 -0.45205,-0.22824 -0.45204,-0.22737 -0.45204,-0.22649 -0.45204,-0.22563 -0.45204,-0.22477 -0.45205,-0.22391 -0.45204,-0.22306 -0.45204,-0.2222 -0.45204,-0.22137 -0.45204,-0.22052 -0.45204,-0.21968 -0.45205,-0.21886 -0.45204,-0.21802 -0.45204,-0.2172 -0.45204,-0.21638 -0.45204,-0.21556 -0.45204,-0.21474 -0.45205,-0.21394 -0.45204,-0.21313 -0.45204,-0.21233 -0.45204,-0.21153 -0.45204,-0.21074 -0.45205,-0.20994 -0.45204,-0.20916 -0.45204,-0.20837 -0.45204,-0.20759 -0.45204,-0.20681 -0.45204,-0.20604 -0.45205,-0.20527 -0.45204,-0.2045 -0.45204,-0.20374 -0.45204,-0.20298 -0.45204,-0.20221 -0.45204,-0.20147 -0.45205,-0.20071 -0.45204,-0.19997 -0.45204,-0.19922 -0.45204,-0.19848 -0.45204,-0.19774 -0.45205,-0.19701 -0.45204,-0.19627 -0.45204,-0.19554 -0.45204,-0.19482 -0.45204,-0.19409 -0.45205,-0.19337 -0.45204,-0.19266 -0.45204,-0.19194 -0.45204,-0.19123 -0.45204,-0.19051 -0.45204,-0.18982 -0.45205,-0.1891 -0.45204,-0.18841 -0.45204,-0.18771 -0.45204,-0.18701 -0.45204,-0.18632 -0.45204,-0.18563 -0.45205,-0.18494 -0.45204,-0.18425 -0.45204,-0.18358 -0.45204,-0.18289 -0.45204,-0.18222 -0.45205,-0.18154 -0.45204,-0.18087 -0.45204,-0.18019 -0.45204,-0.17953 -0.45204,-0.17887 -0.45204,-0.1782 -0.45205,-0.17754 -0.45204,-0.17689 -0.45204,-0.17622 -0.45204,-0.17558 -0.45204,-0.17492 -0.45204,-0.17428 -0.45205,-0.17362 -0.45204,-0.17299 -0.45204,-0.17234 -0.45204,-0.1717 -0.45204,-0.17106 -0.45205,-0.17043 -0.45204,-0.16979 -0.45204,-0.16917 -0.45204,-0.16853 -0.45204,-0.16791 -0.45204,-0.16728 -0.45205,-0.166656 -0.45204,-0.166037 -0.45204,-0.165419 -0.45204,-0.164802 -0.45204,-0.164186 -0.45204,-0.163574 -0.45205,-0.162963 -0.45204,-0.162354 -0.45204,-0.161747 -0.45204,-0.161142 -0.45204,-0.160538 -0.45205,-0.159937 -0.45204,-0.159338 -0.45204,-0.15874 -0.45204,-0.158144 -0.45204,-0.15755 -0.45205,-0.156958 -0.45204,-0.156368 -0.45204,-0.15578 -0.45204,-0.155192 -0.45204,-0.154608 -0.45204,-0.154024 -0.45204,-0.153443 -0.45205,-0.152862 -0.45204,-0.152285 -0.45204,-0.151709 -0.45204,-0.151133 -0.45204,-0.150561 -0.45205,-0.149989 -0.45204,-0.14942 -0.45204,-0.148851 -0.45204,-0.148285 -0.45204,-0.14772 -0.45205,-0.147156 -0.45204,-0.146595 -0.45204,-0.146035 -0.45204,-0.145476 -0.45204,-0.144919 -0.45204,-0.144363 -0.45205,-0.14381 -0.45204,-0.143257 -0.45204,-0.142705 -0.45204,-0.142157 -0.45204,-0.141608 -0.45204,-0.141062 -0.45205,-0.140517 -0.45204,-0.139973 -0.45204,-0.139431 -0.45204,-0.138889 -0.45204,-0.138351 -0.45205,-0.137813 -0.45204,-0.137276 -0.45204,-0.13674 -0.45204,-0.136207 -0.45204,-0.135675 -0.45204,-0.135143 -0.45205,-0.134613 -0.45204,-0.134085 -0.45204,-0.133558 -0.45204,-0.133032 -0.45204,-0.132508 -0.45204,-0.131984 -0.45205,-0.131463 -0.45204,-0.130941 -0.45204,-0.130423 -0.45204,-0.129904 -0.45204,-0.129387 -0.45205,-0.128872 -0.45204,-0.128357 -0.45204,-0.127844 -0.45204,-0.127332 -0.45204,-0.126821 -0.45205,-0.126312 -0.45204,-0.125803 -0.45204,-0.125296 -0.45204,-0.12479 -0.45204,-0.124286 -0.45204,-0.123781 -0.45205,-0.123279 -0.45204,0.03596 -0.45204,12.011344 -0.45204,4.82115 -0.45204,3.63198 -0.45205,3.01398 -0.45204,2.6175 -0.45204,2.3348 -0.45204,2.11975 -0.45204,1.94884 -0.45204,1.80864 -0.45205,1.6908 -0.45204,1.58988 -0.45204,1.50211 -0.45204,1.42482 -0.45204,1.35602 -0.45204,1.29424 -0.45205,1.23833 -0.45204,1.18738 -0.45204,1.1407 -0.45204,1.09767 -0.45204,1.05786 -0.45205,1.02084 -0.45204,0.98631 -0.45204,0.95397 -0.45204,0.92361 -0.45204,0.895 -0.45204,0.868 -0.45205,0.84243 -0.45204,0.81817 -0.45204,0.79512 -0.45204,0.77314 -0.45204,0.75219 -0.45204,0.73215 -0.45205,0.71297 -0.45204,0.69458 -0.45204,0.67692 -0.45204,0.65994 -0.45204,0.64361 -0.45205,0.62786 -0.45204,0.61267 -0.45204,0.59799 -0.45204,0.58381 -0.45204,0.57009 -0.45204,0.55679 -0.45205,0.54391 -0.45204,0.5314 -0.45204,0.51927 -0.45204,0.50747 -0.45204,0.49601 -0.45204,0.48484 -0.45205,0.47398 -0.45204,0.4634 -0.45204,0.45307 -0.45204,0.443 -0.45204,0.43318 -0.45205,0.42359 -0.45204,0.4142 -0.45204,0.40504 -0.45204,0.39608 -0.45204,0.3873 -0.45205,0.37871 -0.45204,0.37031 -0.45204,0.36206 -0.45204,0.35398 -0.45204,0.34607 -0.45204,0.33829 -0.45205,0.33066 -0.45204,0.32318 -0.45204,0.31582 -0.45204,0.3086 -0.45204,0.3015 -0.45204,0.29451 -0.45205,0.28766 -0.45204,0.2809 -0.45204,0.27425 -0.45204,0.26772 -0.45204,0.26127 -0.45205,0.25494 -0.45204,0.24868 -0.45204,0.24253 -0.45204,0.23646 -0.45204,0.23048 -0.45204,0.22458 -0.45205,0.21875 -0.45204,0.21302 -0.45204,0.20735 -0.45204,0.20175 -0.45204,0.19623 -0.45204,0.19078 -0.45205,0.1854 -0.45204,0.18007 -0.45204,0.17481 -0.45204,0.16961 -0.45204,0.16448 -0.45205,0.1594 -0.45204,0.15437 -0.45204,0.14941 -0.45204,0.14449 -0.45204,0.13962 -0.45204,0.13482 -0.45205,0.13005 -0.45204,0.12533 -0.45204,0.12066 -0.45204,0.11604 -0.45204,0.11146 -0.45204,0.10692 -0.45205,0.10243 -0.45204,0.098 -0.45204,0.0936 -0.45204,0.0892 -0.45204,0.0848 -0.45205,0.0805 -0.45204,0.0763 -0.45204,0.072 -0.45204,0.0678 -0.45204,0.0637 -0.45205,0.0596 -0.45204,0.0555 -0.45204,0.0514 -0.45204,0.0474 -0.45204,0.0434 -0.45204,0.0394 -0.45204,0.0354 -0.45205,0.0315 -0.45204,0.0276 -0.45204,0.0237 -0.45204,0.0199 -0.45204,0.0161 -0.45205,0.0123 -0.45204,0.008 -0.45204,0.005 -0.45204,0.001 -0.45204,-0.003 -0.45205,-0.006 -0.45204,-0.01 -0.45204,-0.0137 -0.45204,-0.0173 -0.45204,-0.0209 -0.45204,-0.0245 -0.45205,-0.028 -0.45204,-0.0316 -0.45204,-0.0351 -0.45204,-0.0386 -0.45204,-0.0421 -0.45204,-0.0456 -0.45205,-0.0491 -0.45204,-0.0525 -0.45204,-0.0559 -0.45204,-0.0594 -0.45204,-0.0628 -0.45205,-0.0661 -0.45204,-0.0695 -0.45204,-0.0729 -0.45204,-0.0762 -0.45204,-0.0796 -0.45204,-0.0829 -0.45205,-0.0862 -0.45204,-0.0895 -0.45204,-0.0928 -0.45204,-0.0961 -0.45204,-0.0993 -0.45204,-0.10259 -0.45205,-0.10584 -0.45204,-0.10908 -0.45204,-0.11231 -0.45204,-0.11552 -0.45204,-0.11873 -0.45205,-0.12194 -0.45204,-0.12512 -0.45204,-0.12831 -0.45204,-0.13149 -0.45204,-0.13466 -0.45205,-0.13782 -0.45204,-0.14098 -0.45204,-0.14412 -0.45204,-0.14727 -0.45204,-0.1504 -0.45204,-0.15353 -0.45205,-0.15666 -0.45204,-0.15978 -0.45204,-0.1629 -0.45204,-0.166 -0.45204,-0.16911 -0.45205,-0.17221 -0.45204,-0.1753 -0.45204,-0.1784 -0.45204,-0.18149 -0.45204,-0.18457 -0.45204,-0.18766 -0.45205,-0.19073 -0.45204,-0.19381 -0.45204,-0.19689 -0.45204,-0.19996 -0.45204,-0.20303 -0.45204,-0.2061 -0.45205,-0.20917 -0.45204,-0.21223 -0.45204,-0.2153 -0.45204,-0.21836 -0.45204,-0.22143 -0.45205,-0.22449 -0.45204,-2.7665 -0.45204,-3.67058 -0.45204,-3.67057 -0.45204,-3.67058 -0.45204,-3.67058 -0.45205,-3.67058 -0.45204,-3.67058 -0.45204,-3.67058 -0.45204,-3.67058 -0.45204,-3.67058 -0.45204,-3.67058 -0.45205,-3.67058 -0.45204,-3.67058 -0.45204,-3.67058 -0.45204,-3.67058 -0.45204,-3.67058 -0.45205,-3.67057 -0.45204,-3.67058 -0.45204,-3.670585 -0.45204,-3.670579 -0.45204,-3.67058 -0.45204,-3.670579 -0.45205,-3.670579 -0.45204,-3.67058 -0.45204,-3.670579 -0.45204,1.753922 -0.45204,1.753922 -0.45204,1.753922 -0.45205,1.753923 -0.45204,1.753922 -0.45204,1.753922 -0.45204,1.753922 -0.45204,1.753922 -0.45205,1.753922 -0.45204,1.753922 -0.45204,1.753923 -0.45204,1.753922 -0.45204,1.753922 -0.45205,1.753922 -0.45204,1.753921 -0.45204,1.75392 -0.45204,1.75393 -0.45204,1.75392 -0.45204,1.75392 -0.45204,1.75392 -0.45205,1.75393 -0.45204,1.75392 -0.45204,1.75392 -0.45204,1.75392 -0.45204,1.75392 -0.45205,0 -0.45204,0 -0.45204,0 -0.45204,0 -0.45204,0 -0.45205,0 -0.45204,0 -0.45204,0 -0.45204,0 -0.45204,0 -0.45204,0 -0.45205,0 -0.45204,0 -0.45204,0 -0.45204,0 -0.45204,0 -0.45204,0 -0.45205,0 -0.45204,0 -0.45204,0 -0.45204,0 -0.45204,0 -0.45205,0 -0.45204,0 -0.45204,0 -0.45204,0 -0.45204,0 -0.45204,0 -0.45205,0 -0.45204,0 -0.45204,0 -0.45204,0 -0.45204,0 -0.45205,0 -0.45204,0 -0.45204,0 -0.45204,0 -0.45204,0 -0.45204,0 -0.45205,0 -0.45204,0 -0.45204,0 -0.45204,0 -0.45204,0 -0.45204,0 -0.45205,0 -0.45204,0 -0.45204,0 -0.45204,0 -0.45204,0 0,0 -0.45205,0 -0.45204,0 -0.45204,0 -0.45204,0 -0.45204,0 -0.45204,0 -0.45205,0 -0.45204,0 -0.45204,0 -0.45204,0 -0.45204,0 -0.45204,0 -0.45205,0 -0.45204,0 -0.45204,0 -0.45204,0 -0.45204,0 -0.45205,0 -0.45204,0 -0.45204,0 -0.45204,0 -0.45204,0 -0.45204,0 -0.45205,0 -0.45204,0 -0.45204,0 -0.45204,0 -0.45204,0 -0.45205,0 -0.45204,0 -0.45204,0 -0.45204,0 -0.45204,0 -0.45204,0 -0.45205,0 -0.45204,0 -0.45204,0 -0.45204,0 -0.45204,0 -0.45204,0 -0.45205,0 -0.45204,0 -0.45204,0 -0.45204,0 -0.45204,0 -0.45205,0 -0.45204,0 -0.45204,0 -0.45204,0 -0.45204,0 -0.45205,-1.75392 -0.45204,-1.75392 -0.45204,-1.75392 -0.45204,-1.75392 -0.45204,-1.75393 -0.45204,-1.75392 -0.45205,-1.75392 -0.45204,-1.75392 -0.45204,-1.75393 -0.45204,-1.75392 -0.45204,-1.753921 -0.45204,-1.753922 -0.45205,-1.753922 -0.45204,-1.753922 -0.45204,-1.753923 -0.45204,-1.753922 -0.45204,-1.753922 -0.45205,-1.753922 -0.45204,-1.753922 -0.45204,-1.753922 -0.45204,-1.753922 -0.45204,-1.753923 -0.45204,-1.753922 -0.45205,-1.753922 -0.45204,-1.753922 -0.45204,3.670579 -0.45204,3.67058 -0.45204,3.670579 -0.45205,3.670579 -0.45204,3.67058 -0.45204,3.670579 -0.45204,3.670585 -0.45204,3.67058 -0.45204,3.67057 -0.45205,3.67058 -0.45204,3.67058 -0.45204,3.67058 -0.45204,3.67058 -0.45204,3.67058 -0.45205,3.67058 -0.45204,3.67058 -0.45204,3.67058 -0.45204,3.67058 -0.45204,3.67058 -0.45204,3.67058 -0.45205,3.67058 -0.45204,3.67058 -0.45204,3.67057 -0.45204,3.67058 -0.45204,2.7665 -0.45204,0.22449 -0.45205,0.22143 -0.45204,0.21836 -0.45204,0.2153 -0.45204,0.21223 -0.45204,0.20917 -0.45205,0.2061 -0.45204,0.20303 -0.45204,0.19996 -0.45204,0.19689 -0.45204,0.19381 -0.45204,0.19073 -0.45205,0.18766 -0.45204,0.18457 -0.45204,0.18149 -0.45204,0.1784 -0.45204,0.1753 -0.45205,0.17221 -0.45204,0.16911 -0.45204,0.166 -0.45204,0.1629 -0.45204,0.15978 -0.45204,0.15666 -0.45205,0.15353 -0.45204,0.1504 -0.45204,0.14727 -0.45204,0.14412 -0.45204,0.14098 -0.45204,0.13782 -0.45205,0.13466 -0.45204,0.13149 -0.45204,0.12831 -0.45204,0.12512 -0.45204,0.12194 -0.45205,0.11873 -0.45204,0.11552 -0.45204,0.11231 -0.45204,0.10908 -0.45204,0.10584 -0.45204,0.10259 -0.45205,0.0993 -0.45204,0.0961 -0.45204,0.0928 -0.45204,0.0895 -0.45204,0.0862 -0.45204,0.0829 -0.45205,0.0796 -0.45204,0.0762 -0.45204,0.0729 -0.45204,0.0695 -0.45204,0.0661 -0.45205,0.0628 -0.45204,0.0594 -0.45204,0.0559 -0.45204,0.0525 -0.45204,0.0491 -0.45204,0.0456 -0.45205,0.0421 -0.45204,0.0386 -0.45204,0.0351 -0.45204,0.0316 -0.45204,0.028 -0.45205,0.0245 -0.45204,0.0209 -0.45204,0.0173 -0.45204,0.0137 -0.45204,0.01 -0.45204,0.006 -0.45205,0.003 -0.45204,-0.001 -0.45204,-0.005 -0.45204,-0.008 -0.45204,-0.0123 -0.45204,-0.0161 -0.45205,-0.0199 -0.45204,-0.0237 -0.45204,-0.0276 -0.45204,-0.0315 -0.45204,-0.0354 -0.45205,-0.0394 -0.45204,-0.0434 -0.45204,-0.0474 -0.45204,-0.0514 -0.45204,-0.0555 -0.45204,-0.0596 -0.45205,-0.0637 -0.45204,-0.0678 -0.45204,-0.072 -0.45204,-0.0763 -0.45204,-0.0805 -0.45204,-0.0848 -0.45205,-0.0892 -0.45204,-0.0936 -0.45204,-0.098 -0.45204,-0.10243 -0.45204,-0.10692 -0.45205,-0.11146 -0.45204,-0.11604 -0.45204,-0.12066 -0.45204,-0.12533 -0.45204,-0.13005 -0.45205,-0.13482 -0.45204,-0.13962 -0.45204,-0.14449 -0.45204,-0.14941 -0.45204,-0.15437 -0.45204,-0.1594 -0.45205,-0.16448 -0.45204,-0.16961 -0.45204,-0.17481 -0.45204,-0.18007 -0.45204,-0.1854 -0.45204,-0.19078 -0.45205,-0.19623 -0.45204,-0.20175 -0.45204,-0.20735 -0.45204,-0.21302 -0.45204,-0.21875 -0.45204,-0.22458 -0.45205,-0.23048 -0.45204,-0.23646 -0.45204,-0.24253 -0.45204,-0.24868 -0.45204,-0.25494 -0.45205,-0.26127 -0.45204,-0.26772 -0.45204,-0.27425 -0.45204,-0.2809 -0.45204,-0.28766 -0.45205,-0.29451 -0.45204,-0.3015 -0.45204,-0.3086 -0.45204,-0.31582 -0.45204,-0.32318 -0.45204,-0.33066 -0.45205,-0.33829 -0.45204,-0.34607 -0.45204,-0.35398 -0.45204,-0.36206 -0.45204,-0.37031 -0.45204,-0.37871 -0.45205,-0.3873 -0.45204,-0.39608 -0.45204,-0.40504 -0.45204,-0.4142 -0.45204,-0.42359 -0.45205,-0.43318 -0.45204,-0.443 -0.45204,-0.45307 -0.45204,-0.4634 -0.45204,-0.47398 -0.45204,-0.48484 -0.45205,-0.49601 -0.45204,-0.50747 -0.45204,-0.51927 -0.45204,-0.5314 -0.45204,-0.54391 -0.45205,-0.55679 -0.45204,-0.57009 -0.45204,-0.58381 -0.45204,-0.59799 -0.45204,-0.61267 -0.45204,-0.62786 -0.45205,-0.64361 -0.45204,-0.65994 -0.45204,-0.67692 -0.45204,-0.69458 -0.45204,-0.71297 -0.45205,-0.73215 -0.45204,-0.75219 -0.45204,-0.77314 -0.45204,-0.79512 -0.45204,-0.81817 -0.45204,-0.84243 -0.45205,-0.868 -0.45204,-0.895 -0.45204,-0.92361 -0.45204,-0.95397 -0.45204,-0.98631 -0.45204,-1.02084 -0.45205,-1.05786 -0.45204,-1.09767 -0.45204,-1.1407 -0.45204,-1.18738 -0.45204,-1.23833 -0.45205,-1.29424 -0.45204,-1.35602 -0.45204,-1.42482 -0.45204,-1.50211 -0.45204,-1.58988 -0.45204,-1.6908 -0.45205,-1.80864 -0.45204,-1.94884 -0.45204,-2.11975 -0.45204,-2.3348 -0.45204,-2.6175 -0.45205,-3.01398 -0.45204,-3.63198 -0.45204,-4.82115 -0.45204,-12.011344 -0.45204,-0.03596 -0.45204,0.123279 -0.45205,0.123781 -0.45204,0.124286 -0.45204,0.12479 -0.45204,0.125296 -0.45204,0.125803 -0.45204,0.126312 -0.45205,0.126821 -0.45204,0.127332 -0.45204,0.127844 -0.45204,0.128357 -0.45204,0.128872 -0.45205,0.129387 -0.45204,0.129904 -0.45204,0.130423 -0.45204,0.130941 -0.45204,0.131463 -0.45204,0.131984 -0.45205,0.132508 -0.45204,0.133032 -0.45204,0.133558 -0.45204,0.134085 -0.45204,0.134613 -0.45204,0.135143 -0.45205,0.135675 -0.45204,0.136207 -0.45204,0.13674 -0.45204,0.137276 -0.45204,0.137813 -0.45205,0.138351 -0.45204,0.138889 -0.45204,0.139431 -0.45204,0.139973 -0.45204,0.140517 -0.45204,0.141062 -0.45205,0.141608 -0.45204,0.142157 -0.45204,0.142705 -0.45204,0.143257 -0.45204,0.14381 -0.45205,0.144363 -0.45204,0.144919 -0.45204,0.145476 -0.45204,0.146035 -0.45204,0.146595 -0.45204,0.147156 -0.45205,0.14772 -0.45204,0.148285 -0.45204,0.148851 -0.45204,0.14942 -0.45204,0.149989 -0.45204,0.150561 -0.45205,0.151133 -0.45204,0.151709 -0.45204,0.152285 -0.45204,0.152862 -0.45204,0.153443 -0.45205,0.154024 -0.45204,0.154608 -0.45204,0.155192 -0.45204,0.15578 -0.45204,0.156368 -0.45204,0.156958 -0.45205,0.15755 -0.45204,0.158144 -0.45204,0.15874 -0.45204,0.159338 -0.45204,0.159937 -0.45204,0.160538 -0.45205,0.161142 -0.45204,0.161747 -0.45204,0.162354 -0.45204,0.162963 -0.45204,0.163574 -0.45205,0.164186 -0.45204,0.164802 -0.45204,0.165419 -0.45204,0.166037 -0.45204,0.166656 -0.45205,0.16728 -0.45204,0.16791 -0.45204,0.16853 -0.45204,0.16917 -0.45204,0.16979 -0.45204,0.17043 -0.45204,0.17106 -0.45205,0.1717 -0.45204,0.17234 -0.45204,0.17299 -0.45204,0.17362 -0.45204,0.17428 -0.45205,0.17492 -0.45204,0.17558 -0.45204,0.17622 -0.45204,0.17689 -0.45204,0.17754 -0.45204,0.1782 -0.45205,0.17887 -0.45204,0.17953 -0.45204,0.18019 -0.45204,0.18087 -0.45204,0.18154 -0.45205,0.18222 -0.45204,0.18289 -0.45204,0.18358 -0.45204,0.18425 -0.45204,0.18494 -0.45205,0.18563 -0.45204,0.18632 -0.45204,0.18701 -0.45204,0.18771 -0.45204,0.18841 -0.45204,0.1891 -0.45205,0.18982 -0.45204,0.19051 -0.45204,0.19123 -0.45204,0.19194 -0.45204,0.19266 -0.45204,0.19337 -0.45205,0.19409 -0.45204,0.19482 -0.45204,0.19554 -0.45204,0.19627 -0.45204,0.19701 -0.45205,0.19774 -0.45204,0.19848 -0.45204,0.19922 -0.45204,0.19997 -0.45204,0.20071 -0.45204,0.20147 -0.45205,0.20221 -0.45204,0.20298 -0.45204,0.20374 -0.45204,0.2045 -0.45204,0.20527 -0.45205,0.20604 -0.45204,0.20681 -0.45204,0.20759 -0.45204,0.20837 -0.45204,0.20916 -0.45204,0.20994 -0.45205,0.21074 -0.45204,0.21153 -0.45204,0.21233 -0.45204,0.21313 -0.45204,0.21394 -0.45205,0.21474 -0.45204,0.21556 -0.45204,0.21638 -0.45204,0.2172 -0.45204,0.21802 -0.45204,0.21886 -0.45205,0.21968 -0.45204,0.22052 -0.45204,0.22137 -0.45204,0.2222 -0.45204,0.22306 -0.45204,0.22391 -0.45205,0.22477 -0.45204,0.22563 -0.45204,0.22649 -0.45204,0.22737 -0.45204,0.22824 -0.45205,0.22912 -0.45204,0.23 -0.45204,0.23089 -0.45204,0.23178 -0.45204,0.23268 -0.45204,0.23359 -0.45205,0.23449 -0.45204,0.2354 -0.45204,0.23632 -0.45204,0.23723 -0.45204,0.23817 -0.45205,0.2391 -0.45204,0.24003 -0.45204,0.24097 -0.45204,0.24192 -0.45204,0.24287 -0.45204,0.24383 -0.45205,0.24479 -0.45204,0.24576 -0.45204,0.24673 -0.45204,0.24771 -0.45204,0.24869 -0.45204,0.24969 -0.45205,0.25068 -0.45204,0.25168 -0.45204,0.25269 -0.45204,0.2537 -0.45204,0.25472 -0.45205,0.25575 -0.45204,0.25677 -0.45204,0.25782 -0.45204,0.25886 -0.45204,0.25991 -0.45204,0.26096 -0.45205,0.26203 -0.45204,0.2631 -0.45204,0.26418 -0.45204,0.26525 -0.45204,0.26635 -0.45204,0.26745 -0.45205,0.26855 -0.45204,0.26966 -0.45204,0.27078 -0.45204,0.27191 -0.45204,0.27304 -0.45205,0.27417 -0.45204,0.27533 -0.45204,0.27649 -0.45204,0.27764 -0.45204,0.27882 -0.45204,0.28 -0.45205,0.28119 -0.45204,0.28238 -0.45204,0.28358 -0.45204,0.2848 -0.45204,0.28602 -0.45204,0.28726 -0.45205,0.28848 -0.45204,0.28974 -0.45204,0.29099 -0.45204,0.29226 -0.45204,0.29354 -0.45205,0.29482 -0.45204,0.29611 -0.45204,0.29742 -0.45204,0.29873 -0.45204,0.30006 -0.45204,0.30138 -0.45205,0.30274 -0.45204,0.30409 -0.45204,0.30545 -0.45204,0.30683 -0.45204,0.30821 -0.45205,0.30962 -0.45204,0.31102 -0.45204,0.31244 -0.45204,0.31388 -0.45204,0.31532 -0.45204,0.31678 -0.45205,0.31824 -0.45204,0.31973 -0.45204,0.32121 -0.45204,0.32273 -0.45204,0.32424 -0.45205,0.32577 -0.45204,0.32732 -0.45204,0.32888 -0.45204,0.33046 -0.45204,0.33203 -0.45204,0.33364 -0.45205,0.33526 -0.45204,0.33689 -0.45204,0.33853 -0.45204,0.34019 -0.45204,0.34187 -0.45205,0.34356 -0.45204,0.34527 -0.45204,0.34699 -0.45204,0.34874 -0.45204,0.3505 -0.45204,0.35227 -0.45205,0.35406 -0.45204,0.35588 -0.45204,0.3577 -0.45204,0.35955 -0.45204,0.36143 -0.45204,0.3633 -0.45205,0.36522 -0.45204,0.36714 -0.45204,0.36909 -0.45204,0.37105 -0.45204,0.37305 -0.45205,0.37506 -0.45204,0.37709 -0.45204,0.37914 -0.45204,0.38123 -0.45204,0.38333 -0.45204,0.38545 -0.45205,0.38761 -0.45204,0.38978 -0.45204,0.39198 -0.45204,0.39421 -0.45204,0.39647 -0.45205,0.39875 -0.45204,0.40106 -0.45204,0.4034 -0.45204,0.40576 -0.45204,0.40817 -0.45204,0.41059 -0.45205,0.41305 -0.45204,0.41554 -0.45204,0.41807 -0.45204,0.42063 -0.45204,0.42322 -0.45204,0.42584 -0.45205,0.42851 -0.45204,0.43121 -0.45204,0.43395 -0.45204,0.43672 -0.45204,0.43955 -0.45205,0.4424 -0.45204,0.44529 -0.45204,0.44825 -0.45204,0.45123 -0.45204,0.45426 -0.45204,0.45734 -0.45205,0.46046 -0.45204,0.46365 -0.45204,0.46686 -0.45204,0.47015 -0.45204,0.47348 -0.45205,0.47687 -0.45204,0.48031 -0.45204,0.48381 -0.45204,0.48738 -0.45204,0.491 -0.45204,0.49469 -0.45205,0.49844 -0.45204,0.50227 -0.45204,0.50615 -0.45204,0.51013 -0.45204,0.51416 -0.45204,0.51829 -0.45205,0.52248 -0.45204,0.52676 -0.45204,0.53113 -0.45204,0.53559 -0.45204,0.54013 -0.45205,0.54478 -0.45204,0.54952 -0.45204,0.55436 -0.45204,0.55932 -0.45204,0.56438 -0.45204,0.56956 -0.45205,0.57485 -0.45204,0.58028 -0.45204,0.58583 -0.45204,0.59152 -0.45204,0.59735 -0.45204,0.60332 -0.45205,0.60945 -0.45204,0.61575 -0.45204,0.62221 -0.45204,0.62884 -0.45204,0.63566 -0.45205,0.64268 -0.45204,0.64989 -0.45204,0.65733 -0.45204,0.66499 -0.45204,0.67288 -0.45205,0.68102 -0.45204,0.68943 -0.45204,0.69812 -0.45204,0.7071 -0.45204,0.71639 -0.45204,0.72602 -0.45205,0.73599 -0.45204,0.74635 -0.45204,0.7571 -0.45204,0.76828 -0.45204,0.77991 -0.45204,0.79203 -0.45205,0.80469 -0.45204,0.8179 -0.45204,0.83172 -0.45204,0.84621 -0.45204,0.8614 -0.45205,0.87737 -0.45204,0.89419 -0.45204,0.91193 -0.45204,0.93068 -0.45204,0.95055 -0.45204,0.97166 -0.45205,0.99412 -0.45204,1.01812 -0.45204,1.04382 -0.45204,1.07144 -0.45204,1.10125 -0.45205,1.13354 -0.45204,1.16869 -0.45204,1.20715 -0.45204,1.24947 -0.45204,1.29637 -0.45204,1.34875 -0.45205,1.40775 -0.45204,1.47495 -0.45204,1.55242 -0.45204,1.64313 -0.45204,1.75136 -0.45204,1.88366 -0.45205,2.05058 -0.45204,2.27061 -0.45204,2.58006 -0.45204,3.06374 -0.45204,3.99708 L 187.5705,252 Z"
         clip-path="url(#p3c94fc5b93)" />
    </g>
    <g
       style="stroke-linecap:butt;stroke-linejoin:round"
       id="line2d_4">
      <path
         inkscape:connector-curvature="0"
         id="path40"
         style="fill:none;stroke:#000000;stroke-linecap:round;stroke-linejoin:round"
         d="m 187.5705,252 0.45205,-9.66161 0.90408,-7.06082 0.90408,-4.85067 1.35613,-5.6856 1.35612,-4.6705 1.80817,-5.30234 1.80817,-4.61063 2.26021,-5.09916 2.26021,-4.56472 2.71225,-4.95395 2.71225,-4.51365 3.16429,-4.82993 3.16429,-4.45236 3.61634,-4.71216 4.06837,-4.90597 4.06838,-4.55761 4.52042,-4.72031 4.52042,-4.41137 4.97245,-4.54533 5.42451,-4.6401 5.4245,-4.34974 5.87654,-4.42393 6.32859,-4.46718 6.32858,-4.19263 6.78063,-4.21894 6.78062,-3.96358 7.23267,-3.97218 7.68471,-3.95653 7.68471,-3.7072 8.13676,-3.67494 8.13675,-3.43638 8.58879,-3.38652 9.04084,-3.315225 9.04083,-3.07524 9.49288,-2.985853 9.49288,-2.750264 2.26021,-0.621432 0.45204,0.03596 0.45204,12.011344 0.90408,8.45313 0.90409,5.63148 0.90408,4.45455 1.35613,5.44828 1.35612,4.51681 1.80817,5.07597 1.80817,4.31707 1.80816,3.75889 1.80817,3.32372 2.26021,3.66503 2.26021,3.221 2.26021,2.85259 2.26021,2.53899 2.71225,2.69022 2.71225,2.35164 2.71225,2.05424 2.71225,1.78899 2.71225,1.54939 3.16429,1.53239 3.1643,1.26138 3.16429,1.01216 3.16429,0.78081 3.16429,0.56431 3.1643,0.36018 3.61633,0.17495 3.61633,-0.0652 3.61634,-0.29465 3.61633,-0.51537 3.61634,-0.72896 3.61633,-0.93685 4.06838,-1.29693 4.06837,-1.54976 4.06838,-1.79958 1.80817,-0.87958 0.45204,-2.7665 10.849,-88.093901 11.30105,43.848051 45.20418,0 11.30104,-43.848051 11.30104,90.860401 4.06838,1.91007 4.06838,1.66106 4.06837,1.40977 4.06838,1.15457 3.61633,0.80753 3.61634,0.59622 3.61633,0.37835 3.61634,0.15237 3.61633,-0.0835 3.61633,-0.33144 3.1643,-0.50482 3.16429,-0.71756 3.16429,-0.94438 3.1643,-1.18814 3.16429,-1.45246 2.71225,-1.47436 2.71225,-1.70654 2.71225,-1.96262 2.71225,-2.24844 2.71225,-2.57208 2.26021,-2.4257 2.26021,-2.72146 2.26021,-3.06594 2.26021,-3.47656 1.80816,-3.13862 1.80817,-3.52904 1.80817,-4.01898 1.80817,-4.66408 1.35612,-4.07508 1.35613,-4.78279 1.35612,-5.87723 0.90408,-4.9523 0.90409,-6.64596 0.45204,-4.82115 0.45204,-12.011344 0.45204,-0.03596 9.49288,2.695973 9.49288,2.928594 9.04083,3.017492 9.04084,3.253805 8.58879,3.32419 8.5888,3.56722 8.13675,3.62037 7.68471,3.65147 7.68471,3.89594 7.23267,3.90985 7.23267,4.16809 6.78063,4.16581 6.32858,4.13762 6.32859,4.4057 5.87654,4.35967 5.4245,4.28278 5.4245,4.56386 4.97246,4.46507 4.97246,4.77557 4.52042,4.65461 4.06838,4.48803 4.06837,4.82304 3.61634,4.62309 3.61633,5.0078 3.16429,4.77087 2.71225,4.45013 2.71225,4.87246 2.26021,4.47557 2.26021,4.97827 1.80817,4.47492 1.80817,5.10174 1.35612,4.43512 1.35613,5.27815 0.90408,4.32119 0.90408,5.6438 0.45205,3.99708 0.45204,9.66161 0,0"
         clip-path="url(#p3c94fc5b93)" />
    </g>
  </g>
  <defs
     id="defs42">
    <clipPath
       id="p3c94fc5b93"
       style="stroke-linecap:butt;stroke-linejoin:round">
      <rect
         height="498.33072"
         width="814.5788"
         x="96.710609"
         y="2.834646"
         id="rect45"
         style="stroke-linecap:butt;stroke-linejoin:round" />
    </clipPath>
  </defs>
</svg>
