<?xml version="1.0" encoding="utf-8" standalone="no"?>
<!DOCTYPE svg PUBLIC "-//W3C//DTD SVG 1.1//EN"
  "http://www.w3.org/Graphics/SVG/1.1/DTD/svg11.dtd">
<!-- Created with matplotlib (https://matplotlib.org/) -->
<svg height="288pt" version="1.1" viewBox="0 0 288 288" width="288pt" xmlns="http://www.w3.org/2000/svg" xmlns:xlink="http://www.w3.org/1999/xlink">
 <defs>
  <style type="text/css">
*{stroke-linecap:butt;stroke-linejoin:round;}
  </style>
 </defs>
 <g id="figure_1">
  <g id="patch_1">
   <path d="M 0 288 
L 288 288 
L 288 0 
L 0 0 
z
" style="fill:#ffffff;"/>
  </g>
  <g id="axes_1">
   <g id="patch_2">
    <path d="M 36 256.32 
L 259.2 256.32 
L 259.2 34.56 
L 36 34.56 
z
" style="fill:#ffffff;"/>
   </g>
   <g id="matplotlib.axis_1">
    <g id="xtick_1">
     <g id="line2d_1">
      <defs>
       <path d="M 0 0 
L 0 3.5 
" id="m80a6d4f8a5" style="stroke:#000000;stroke-width:0.8;"/>
      </defs>
      <g>
       <use style="stroke:#000000;stroke-width:0.8;" x="66.436356" xlink:href="#m80a6d4f8a5" y="256.32"/>
      </g>
     </g>
     <g id="text_1">
      <!-- −4000 -->
      <defs>
       <path d="M 10.59375 35.5 
L 73.1875 35.5 
L 73.1875 27.203125 
L 10.59375 27.203125 
z
" id="DejaVuSans-8722"/>
       <path d="M 37.796875 64.3125 
L 12.890625 25.390625 
L 37.796875 25.390625 
z
M 35.203125 72.90625 
L 47.609375 72.90625 
L 47.609375 25.390625 
L 58.015625 25.390625 
L 58.015625 17.1875 
L 47.609375 17.1875 
L 47.609375 0 
L 37.796875 0 
L 37.796875 17.1875 
L 4.890625 17.1875 
L 4.890625 26.703125 
z
" id="DejaVuSans-52"/>
       <path d="M 31.78125 66.40625 
Q 24.171875 66.40625 20.328125 58.90625 
Q 16.5 51.421875 16.5 36.375 
Q 16.5 21.390625 20.328125 13.890625 
Q 24.171875 6.390625 31.78125 6.390625 
Q 39.453125 6.390625 43.28125 13.890625 
Q 47.125 21.390625 47.125 36.375 
Q 47.125 51.421875 43.28125 58.90625 
Q 39.453125 66.40625 31.78125 66.40625 
z
M 31.78125 74.21875 
Q 44.046875 74.21875 50.515625 64.515625 
Q 56.984375 54.828125 56.984375 36.375 
Q 56.984375 17.96875 50.515625 8.265625 
Q 44.046875 -1.421875 31.78125 -1.421875 
Q 19.53125 -1.421875 13.0625 8.265625 
Q 6.59375 17.96875 6.59375 36.375 
Q 6.59375 54.828125 13.0625 64.515625 
Q 19.53125 74.21875 31.78125 74.21875 
z
" id="DejaVuSans-48"/>
      </defs>
      <g transform="translate(49.521512 270.918437)scale(0.1 -0.1)">
       <use xlink:href="#DejaVuSans-8722"/>
       <use x="83.789062" xlink:href="#DejaVuSans-52"/>
       <use x="147.412109" xlink:href="#DejaVuSans-48"/>
       <use x="211.035156" xlink:href="#DejaVuSans-48"/>
       <use x="274.658203" xlink:href="#DejaVuSans-48"/>
      </g>
     </g>
    </g>
    <g id="xtick_2">
     <g id="line2d_2">
      <g>
       <use style="stroke:#000000;stroke-width:0.8;" x="107.018176" xlink:href="#m80a6d4f8a5" y="256.32"/>
      </g>
     </g>
     <g id="text_2">
      <!-- −2000 -->
      <defs>
       <path d="M 19.1875 8.296875 
L 53.609375 8.296875 
L 53.609375 0 
L 7.328125 0 
L 7.328125 8.296875 
Q 12.9375 14.109375 22.625 23.890625 
Q 32.328125 33.6875 34.8125 36.53125 
Q 39.546875 41.84375 41.421875 45.53125 
Q 43.3125 49.21875 43.3125 52.78125 
Q 43.3125 58.59375 39.234375 62.25 
Q 35.15625 65.921875 28.609375 65.921875 
Q 23.96875 65.921875 18.8125 64.3125 
Q 13.671875 62.703125 7.8125 59.421875 
L 7.8125 69.390625 
Q 13.765625 71.78125 18.9375 73 
Q 24.125 74.21875 28.421875 74.21875 
Q 39.75 74.21875 46.484375 68.546875 
Q 53.21875 62.890625 53.21875 53.421875 
Q 53.21875 48.921875 51.53125 44.890625 
Q 49.859375 40.875 45.40625 35.40625 
Q 44.1875 33.984375 37.640625 27.21875 
Q 31.109375 20.453125 19.1875 8.296875 
z
" id="DejaVuSans-50"/>
      </defs>
      <g transform="translate(90.103332 270.918437)scale(0.1 -0.1)">
       <use xlink:href="#DejaVuSans-8722"/>
       <use x="83.789062" xlink:href="#DejaVuSans-50"/>
       <use x="147.412109" xlink:href="#DejaVuSans-48"/>
       <use x="211.035156" xlink:href="#DejaVuSans-48"/>
       <use x="274.658203" xlink:href="#DejaVuSans-48"/>
      </g>
     </g>
    </g>
    <g id="xtick_3">
     <g id="line2d_3">
      <g>
       <use style="stroke:#000000;stroke-width:0.8;" x="147.599996" xlink:href="#m80a6d4f8a5" y="256.32"/>
      </g>
     </g>
     <g id="text_3">
      <!-- 0 -->
      <g transform="translate(144.418746 270.918437)scale(0.1 -0.1)">
       <use xlink:href="#DejaVuSans-48"/>
      </g>
     </g>
    </g>
    <g id="xtick_4">
     <g id="line2d_4">
      <g>
       <use style="stroke:#000000;stroke-width:0.8;" x="188.181816" xlink:href="#m80a6d4f8a5" y="256.32"/>
      </g>
     </g>
     <g id="text_4">
      <!-- 2000 -->
      <g transform="translate(175.456816 270.918437)scale(0.1 -0.1)">
       <use xlink:href="#DejaVuSans-50"/>
       <use x="63.623047" xlink:href="#DejaVuSans-48"/>
       <use x="127.246094" xlink:href="#DejaVuSans-48"/>
       <use x="190.869141" xlink:href="#DejaVuSans-48"/>
      </g>
     </g>
    </g>
    <g id="xtick_5">
     <g id="line2d_5">
      <g>
       <use style="stroke:#000000;stroke-width:0.8;" x="228.763636" xlink:href="#m80a6d4f8a5" y="256.32"/>
      </g>
     </g>
     <g id="text_5">
      <!-- 4000 -->
      <g transform="translate(216.038636 270.918437)scale(0.1 -0.1)">
       <use xlink:href="#DejaVuSans-52"/>
       <use x="63.623047" xlink:href="#DejaVuSans-48"/>
       <use x="127.246094" xlink:href="#DejaVuSans-48"/>
       <use x="190.869141" xlink:href="#DejaVuSans-48"/>
      </g>
     </g>
    </g>
   </g>
   <g id="matplotlib.axis_2">
    <g id="ytick_1">
     <g id="line2d_6">
      <defs>
       <path d="M 0 0 
L -3.5 0 
" id="m40629f0444" style="stroke:#000000;stroke-width:0.8;"/>
      </defs>
      <g>
       <use style="stroke:#000000;stroke-width:0.8;" x="36" xlink:href="#m40629f0444" y="226.080007"/>
      </g>
     </g>
     <g id="text_6">
      <!-- −4000 -->
      <g transform="translate(-4.829687 229.879225)scale(0.1 -0.1)">
       <use xlink:href="#DejaVuSans-8722"/>
       <use x="83.789062" xlink:href="#DejaVuSans-52"/>
       <use x="147.412109" xlink:href="#DejaVuSans-48"/>
       <use x="211.035156" xlink:href="#DejaVuSans-48"/>
       <use x="274.658203" xlink:href="#DejaVuSans-48"/>
      </g>
     </g>
    </g>
    <g id="ytick_2">
     <g id="line2d_7">
      <g>
       <use style="stroke:#000000;stroke-width:0.8;" x="36" xlink:href="#m40629f0444" y="185.760005"/>
      </g>
     </g>
     <g id="text_7">
      <!-- −2000 -->
      <g transform="translate(-4.829687 189.559223)scale(0.1 -0.1)">
       <use xlink:href="#DejaVuSans-8722"/>
       <use x="83.789062" xlink:href="#DejaVuSans-50"/>
       <use x="147.412109" xlink:href="#DejaVuSans-48"/>
       <use x="211.035156" xlink:href="#DejaVuSans-48"/>
       <use x="274.658203" xlink:href="#DejaVuSans-48"/>
      </g>
     </g>
    </g>
    <g id="ytick_3">
     <g id="line2d_8">
      <g>
       <use style="stroke:#000000;stroke-width:0.8;" x="36" xlink:href="#m40629f0444" y="145.440003"/>
      </g>
     </g>
     <g id="text_8">
      <!-- 0 -->
      <g transform="translate(22.6375 149.239222)scale(0.1 -0.1)">
       <use xlink:href="#DejaVuSans-48"/>
      </g>
     </g>
    </g>
    <g id="ytick_4">
     <g id="line2d_9">
      <g>
       <use style="stroke:#000000;stroke-width:0.8;" x="36" xlink:href="#m40629f0444" y="105.120001"/>
      </g>
     </g>
     <g id="text_9">
      <!-- 2000 -->
      <g transform="translate(3.55 108.91922)scale(0.1 -0.1)">
       <use xlink:href="#DejaVuSans-50"/>
       <use x="63.623047" xlink:href="#DejaVuSans-48"/>
       <use x="127.246094" xlink:href="#DejaVuSans-48"/>
       <use x="190.869141" xlink:href="#DejaVuSans-48"/>
      </g>
     </g>
    </g>
    <g id="ytick_5">
     <g id="line2d_10">
      <g>
       <use style="stroke:#000000;stroke-width:0.8;" x="36" xlink:href="#m40629f0444" y="64.799999"/>
      </g>
     </g>
     <g id="text_10">
      <!-- 4000 -->
      <g transform="translate(3.55 68.599218)scale(0.1 -0.1)">
       <use xlink:href="#DejaVuSans-52"/>
       <use x="63.623047" xlink:href="#DejaVuSans-48"/>
       <use x="127.246094" xlink:href="#DejaVuSans-48"/>
       <use x="190.869141" xlink:href="#DejaVuSans-48"/>
      </g>
     </g>
    </g>
   </g>
   <g id="line2d_11">
    <path clip-path="url(#p048ce957d5)" d="M 181.573313 71.69778 
L 181.963747 71.555858 
L 181.878045 71.49909 
L 181.763771 71.480159 
L 181.763771 71.480159 
L 181.773305 70.855706 
L 182.344646 70.628629 
L 182.344646 70.628629 
L 182.316105 70.231251 
L 182.316105 70.231251 
L 182.135166 70.240717 
L 182.135166 70.240717 
L 181.859007 70.023104 
L 181.916137 69.871723 
L 181.754244 69.758185 
L 181.773234 69.408114 
L 181.65896 69.228346 
L 181.706555 68.944505 
L 181.706555 68.944505 
L 181.916058 68.887736 
L 181.916058 68.887736 
L 181.620821 68.111901 
L 181.820798 68.102435 
L 181.620821 67.846977 
L 181.877919 67.175215 
L 182.087422 67.127912 
L 182.087422 67.127912 
L 182.039827 66.948144 
L 182.039827 66.948144 
L 182.277903 66.692688 
L 182.277903 66.692688 
L 182.201704 66.475074 
L 180.963716 66.181778 
L 181.001776 66.077703 
L 181.401736 66.077703 
L 180.897028 65.926316 
L 180.744662 65.869547 
L 180.868456 65.850617 
L 181.001776 65.737079 
L 181.28747 65.633003 
L 181.354134 65.40593 
L 181.116058 65.178856 
L 181.20176 65.065319 
L 181.144631 64.66794 
L 181.144631 64.66794 
L 181.716003 64.20433 
L 181.811231 64.22326 
L 182.135009 64.024562 
L 183.277753 64.478711 
L 183.3825 64.308405 
L 183.611049 64.384097 
L 183.668179 64.166484 
L 184.372871 64.516558 
L 183.991956 64.232714 
L 183.915757 64.109716 
L 184.134779 64.109716 
L 184.382405 63.825875 
L 184.877594 63.797485 
L 185.163265 64.251632 
L 185.229929 64.015099 
L 185.553706 64.024564 
L 185.372776 63.759646 
L 185.467996 63.542033 
L 185.753682 63.191962 
L 185.753682 63.191962 
L 186.972609 63.608271 
L 187.324951 63.721808 
L 187.801142 63.097353 
L 187.801142 63.097353 
L 188.30585 63.362282 
L 188.410606 63.428516 
L 188.267759 63.144672 
L 188.6582 62.785135 
L 188.6582 62.785135 
L 188.886749 62.690521 
L 188.781993 62.444526 
L 189.296228 62.047149 
L 189.572395 62.028218 
L 189.610455 61.801145 
L 189.610455 61.801145 
L 189.477143 61.69707 
L 189.477143 61.69707 
L 189.486725 60.902311 
L 189.343878 60.760391 
L 189.134383 60.760391 
L 189.181977 60.495472 
L 189.581938 60.448169 
L 190.029509 60.921239 
L 190.20092 61.053699 
L 190.448515 61.044234 
L 190.515179 61.403767 
L 190.68659 61.337541 
L 190.68659 61.337541 
L 190.696125 61.006393 
L 190.696125 61.006393 
L 190.581851 60.798241 
L 190.972276 60.49548 
L 191.115123 60.684708 
L 190.96275 61.091547 
L 190.96275 61.091547 
L 191.038948 61.252393 
L 191.038948 61.252393 
L 190.953215 61.725462 
L 190.810368 61.75385 
L 191.524587 61.962007 
L 191.524587 61.962007 
L 192.095959 62.463464 
L 192.095959 62.463464 
L 192.200707 62.558076 
L 192.105478 62.747305 
L 192.200707 62.936533 
L 192.848238 63.333917 
L 193.41961 63.210919 
L 193.657678 63.296072 
L 193.771952 63.532607 
L 193.733892 63.750218 
L 193.933876 63.816452 
L 193.933876 63.986757 
L 194.543332 63.920531 
L 194.543332 63.920531 
L 194.667133 64.071914 
L 194.667133 64.071914 
L 195.61942 63.958371 
L 195.733694 64.147599 
L 195.962235 64.138134 
L 195.9527 64.298978 
L 195.743197 64.507128 
L 196.343142 64.327362 
L 196.43837 64.573358 
L 196.676438 64.45036 
L 196.857377 64.601741 
L 197.285902 64.601741 
L 197.333496 64.781509 
L 198.009616 65.141042 
L 198.323874 65.519499 
L 198.323874 65.519499 
L 198.25721 65.623575 
L 198.25721 65.623575 
L 198.066753 65.595186 
L 198.638125 65.765492 
L 198.638125 65.765492 
L 198.64766 65.945258 
L 198.64766 65.945258 
L 198.123898 65.935792 
L 198.123898 65.935792 
L 199.057139 66.181788 
L 199.00001 66.352094 
L 199.00001 66.352094 
L 199.285696 66.484554 
L 199.285696 66.484554 
L 199.971342 66.560245 
L 199.914213 66.389939 
L 199.914213 66.389939 
L 199.790412 66.371009 
L 199.790412 66.371009 
L 199.999907 65.670864 
L 201.047422 65.453255 
L 201.209315 65.301872 
L 201.104559 65.585713 
L 200.895056 65.822249 
L 201.456901 65.812791 
L 201.675931 65.727642 
L 201.780679 65.822256 
L 201.780679 65.822256 
L 202.466325 65.737099 
L 202.466325 65.737099 
L 202.647256 65.793868 
L 202.571057 66.002019 
L 202.323463 66.200708 
L 202.199669 66.617009 
L 202.352035 66.588629 
L 202.228242 66.721087 
L 201.875892 66.796778 
L 202.161578 66.919776 
L 202.418699 66.844085 
L 202.532974 66.692704 
L 202.694858 66.711634 
L 202.751988 66.853555 
L 203.285268 66.900874 
L 203.428107 67.099562 
L 204.132799 67.288794 
L 204.123265 67.506407 
L 204.742247 67.317179 
L 204.742247 67.317179 
L 205.046979 67.553712 
L 205.046979 67.553712 
L 205.285054 67.544247 
L 205.418375 67.695631 
L 205.561214 67.629397 
L 205.980212 67.790243 
L 205.980212 67.922704 
L 205.770709 67.988938 
L 205.742184 68.159241 
L 205.237468 68.357932 
L 205.818367 68.159241 
L 205.818367 68.159241 
L 205.951687 68.197087 
L 205.951687 68.197087 
L 206.370693 68.074089 
L 206.561142 68.812077 
L 206.561142 68.812077 
L 206.932648 68.944512 
L 206.932648 68.944512 
L 207.218334 68.755284 
L 207.218334 68.755284 
L 207.408792 68.774207 
L 207.408792 68.774207 
L 207.561158 68.584978 
L 207.561158 68.584978 
L 207.332609 68.168677 
L 207.332609 68.168677 
L 207.713516 68.092986 
L 207.713516 68.092986 
L 208.056339 68.433596 
L 208.056339 68.433596 
L 208.85626 68.395751 
L 209.408586 68.887744 
L 209.751409 68.812053 
L 209.751409 68.812053 
L 210.760833 68.736361 
L 210.760833 68.736361 
L 210.989374 68.603901 
L 210.989374 68.603901 
L 211.80834 68.584978 
L 211.80834 68.584978 
L 212.132118 68.395751 
L 212.132118 68.395751 
L 212.70349 68.66067 
L 212.70349 68.66067 
L 213.046313 68.622824 
L 213.046313 68.622824 
L 213.579594 68.849898 
L 213.579594 68.849898 
L 213.960508 69.625733 
L 214.436644 70.193417 
L 214.436644 70.193417 
L 214.436644 70.515105 
L 214.436644 70.515105 
L 215.027061 71.404478 
L 215.027061 71.404478 
L 215.217519 71.915394 
L 215.255579 72.747997 
L 214.855618 72.89938 
L 214.741344 73.258913 
L 214.874664 73.71306 
L 214.874664 73.71306 
L 214.703252 74.034748 
L 214.703252 74.034748 
L 214.798481 74.337514 
L 214.684207 74.772738 
L 213.808142 75.775647 
L 213.846202 75.945953 
L 213.331967 76.456868 
L 213.331967 76.456868 
L 212.779641 76.589328 
L 212.779641 76.702865 
L 212.113041 76.523091 
L 211.865446 76.551471 
L 211.884515 76.655547 
L 211.360762 76.788007 
L 211.475036 76.967773 
L 211.32267 77.033999 
L 211.370265 77.251611 
L 211.246472 77.402994 
L 210.817946 77.33676 
L 210.04659 77.459759 
L 209.979926 77.374606 
L 209.598996 77.488143 
L 209.618065 77.592218 
L 209.303807 77.743597 
L 209.389516 77.82875 
L 209.494264 77.913902 
L 209.199059 78.055819 
L 209.027648 78.0842 
L 209.018113 78.216659 
L 209.43708 78.26397 
L 209.475139 78.453199 
L 209.141843 78.481579 
L 208.913263 78.585655 
L 209.303696 78.614043 
L 209.294162 78.926269 
L 209.027521 78.869501 
L 208.684714 79.323649 
L 208.57044 79.342571 
L 208.46566 80.042716 
L 208.294249 80.090019 
L 208.217971 80.496863 
L 208.332246 80.534709 
L 208.170337 80.705015 
L 208.170337 80.988857 
L 208.322703 81.017237 
L 208.275109 81.149696 
L 208.056079 81.367309 
L 207.97988 81.64169 
L 207.808445 81.934994 
L 207.741781 82.086376 
L 207.465622 82.332372 
L 207.465622 82.332372 
L 207.332301 82.464832 
L 207.332301 82.464832 
L 207.018043 82.408063 
L 206.841872 82.393869 
L 206.722838 82.270871 
L 206.722838 82.270871 
L 206.122893 82.285065 
L 206.027673 82.091107 
L 205.446774 81.892419 
L 205.256293 81.769425 
L 205.370567 81.958653 
L 205.361033 82.190458 
L 205.370567 82.436454 
L 205.922901 82.635142 
L 205.946699 82.540528 
L 206.218098 82.573641 
L 206.599013 83.661702 
L 206.489506 83.732664 
L 206.237144 83.66643 
L 206.237144 83.66643 
L 206.199084 83.832005 
L 206.199084 83.832005 
L 204.6611 84.049644 
L 204.480161 83.959761 
L 204.480161 83.959761 
L 204.399219 83.969219 
L 204.399219 83.969219 
L 204.327827 83.761068 
L 204.199266 83.732688 
L 204.137409 83.519806 
L 203.570797 83.472503 
L 203.570797 83.472503 
L 203.427934 83.032547 
L 203.427934 83.032547 
L 203.332705 82.966313 
L 203.332705 82.966313 
L 203.323171 82.781815 
L 202.975541 82.251977 
L 202.975541 82.251977 
L 203.146952 82.020172 
L 202.913644 82.285091 
L 202.983539 82.724765 
L 202.983539 82.724765 
L 202.720602 84.390631 
L 202.720602 84.390631 
L 202.404121 84.544507 
L 202.404121 84.544507 
L 202.302762 84.872328 
L 202.161341 84.952611 
L 202.28928 85.086416 
L 201.959332 85.287123 
L 202.040141 85.380786 
L 202.181522 85.514593 
L 202.24215 85.768822 
L 202.24215 85.768822 
L 202.269099 85.929387 
L 202.269099 85.929387 
L 202.06705 86.91954 
L 202.154588 87.060035 
L 201.218597 88.217441 
L 201.461007 87.976593 
L 202.019944 88.076984 
L 201.824633 88.297761 
L 201.824633 88.297761 
L 201.85828 88.451636 
L 201.151248 89.13404 
L 201.191672 89.328057 
L 200.848187 90.050599 
L 200.848187 90.050599 
L 200.949191 90.130882 
L 200.949191 90.130882 
L 200.774139 90.438631 
L 200.774139 90.438631 
L 200.578859 90.565746 
L 200.578859 90.565746 
L 200.302779 90.545672 
L 200.302779 90.545672 
L 199.716955 90.920325 
L 199.939161 90.866806 
L 200.053632 90.71293 
L 200.053632 90.71293 
L 200.147907 90.799903 
L 200.147907 90.799903 
L 200.390317 90.759763 
L 200.700084 91.321742 
L 200.619638 91.589351 
L 200.48497 91.957313 
L 199.744267 92.137986 
L 198.808284 93.201734 
L 198.599537 93.302087 
L 198.599537 93.302087 
L 198.653436 93.435892 
L 198.498556 93.302087 
L 198.498556 93.302087 
L 198.505648 93.509484 
L 197.980437 93.783783 
L 197.980437 93.783783 
L 197.933315 93.897516 
L 197.933315 93.897516 
L 197.744772 93.937656 
L 197.744772 93.937656 
L 197.643768 93.830612 
L 197.488896 93.864066 
L 197.448472 93.99118 
L 197.448472 93.99118 
L 197.05792 94.017908 
L 196.929974 94.151713 
L 196.613493 94.225303 
L 195.785252 94.586574 
L 195.87279 94.720379 
L 195.515909 94.954537 
L 195.515909 94.954537 
L 195.515909 95.108413 
L 195.515909 95.108413 
L 195.286966 95.128487 
L 195.286966 95.128487 
L 195.091687 95.021443 
L 195.091687 95.021443 
L 194.997411 95.135177 
L 195.071482 95.556661 
L 195.071482 95.556661 
L 194.519337 95.6637 
L 194.041248 95.57004 
L 193.744979 95.697153 
L 193.610304 95.743986 
L 193.421745 96.386248 
L 193.549683 96.520053 
L 193.239932 96.660512 
L 193.145665 96.660512 
L 193.098543 96.520018 
L 192.896534 96.673891 
L 192.896534 96.673891 
L 192.890159 97.055234 
L 192.890159 97.055234 
L 192.49287 96.974951 
L 192.49287 96.974951 
L 192.25719 96.787625 
L 192.25719 96.787625 
L 192.082114 96.794279 
L 191.435686 96.386177 
L 190.98453 96.232304 
L 191.348148 96.038289 
L 191.146139 95.978075 
L 191.058601 95.937936 
L 191.058601 95.937936 
L 191.314477 95.670326 
L 191.8195 95.576699 
L 191.947438 95.396063 
L 191.8195 95.416137 
L 191.435686 95.509765 
L 191.47611 95.349199 
L 191.637719 95.222085 
L 191.65797 94.860813 
L 191.806152 94.787258 
L 191.705131 94.472818 
L 191.637758 94.479473 
L 191.402117 94.111513 
L 191.159708 94.124893 
L 191.159708 94.111513 
L 191.119284 93.783692 
L 191.617578 93.603056 
L 191.617578 93.603056 
L 191.63775 93.409039 
L 191.63775 93.409039 
L 191.812826 93.375585 
L 191.812826 93.375585 
L 191.812826 93.134736 
L 192.486188 92.766812 
L 192.109103 92.686533 
L 192.109103 92.686533 
L 192.405387 92.459065 
L 192.283784 91.850255 
L 192.283784 91.850255 
L 192.041343 91.214684 
L 193.226442 90.391783 
L 192.640657 90.545658 
L 192.640657 90.545658 
L 192.721821 89.950228 
L 192.721821 89.950228 
L 193.15951 89.662548 
L 192.96423 89.716068 
L 192.68815 89.722754 
L 192.68815 89.722754 
L 192.715099 89.361482 
L 192.863233 89.227677 
L 192.789162 88.826264 
L 192.924192 88.585416 
L 193.065581 88.311117 
L 193.065581 88.311117 
L 193.254124 88.117101 
L 193.247032 87.822731 
L 193.085423 87.715687 
L 193.139274 87.488221 
L 193.415355 87.428008 
L 193.253754 87.327655 
L 193.226804 87.220611 
L 193.368217 86.986453 
L 193.704894 87.066736 
L 193.6376 86.946312 
L 193.745342 86.712154 
L 193.745342 86.712154 
L 193.785765 86.57166 
L 193.785765 86.57166 
L 193.731867 86.337502 
L 193.556791 86.230458 
L 193.502893 85.815664 
L 193.502893 85.815664 
L 193.671239 85.742071 
L 193.671239 85.742071 
L 193.651066 85.12657 
L 193.651066 85.12657 
L 193.805946 85.019527 
L 193.771905 84.664945 
L 194.095123 84.504382 
L 194.398137 84.651565 
L 194.492404 84.577972 
L 193.946996 84.163178 
L 193.866188 84.196631 
L 193.866188 84.196631 
L 193.556444 83.808598 
L 193.556444 83.808598 
L 193.610343 83.601202 
L 193.415063 83.320212 
L 193.388114 82.999081 
L 193.0851 82.67126 
L 193.933577 81.293073 
L 193.933577 81.293073 
L 194.734853 80.978639 
L 194.31063 80.945186 
L 194.209626 80.77793 
L 194.242958 80.483561 
L 194.492104 80.256093 
L 194.505579 80.088837 
L 195.158745 79.961688 
L 195.158745 79.961688 
L 195.232816 79.814503 
L 196.417938 79.47327 
L 196.417938 79.47327 
L 196.451664 79.165519 
L 195.731165 79.078515 
L 195.731165 79.078515 
L 195.643627 79.205629 
L 195.643627 79.205629 
L 194.882719 79.366231 
L 194.64031 79.0451 
L 194.492168 79.091933 
L 193.839002 78.824323 
L 193.839002 78.824323 
L 193.556192 78.830978 
L 193.502294 78.971472 
L 192.694257 79.172211 
L 192.498977 79.091928 
L 192.498977 79.091928 
L 192.506069 78.964814 
L 192.506069 78.964814 
L 192.62054 78.911295 
L 192.62054 78.911295 
L 192.647489 78.75742 
L 192.40508 78.74404 
L 192.438727 78.630306 
L 192.102003 78.489808 
L 191.63738 78.570127 
L 191.455559 78.958159 
L 190.81586 79.098656 
L 190.479183 78.784216 
L 189.886614 78.476467 
L 189.886614 78.476467 
L 189.866442 78.275761 
L 189.08533 78.075054 
L 188.620723 78.008152 
L 188.189771 78.034912 
L 188.095504 77.907798 
L 187.839604 77.907802 
L 187.839604 77.907802 
L 187.449052 77.807449 
L 187.193184 77.680333 
L 187.193184 77.680333 
L 187.125811 77.539838 
L 187.125811 77.539838 
L 186.634254 77.372581 
L 186.149435 77.486279 
L 186.149435 77.486279 
L 185.752146 77.506353 
L 185.981089 77.593325 
L 186.115764 77.620085 
L 186.135937 77.753889 
L 186.007991 77.753889 
L 185.913723 77.901074 
L 185.664576 77.914454 
L 185.664576 77.914454 
L 185.280754 77.700366 
L 185.280754 77.700366 
L 185.220158 77.526421 
L 184.607392 77.22536 
L 183.469384 77.319028 
L 183.469384 77.319028 
L 183.570381 77.165152 
L 183.570381 77.165152 
L 183.065358 77.138354 
L 182.748877 76.910889 
L 182.809474 76.803846 
L 183.038424 76.877439 
L 182.277446 75.746792 
L 182.62086 75.820385 
L 182.627637 75.546086 
L 182.721912 75.459112 
L 182.391996 74.716498 
L 182.472805 74.569313 
L 182.69505 74.616146 
L 182.897059 74.910516 
L 182.930706 74.589386 
L 183.092315 74.348538 
L 182.91051 74.228114 
L 182.903418 74.074239 
L 183.078494 73.987266 
L 183.347837 73.987266 
L 182.829347 73.886877 
L 182.708138 73.759762 
L 182.34452 73.706243 
L 182.34452 73.706243 
L 182.250252 73.826666 
L 182.250252 73.826666 
L 181.893372 73.779833 
L 181.70479 72.849891 
L 181.70479 72.849891 
L 181.98087 72.602351 
L 181.529714 72.562212 
L 181.374811 72.221011 
L 181.509486 72.107276 
L 181.573313 71.69778 
L 181.573313 71.69778 
" style="fill:none;stroke:#1f77b4;stroke-linecap:square;stroke-width:0.5;"/>
   </g>
   <g id="line2d_12">
    <path clip-path="url(#p048ce957d5)" d="M 249.054545 145.440003 
L 248.94251 140.704147 
L 248.606649 135.97875 
L 248.047706 131.274249 
L 247.266915 126.601035 
L 246.266 121.969429 
L 245.047172 117.389659 
L 243.613123 112.871841 
L 241.96702 108.425953 
L 240.112499 104.061814 
L 238.053655 99.789063 
L 235.795036 95.617136 
L 233.341629 91.555247 
L 230.698855 87.612368 
L 227.872548 83.797207 
L 224.868953 80.11819 
L 221.694701 76.583441 
L 218.356805 73.20077 
L 214.862635 69.977645 
L 211.21991 66.921185 
L 207.436674 64.038142 
L 203.521284 61.334883 
L 199.482385 58.817377 
L 195.3289 56.491186 
L 191.070001 54.361447 
L 186.715095 52.432863 
L 182.273799 50.709693 
L 177.755923 49.195745 
L 173.171444 47.894361 
L 168.530489 46.808416 
L 163.843307 45.940308 
L 159.120249 45.291954 
L 154.371749 44.864786 
L 149.608292 44.659749 
L 144.8404 44.677294 
L 140.078602 44.917382 
L 135.333417 45.379485 
L 130.615323 46.06258 
L 125.934741 46.96516 
L 121.302009 48.08523 
L 116.727359 49.420318 
L 112.220894 50.967474 
L 107.792567 52.723281 
L 103.452158 54.683862 
L 99.209254 56.844887 
L 95.073225 59.201582 
L 91.053207 61.748742 
L 87.158077 64.480743 
L 83.396439 67.39155 
L 79.776601 70.474734 
L 76.306557 73.723485 
L 72.993971 77.13063 
L 69.84616 80.688642 
L 66.870075 84.389663 
L 64.07229 88.22552 
L 61.458983 92.18774 
L 59.035927 96.267573 
L 56.808473 100.456008 
L 54.781541 104.743794 
L 52.959606 109.121462 
L 51.346694 113.579342 
L 49.946367 118.10759 
L 48.761716 122.696204 
L 47.795359 127.33505 
L 47.04943 132.013882 
L 46.525576 136.722367 
L 46.224955 141.450106 
L 46.148229 146.186656 
L 46.29557 150.921558 
L 46.666651 155.644353 
L 47.260652 160.344611 
L 48.076262 165.011951 
L 49.11168 169.636064 
L 50.364618 174.206738 
L 51.83231 178.713878 
L 53.511514 183.14753 
L 55.398521 187.497901 
L 57.489163 191.755383 
L 59.778824 195.910573 
L 62.262446 199.954295 
L 64.934543 203.877616 
L 67.789216 207.671872 
L 70.820157 211.328684 
L 74.020675 214.839974 
L 77.383699 218.197988 
L 80.901802 221.395309 
L 84.567214 224.424876 
L 88.371841 227.279997 
L 92.307278 229.954367 
L 96.364834 232.44208 
L 100.535548 234.73764 
L 104.810208 236.835977 
L 109.179373 238.732459 
L 113.633394 240.422895 
L 118.162434 241.903552 
L 122.756489 243.171161 
L 127.405413 244.222921 
L 132.098938 245.056511 
L 136.8267 245.670087 
L 141.578255 246.062296 
L 146.34311 246.232272 
L 151.11074 246.179638 
L 155.870617 245.904512 
L 160.612227 245.4075 
L 165.325099 244.689701 
L 169.998823 243.752699 
L 174.623077 242.598565 
L 179.187649 241.229847 
L 183.682456 239.649568 
L 188.097571 237.861218 
L 192.423244 235.868748 
L 196.64992 233.676557 
L 200.768265 231.289488 
L 204.769183 228.712812 
L 208.643838 225.95222 
L 212.383672 223.013809 
L 215.980424 219.90407 
L 219.426152 216.629869 
L 222.713246 213.198439 
L 225.834445 209.617359 
L 228.782855 205.894536 
L 231.551966 202.038195 
L 234.135661 198.05685 
L 236.528234 193.959297 
L 238.7244 189.754584 
L 240.71931 185.451998 
L 242.508557 181.061042 
L 244.08819 176.591414 
L 245.454719 172.052985 
L 246.605128 167.455778 
L 247.536874 162.809948 
L 248.2479 158.125754 
L 248.736636 153.413543 
L 249.002002 148.683722 
L 249.054544 145.458682 
L 249.054544 145.458682 
" style="fill:none;stroke:#ff7f0e;stroke-linecap:square;stroke-width:1.5;"/>
   </g>
   <g id="patch_3">
    <path d="M 36 256.32 
L 36 34.56 
" style="fill:none;stroke:#000000;stroke-linecap:square;stroke-linejoin:miter;stroke-width:0.8;"/>
   </g>
   <g id="patch_4">
    <path d="M 259.2 256.32 
L 259.2 34.56 
" style="fill:none;stroke:#000000;stroke-linecap:square;stroke-linejoin:miter;stroke-width:0.8;"/>
   </g>
   <g id="patch_5">
    <path d="M 36 256.32 
L 259.2 256.32 
" style="fill:none;stroke:#000000;stroke-linecap:square;stroke-linejoin:miter;stroke-width:0.8;"/>
   </g>
   <g id="patch_6">
    <path d="M 36 34.56 
L 259.2 34.56 
" style="fill:none;stroke:#000000;stroke-linecap:square;stroke-linejoin:miter;stroke-width:0.8;"/>
   </g>
  </g>
 </g>
 <defs>
  <clipPath id="p048ce957d5">
   <rect height="221.76" width="223.2" x="36" y="34.56"/>
  </clipPath>
 </defs>
</svg>
