<?xml version="1.0" encoding="UTF-8" standalone="no"?>
<!-- Created with Inkscape (http://www.inkscape.org/) -->

<svg
   xmlns:dc="http://purl.org/dc/elements/1.1/"
   xmlns:cc="http://creativecommons.org/ns#"
   xmlns:rdf="http://www.w3.org/1999/02/22-rdf-syntax-ns#"
   xmlns:svg="http://www.w3.org/2000/svg"
   xmlns="http://www.w3.org/2000/svg"
   xmlns:sodipodi="http://sodipodi.sourceforge.net/DTD/sodipodi-0.dtd"
   xmlns:inkscape="http://www.inkscape.org/namespaces/inkscape"
   width="192.65376mm"
   height="183.70988mm"
   viewBox="0 0 682.63143 650.94052"
   id="svg2"
   version="1.1"
   inkscape:version="0.92.2 5c3e80d, 2017-08-06"
   sodipodi:docname="venn_diagram.svg"
   style="enable-background:new"
   inkscape:export-filename="/home/mroughan/Classes/AdvancedMathematicalPerspectivesI/Figs/color_model.png"
   inkscape:export-xdpi="300"
   inkscape:export-ydpi="300">
  <defs
     id="defs4" />
  <sodipodi:namedview
     id="base"
     pagecolor="#ffffff"
     bordercolor="#666666"
     borderopacity="1.0"
     inkscape:pageopacity="0.0"
     inkscape:pageshadow="2"
     inkscape:zoom="0.65950331"
     inkscape:cx="261.39452"
     inkscape:cy="349.82764"
     inkscape:document-units="mm"
     inkscape:current-layer="layer1"
     showgrid="true"
     inkscape:window-width="1344"
     inkscape:window-height="856"
     inkscape:window-x="334"
     inkscape:window-y="29"
     inkscape:window-maximized="0"
     showguides="false"
     units="mm"
     showborder="true"
     inkscape:showpageshadow="true"
     inkscape:snap-grids="false"
     inkscape:snap-object-midpoints="true"
     inkscape:snap-bbox="false"
     inkscape:object-paths="false"
     inkscape:object-nodes="true"
     fit-margin-top="0"
     fit-margin-left="0"
     fit-margin-right="0"
     fit-margin-bottom="0">
    <inkscape:grid
       type="xygrid"
       id="grid4136"
       originx="-48.875442"
       originy="-104.41082" />
  </sodipodi:namedview>
  <metadata
     id="metadata7">
    <rdf:RDF>
      <cc:Work
         rdf:about="">
        <dc:format>image/svg+xml</dc:format>
        <dc:type
           rdf:resource="http://purl.org/dc/dcmitype/StillImage" />
        <dc:title></dc:title>
        <dc:creator>
          <cc:Agent>
            <dc:title>Matt Roughan</dc:title>
          </cc:Agent>
        </dc:creator>
        <dc:rights>
          <cc:Agent>
            <dc:title>All rights reserved unless otherwise specfied</dc:title>
          </cc:Agent>
        </dc:rights>
      </cc:Work>
    </rdf:RDF>
  </metadata>
  <g
     inkscape:label="Layer 1"
     inkscape:groupmode="layer"
     id="layer1"
     transform="translate(-48.875443,-297.01094)">
    <circle
       style="opacity:1;fill:#729fcf;fill-opacity:1;fill-rule:evenodd;stroke:none;stroke-width:5.57608318;stroke-linecap:butt;stroke-linejoin:miter;stroke-miterlimit:4;stroke-dasharray:none;stroke-dashoffset:0;stroke-opacity:1;enable-background:new"
       id="circle868"
       cx="271.91876"
       cy="724.90814"
       r="223.04332" />
    <circle
       r="223.04332"
       cy="520.05426"
       cx="390.19113"
       id="circle870"
       style="opacity:1;fill:#729fcf;fill-opacity:1;fill-rule:evenodd;stroke:none;stroke-width:5.57608318;stroke-linecap:butt;stroke-linejoin:miter;stroke-miterlimit:4;stroke-dasharray:none;stroke-dashoffset:0;stroke-opacity:1;enable-background:new" />
    <path
       inkscape:connector-curvature="0"
       id="path891"
       d="M 197.0304,631.57694 A 223.04332,223.04332 0 0 0 494.69047,716.81509 223.04332,223.04332 0 0 0 465.07955,613.38683 223.04332,223.04332 0 0 0 167.41779,528.14967 223.04332,223.04332 0 0 0 197.0304,631.57694 Z"
       style="opacity:1;fill:#3465a4;fill-opacity:1;fill-rule:evenodd;stroke:none;stroke-width:5.57608318;stroke-linecap:butt;stroke-linejoin:miter;stroke-miterlimit:4;stroke-dasharray:none;stroke-dashoffset:0;stroke-opacity:1;enable-background:new" />
    <circle
       r="223.04332"
       cy="724.90808"
       cx="508.46356"
       id="circle6680"
       style="opacity:1;fill:#729fcf;fill-opacity:1;fill-rule:evenodd;stroke:none;stroke-width:5.57608318;stroke-linecap:butt;stroke-linejoin:miter;stroke-miterlimit:4;stroke-dasharray:none;stroke-dashoffset:0;stroke-opacity:1;enable-background:new" />
    <path
       style="opacity:1;fill:#3465a4;fill-opacity:1;fill-rule:evenodd;stroke:none;stroke-width:5.57608318;stroke-linecap:butt;stroke-linejoin:miter;stroke-miterlimit:4;stroke-dasharray:none;stroke-dashoffset:0;stroke-opacity:1;enable-background:new"
       d="M 341.16211,305.58203 A 223.04332,223.04332 0 0 0 236.54492,494.46289 223.04332,223.04332 0 0 0 341.46875,683.34375 223.04332,223.04332 0 0 0 446.08594,494.46289 223.04332,223.04332 0 0 0 341.16211,305.58203 Z"
       id="circle6816"
       inkscape:connector-curvature="0"
       transform="translate(48.875412,230.44579)" />
    <path
       style="opacity:1;fill:#3465a4;fill-opacity:1;fill-rule:evenodd;stroke:none;stroke-width:5.57608318;stroke-linecap:butt;stroke-linejoin:miter;stroke-miterlimit:4;stroke-dasharray:none;stroke-dashoffset:0;stroke-opacity:1;enable-background:new"
       d="M 459.58789,271.41992 A 223.04332,223.04332 0 0 0 236.93945,486.58203 223.04332,223.04332 0 0 0 341.31641,512.65234 223.04332,223.04332 0 0 0 563.96484,297.48828 223.04332,223.04332 0 0 0 459.58789,271.41992 Z"
       id="circle6821"
       inkscape:connector-curvature="0"
       transform="translate(48.875412,230.44579)" />
    <path
       style="opacity:1;fill:#204a87;fill-opacity:1;fill-rule:evenodd;stroke:none;stroke-width:5.57608318;stroke-linecap:butt;stroke-linejoin:miter;stroke-miterlimit:4;stroke-dasharray:none;stroke-dashoffset:0;stroke-opacity:1;enable-background:new"
       d="m 341.42383,305.76953 a 223.04332,223.04332 0 0 0 -104.47266,180.57227 223.04332,223.04332 0 0 0 4.21289,2.2207 223.04332,223.04332 0 0 0 12.06446,5.6543 223.04332,223.04332 0 0 0 8.54492,3.46289 223.04332,223.04332 0 0 0 12.09961,4.25781 223.04332,223.04332 0 0 0 9.31836,2.73047 223.04332,223.04332 0 0 0 12,2.91601 223.04332,223.04332 0 0 0 10.02148,1.875 223.04332,223.04332 0 0 0 11.73438,1.63477 223.04332,223.04332 0 0 0 11.58203,0.98633 223.04332,223.04332 0 0 0 12.78711,0.57226 223.04332,223.04332 0 0 0 91.77343,-20.09765 223.04332,223.04332 0 0 0 12.70508,-6.15625 223.04332,223.04332 0 0 0 -104.37109,-180.62891 z"
       id="path6831"
       inkscape:connector-curvature="0"
       transform="translate(48.875412,230.44579)" />
  </g>
</svg>
