<?xml version="1.0" encoding="UTF-8" standalone="no"?>
<!DOCTYPE svg PUBLIC "-//W3C//DTD SVG 1.1//EN"
 "http://www.w3.org/Graphics/SVG/1.1/DTD/svg11.dtd">
<!-- Generated by graphviz version 2.40.1 (20161225.0304)
 -->
<!-- Title: marvel Pages: 1 -->
<svg width="1700pt" height="1006pt"
 viewBox="0.00 0.00 1700.00 1006.10" xmlns="http://www.w3.org/2000/svg" xmlns:xlink="http://www.w3.org/1999/xlink">
<g id="graph0" class="graph" transform="scale(1 1) rotate(0) translate(4 1002.0968)">
<title>marvel</title>
<polygon fill="#000000" stroke="transparent" points="-4,4 -4,-1002.0968 1696,-1002.0968 1696,4 -4,4"/>
<!-- Iron Man -->
<g id="node1" class="node">
<title>Iron Man</title>
<ellipse fill="#ff0000" stroke="#ff0000" cx="36" cy="-671" rx="36" ry="36"/>
<text text-anchor="middle" x="36" y="-660.2" font-family="Times,serif" font-size="36.00" fill="#ffffff">Iron Man</text>
</g>
<!-- Iron Man 2 -->
<g id="node2" class="node">
<title>Iron Man 2</title>
<ellipse fill="#ff0000" stroke="#ff0000" cx="144" cy="-671" rx="36" ry="36"/>
<text text-anchor="middle" x="144" y="-660.2" font-family="Times,serif" font-size="36.00" fill="#ffffff">Iron Man 2</text>
</g>
<!-- Iron Man&#45;&gt;Iron Man 2 -->
<g id="edge14" class="edge">
<title>Iron Man&#45;&gt;Iron Man 2</title>
<path fill="none" stroke="#ffffff" stroke-width="6.3246" d="M72.2629,-671C80.3661,-671 89.0689,-671 97.5209,-671"/>
<polygon fill="#ffffff" stroke="#ffffff" stroke-width="6.3246" points="97.649,-676.5341 107.649,-671 97.6489,-665.4661 97.649,-676.5341"/>
</g>
<!-- The Incredible Hulk -->
<g id="node3" class="node">
<title>The Incredible Hulk</title>
<ellipse fill="#ff0000" stroke="#ff0000" cx="144" cy="-559" rx="36" ry="36"/>
<text text-anchor="middle" x="144" y="-548.2" font-family="Times,serif" font-size="36.00" fill="#ffffff">The Incredible Hulk</text>
</g>
<!-- Iron Man 2&#45;&gt;The Incredible Hulk -->
<g id="edge29" class="edge">
<title>Iron Man 2&#45;&gt;The Incredible Hulk</title>
<path fill="none" stroke="#ffffff" stroke-width="2.8284" d="M144,-634.9302C144,-625.1289 144,-615.3277 144,-605.5264"/>
<polygon fill="#ffffff" stroke="#ffffff" stroke-width="2.8284" points="147.5001,-605.3125 144,-595.3125 140.5001,-605.3125 147.5001,-605.3125"/>
</g>
<!-- Thor -->
<g id="node4" class="node">
<title>Thor</title>
<ellipse fill="#ff0000" stroke="#ff0000" cx="144" cy="-447" rx="36" ry="36"/>
<text text-anchor="middle" x="144" y="-436.2" font-family="Times,serif" font-size="36.00" fill="#ffffff">Thor</text>
</g>
<!-- Iron Man 2&#45;&gt;Thor -->
<g id="edge23" class="edge">
<title>Iron Man 2&#45;&gt;Thor</title>
<path fill="none" stroke="#ffffff" stroke-width="2" d="M119.1877,-644.7644C107.9352,-631.062 95.8552,-613.3497 90,-595 80.2723,-564.5144 80.2723,-553.4856 90,-523 94.7574,-508.0909 103.6241,-493.6025 112.8174,-481.3439"/>
<polygon fill="#ffffff" stroke="#ffffff" stroke-width="2" points="115.762,-483.2613 119.1877,-473.2356 110.2576,-478.9367 115.762,-483.2613"/>
</g>
<!-- Captain America: The First Avenger -->
<g id="node5" class="node">
<title>Captain America: The First Avenger</title>
<ellipse fill="#ff0000" stroke="#ff0000" cx="252" cy="-674" rx="36" ry="36"/>
<text text-anchor="middle" x="252" y="-663.2" font-family="Times,serif" font-size="36.00" fill="#ffffff">Captain America: The First Avenger</text>
</g>
<!-- Iron Man 2&#45;&gt;Captain America: The First Avenger -->
<g id="edge25" class="edge">
<title>Iron Man 2&#45;&gt;Captain America: The First Avenger</title>
<path fill="none" stroke="#ffffff" stroke-width="2" d="M180.2629,-672.0073C188.3661,-672.2324 197.0689,-672.4741 205.5209,-672.7089"/>
<polygon fill="#ffffff" stroke="#ffffff" stroke-width="2" points="205.5556,-676.2111 215.649,-672.9902 205.7501,-669.2138 205.5556,-676.2111"/>
</g>
<!-- The Avengers -->
<g id="node6" class="node">
<title>The Avengers</title>
<ellipse fill="#ff0000" stroke="#ff0000" cx="360" cy="-472" rx="36" ry="36"/>
<text text-anchor="middle" x="360" y="-461.2" font-family="Times,serif" font-size="36.00" fill="#ffffff">The Avengers</text>
</g>
<!-- Iron Man 2&#45;&gt;The Avengers -->
<g id="edge24" class="edge">
<title>Iron Man 2&#45;&gt;The Avengers</title>
<path fill="none" stroke="#ffffff" stroke-width="3.4641" d="M161.8439,-639.729C175.0418,-618.2835 194.4134,-590.0187 216,-569 243.5549,-542.1701 256.1023,-542.486 288,-521 298.9837,-513.6015 310.8796,-505.5299 321.7778,-498.1117"/>
<polygon fill="#ffffff" stroke="#ffffff" stroke-width="3.4641" points="323.9737,-500.8508 330.2675,-492.3279 320.0325,-495.0657 323.9737,-500.8508"/>
</g>
<!-- Iron Man 3 -->
<g id="node7" class="node">
<title>Iron Man 3</title>
<ellipse fill="#00bfff" stroke="#00bfff" cx="576" cy="-550" rx="36" ry="36"/>
<text text-anchor="middle" x="576" y="-539.2" font-family="Times,serif" font-size="36.00" fill="#ffffff">Iron Man 3</text>
</g>
<!-- Iron Man 2&#45;&gt;Iron Man 3 -->
<g id="edge28" class="edge">
<title>Iron Man 2&#45;&gt;Iron Man 3</title>
<path fill="none" stroke="#ffffff" stroke-width="2.8284" d="M174.1201,-650.5989C186.6302,-642.8897 201.5751,-634.6289 216,-629 324.2949,-586.7411 460.1879,-564.6753 529.9686,-555.4244"/>
<polygon fill="#ffffff" stroke="#ffffff" stroke-width="2.8284" points="530.713,-558.8573 540.1797,-554.1001 529.8126,-551.9154 530.713,-558.8573"/>
</g>
<!-- Captain America: The Winter Soldier -->
<g id="node9" class="node">
<title>Captain America: The Winter Soldier</title>
<ellipse fill="#00bfff" stroke="#00bfff" cx="684" cy="-746" rx="36" ry="36"/>
<text text-anchor="middle" x="684" y="-735.2" font-family="Times,serif" font-size="36.00" fill="#ffffff">Captain America: The Winter Soldier</text>
</g>
<!-- Iron Man 2&#45;&gt;Captain America: The Winter Soldier -->
<g id="edge27" class="edge">
<title>Iron Man 2&#45;&gt;Captain America: The Winter Soldier</title>
<path fill="none" stroke="#ffffff" stroke-width="2" d="M171.6262,-694.2401C184.3359,-703.6064 200.1041,-713.4834 216,-719 363.2472,-770.1013 552.0988,-759.8558 637.9006,-751.4513"/>
<polygon fill="#ffffff" stroke="#ffffff" stroke-width="2" points="638.4944,-754.909 648.0884,-750.4139 637.7852,-747.9451 638.4944,-754.909"/>
</g>
<!-- Captain America: Civil War -->
<g id="node14" class="node">
<title>Captain America: Civil War</title>
<ellipse fill="#ffa500" stroke="#ffa500" cx="1008" cy="-811" rx="36" ry="36"/>
<text text-anchor="middle" x="1008" y="-800.2" font-family="Times,serif" font-size="36.00" fill="#ffffff">Captain America: Civil War</text>
</g>
<!-- Iron Man 2&#45;&gt;Captain America: Civil War -->
<g id="edge26" class="edge">
<title>Iron Man 2&#45;&gt;Captain America: Civil War</title>
<path fill="none" stroke="#ffffff" stroke-width="2" d="M154.0999,-705.7749C177.4152,-777.8773 242.2126,-937 360,-937 360,-937 360,-937 792,-937 857.6591,-937 880.6732,-939.3562 936,-904 956.3493,-890.9959 973.2636,-870.1579 985.5734,-851.4999"/>
<polygon fill="#ffffff" stroke="#ffffff" stroke-width="2" points="988.6668,-853.1575 991.0709,-842.839 982.7569,-849.4061 988.6668,-853.1575"/>
</g>
<!-- The Incredible Hulk&#45;&gt;Thor -->
<g id="edge17" class="edge">
<title>The Incredible Hulk&#45;&gt;Thor</title>
<path fill="none" stroke="#ffffff" stroke-width="2" d="M144,-522.9302C144,-513.1289 144,-503.3277 144,-493.5264"/>
<polygon fill="#ffffff" stroke="#ffffff" stroke-width="2" points="147.5001,-493.3125 144,-483.3125 140.5001,-493.3125 147.5001,-493.3125"/>
</g>
<!-- The Incredible Hulk&#45;&gt;The Avengers -->
<g id="edge18" class="edge">
<title>The Incredible Hulk&#45;&gt;The Avengers</title>
<path fill="none" stroke="#ffffff" stroke-width="2.8284" d="M175.3728,-541.0631C187.8088,-534.32 202.3703,-526.8722 216,-521 248.6505,-506.9329 286.7843,-494.1099 315.6044,-485.1129"/>
<polygon fill="#ffffff" stroke="#ffffff" stroke-width="2.8284" points="316.8625,-488.3876 325.3858,-482.0943 314.7983,-481.6988 316.8625,-488.3876"/>
</g>
<!-- The Incredible Hulk&#45;&gt;Captain America: Civil War -->
<g id="edge19" class="edge">
<title>The Incredible Hulk&#45;&gt;Captain America: Civil War</title>
<path fill="none" stroke="#ffffff" stroke-width="2" d="M161.8475,-590.2897C167.9145,-601.4133 174.5362,-614.1239 180,-626 198.5246,-666.2652 188.4084,-684.3136 216,-719 300.2597,-824.926 332.6486,-890 468,-890 468,-890 468,-890 792,-890 857.7598,-890 875.3098,-881.319 936,-856 947.5848,-851.167 959.4293,-844.57 970.0788,-837.9174"/>
<polygon fill="#ffffff" stroke="#ffffff" stroke-width="2" points="972.202,-840.713 978.7114,-832.3536 968.4098,-834.8292 972.202,-840.713"/>
</g>
<!-- Thor&#45;&gt;Captain America: The First Avenger -->
<g id="edge6" class="edge">
<title>Thor&#45;&gt;Captain America: The First Avenger</title>
<path fill="none" stroke="#ffffff" stroke-width="2.8284" d="M161.6743,-478.7974C167.6622,-489.8538 174.2788,-502.3928 180,-514 199.3663,-553.2904 219.6945,-598.9268 233.793,-631.3816"/>
<polygon fill="#ffffff" stroke="#ffffff" stroke-width="2.8284" points="230.5941,-632.8023 237.7791,-640.5886 237.0179,-630.0211 230.5941,-632.8023"/>
</g>
<!-- Thor&#45;&gt;The Avengers -->
<g id="edge5" class="edge">
<title>Thor&#45;&gt;The Avengers</title>
<path fill="none" stroke="#ffffff" stroke-width="4.4721" d="M180.1535,-451.1844C216.9435,-455.4425 274.0902,-462.0567 314.0645,-466.6834"/>
<polygon fill="#ffffff" stroke="#ffffff" stroke-width="4.4721" points="313.7049,-470.5809 324.0886,-467.8436 314.6048,-462.8066 313.7049,-470.5809"/>
</g>
<!-- Thor: The Dark World -->
<g id="node8" class="node">
<title>Thor: The Dark World</title>
<ellipse fill="#00bfff" stroke="#00bfff" cx="468" cy="-392" rx="36" ry="36"/>
<text text-anchor="middle" x="468" y="-381.2" font-family="Times,serif" font-size="36.00" fill="#ffffff">Thor: The Dark World</text>
</g>
<!-- Thor&#45;&gt;Thor: The Dark World -->
<g id="edge7" class="edge">
<title>Thor&#45;&gt;Thor: The Dark World</title>
<path fill="none" stroke="#ffffff" stroke-width="6" d="M179.6005,-440.9567C238.7395,-430.9177 357.1566,-410.816 422.3515,-399.749"/>
<polygon fill="#ffffff" stroke="#ffffff" stroke-width="6" points="423.3604,-404.9029 432.3407,-398.0533 421.603,-394.551 423.3604,-404.9029"/>
</g>
<!-- Captain America: The First Avenger&#45;&gt;The Avengers -->
<g id="edge49" class="edge">
<title>Captain America: The First Avenger&#45;&gt;The Avengers</title>
<path fill="none" stroke="#ffffff" stroke-width="3.4641" d="M269.1129,-641.9925C287.7558,-607.1235 317.6345,-551.2392 338.0055,-513.1378"/>
<polygon fill="#ffffff" stroke="#ffffff" stroke-width="3.4641" points="341.3387,-514.3267 342.9671,-503.8578 335.1656,-511.0262 341.3387,-514.3267"/>
</g>
<!-- Captain America: The First Avenger&#45;&gt;Captain America: The Winter Soldier -->
<g id="edge51" class="edge">
<title>Captain America: The First Avenger&#45;&gt;Captain America: The Winter Soldier</title>
<path fill="none" stroke="#ffffff" stroke-width="4" d="M287.0344,-682.8676C298.745,-685.6723 311.896,-688.6504 324,-691 436.1684,-712.7741 569.3772,-731.2154 638.019,-740.178"/>
<polygon fill="#ffffff" stroke="#ffffff" stroke-width="4" points="637.7007,-743.666 648.0681,-741.4825 638.6019,-736.7242 637.7007,-743.666"/>
</g>
<!-- Ant&#45;Man -->
<g id="node13" class="node">
<title>Ant&#45;Man</title>
<ellipse fill="#00bfff" stroke="#00bfff" cx="900" cy="-811" rx="36" ry="36"/>
<text text-anchor="middle" x="900" y="-800.2" font-family="Times,serif" font-size="36.00" fill="#ffffff">Ant&#45;Man</text>
</g>
<!-- Captain America: The First Avenger&#45;&gt;Ant&#45;Man -->
<g id="edge50" class="edge">
<title>Captain America: The First Avenger&#45;&gt;Ant&#45;Man</title>
<path fill="none" stroke="#ffffff" stroke-width="2" d="M279.8381,-697.4169C333.4643,-740.0541 456.3951,-826 576,-826 576,-826 576,-826 684,-826 742.8127,-826 810.4171,-820.3972 854.0993,-816.0401"/>
<polygon fill="#ffffff" stroke="#ffffff" stroke-width="2" points="854.5328,-819.5142 864.1271,-815.0197 853.8241,-812.5501 854.5328,-819.5142"/>
</g>
<!-- Avengers: Infinity War -->
<g id="node19" class="node">
<title>Avengers: Infinity War</title>
<ellipse fill="#ffa500" stroke="#ffa500" cx="1332" cy="-421" rx="36" ry="36"/>
<text text-anchor="middle" x="1332" y="-410.2" font-family="Times,serif" font-size="36.00" fill="#ffffff">Avengers: Infinity War</text>
</g>
<!-- Captain America: The First Avenger&#45;&gt;Avengers: Infinity War -->
<g id="edge52" class="edge">
<title>Captain America: The First Avenger&#45;&gt;Avengers: Infinity War</title>
<path fill="none" stroke="#ffffff" stroke-width="2" d="M287.8162,-669.0393C409.6045,-651.9146 818.6832,-592.2911 1152,-519 1200.5407,-508.3267 1216.7028,-514.4024 1260,-490 1275.3632,-481.3413 1289.8994,-468.6492 1301.8345,-456.5043"/>
<polygon fill="#ffffff" stroke="#ffffff" stroke-width="2" points="1304.5627,-458.7142 1308.9138,-449.054 1299.4882,-453.8923 1304.5627,-458.7142"/>
</g>
<!-- The Avengers&#45;&gt;Iron Man 3 -->
<g id="edge11" class="edge">
<title>The Avengers&#45;&gt;Iron Man 3</title>
<path fill="none" stroke="#ffffff" stroke-width="3.4641" d="M394.2258,-484.3593C431.6695,-497.8807 491.7758,-519.5857 532.528,-534.3018"/>
<polygon fill="#ffffff" stroke="#ffffff" stroke-width="3.4641" points="531.34,-537.5939 541.9343,-537.6985 533.7175,-531.01 531.34,-537.5939"/>
</g>
<!-- The Avengers&#45;&gt;Thor: The Dark World -->
<g id="edge13" class="edge">
<title>The Avengers&#45;&gt;Thor: The Dark World</title>
<path fill="none" stroke="#ffffff" stroke-width="4" d="M388.942,-450.5615C401.7743,-441.0561 417.0323,-429.7538 430.7054,-419.6256"/>
<polygon fill="#ffffff" stroke="#ffffff" stroke-width="4" points="433.0258,-422.2625 438.9781,-413.4977 428.8592,-416.6376 433.0258,-422.2625"/>
</g>
<!-- The Avengers&#45;&gt;Captain America: The Winter Soldier -->
<g id="edge8" class="edge">
<title>The Avengers&#45;&gt;Captain America: The Winter Soldier</title>
<path fill="none" stroke="#ffffff" stroke-width="4.4721" d="M387.6241,-495.3611C446.3261,-545.0042 583.4271,-660.9476 648.503,-715.981"/>
<polygon fill="#ffffff" stroke="#ffffff" stroke-width="4.4721" points="646.2834,-719.2286 656.4459,-722.698 651.337,-713.2528 646.2834,-719.2286"/>
</g>
<!-- Guardians of the Galaxy -->
<g id="node10" class="node">
<title>Guardians of the Galaxy</title>
<ellipse fill="#00bfff" stroke="#00bfff" cx="576" cy="-197" rx="36" ry="36"/>
<text text-anchor="middle" x="576" y="-186.2" font-family="Times,serif" font-size="36.00" fill="#ffffff">Guardians of the Galaxy</text>
</g>
<!-- The Avengers&#45;&gt;Guardians of the Galaxy -->
<g id="edge12" class="edge">
<title>The Avengers&#45;&gt;Guardians of the Galaxy</title>
<path fill="none" stroke="#ffffff" stroke-width="2" d="M375.8886,-439.5935C389.3033,-413.5412 409.8276,-376.5455 432,-347 465.3585,-302.5487 510.6734,-257.313 541.4997,-228.3125"/>
<polygon fill="#ffffff" stroke="#ffffff" stroke-width="2" points="544.0892,-230.6831 549.0086,-221.2996 539.3113,-225.5673 544.0892,-230.6831"/>
</g>
<!-- Avengers: Age of Ultron -->
<g id="node12" class="node">
<title>Avengers: Age of Ultron</title>
<ellipse fill="#00bfff" stroke="#00bfff" cx="792" cy="-487" rx="36" ry="36"/>
<text text-anchor="middle" x="792" y="-476.2" font-family="Times,serif" font-size="36.00" fill="#ffffff">Avengers: Age of Ultron</text>
</g>
<!-- The Avengers&#45;&gt;Avengers: Age of Ultron -->
<g id="edge10" class="edge">
<title>The Avengers&#45;&gt;Avengers: Age of Ultron</title>
<path fill="none" stroke="#ffffff" stroke-width="2" d="M396.089,-473.2531C474.3275,-475.9697 659.4649,-482.3981 745.9678,-485.4017"/>
<polygon fill="#ffffff" stroke="#ffffff" stroke-width="2" points="745.8988,-488.9013 756.0142,-485.7505 746.1417,-481.9055 745.8988,-488.9013"/>
</g>
<!-- Captain Marvel -->
<g id="node21" class="node">
<title>Captain Marvel</title>
<ellipse fill="#32cd32" stroke="#32cd32" cx="1440" cy="-224" rx="36" ry="36"/>
<text text-anchor="middle" x="1440" y="-213.2" font-family="Times,serif" font-size="36.00" fill="#ffffff">Captain Marvel</text>
</g>
<!-- The Avengers&#45;&gt;Captain Marvel -->
<g id="edge9" class="edge">
<title>The Avengers&#45;&gt;Captain Marvel</title>
<path fill="none" stroke="#ffffff" stroke-width="2" d="M368.1117,-436.5233C394.2268,-326.7543 480.025,0 576,0 576,0 576,0 1224,0 1294.218,0 1318.3187,-15.3781 1368,-65 1399.417,-96.3794 1418.4581,-143.9311 1428.9976,-178.8596"/>
<polygon fill="#ffffff" stroke="#ffffff" stroke-width="2" points="1425.7338,-180.1724 1431.874,-188.8065 1432.4583,-178.2278 1425.7338,-180.1724"/>
</g>
<!-- Iron Man 3&#45;&gt;Avengers: Age of Ultron -->
<g id="edge15" class="edge">
<title>Iron Man 3&#45;&gt;Avengers: Age of Ultron</title>
<path fill="none" stroke="#ffffff" stroke-width="3.4641" d="M610.7041,-539.878C647.9418,-529.017 707.1907,-511.736 747.7526,-499.9055"/>
<polygon fill="#ffffff" stroke="#ffffff" stroke-width="3.4641" points="748.762,-503.257 757.382,-497.0969 746.802,-496.537 748.762,-503.257"/>
</g>
<!-- Spider&#45;Man: Homecoming -->
<g id="node16" class="node">
<title>Spider&#45;Man: Homecoming</title>
<ellipse fill="#ffa500" stroke="#ffa500" cx="1224" cy="-803" rx="36" ry="36"/>
<text text-anchor="middle" x="1224" y="-792.2" font-family="Times,serif" font-size="36.00" fill="#ffffff">Spider&#45;Man: Homecoming</text>
</g>
<!-- Iron Man 3&#45;&gt;Spider&#45;Man: Homecoming -->
<g id="edge16" class="edge">
<title>Iron Man 3&#45;&gt;Spider&#45;Man: Homecoming</title>
<path fill="none" stroke="#ffffff" stroke-width="2.8284" d="M609.9269,-563.2462C718.9515,-605.8129 1060.2665,-739.0732 1181.0871,-786.2454"/>
<polygon fill="#ffffff" stroke="#ffffff" stroke-width="2.8284" points="1179.8208,-789.5083 1190.4089,-789.885 1182.3667,-782.9876 1179.8208,-789.5083"/>
</g>
<!-- Thor: The Dark World&#45;&gt;Guardians of the Galaxy -->
<g id="edge46" class="edge">
<title>Thor: The Dark World&#45;&gt;Guardians of the Galaxy</title>
<path fill="none" stroke="#ffffff" stroke-width="2.8284" d="M485.5924,-360.2359C504.1067,-326.8074 533.3087,-274.0815 553.4905,-237.6422"/>
<polygon fill="#ffffff" stroke="#ffffff" stroke-width="2.8284" points="556.6318,-239.1942 558.4151,-228.7505 550.5083,-235.8027 556.6318,-239.1942"/>
</g>
<!-- Thor: The Dark World&#45;&gt;Avengers: Age of Ultron -->
<g id="edge47" class="edge">
<title>Thor: The Dark World&#45;&gt;Avengers: Age of Ultron</title>
<path fill="none" stroke="#ffffff" stroke-width="4" d="M503.5214,-399.4842C552.7375,-410.2318 644.1791,-431.5694 720,-457 729.7254,-460.2619 739.9993,-464.2201 749.6457,-468.177"/>
<polygon fill="#ffffff" stroke="#ffffff" stroke-width="4" points="748.4633,-471.4762 759.0393,-472.1075 751.1653,-465.0187 748.4633,-471.4762"/>
</g>
<!-- Thor: Ragnarok -->
<g id="node18" class="node">
<title>Thor: Ragnarok</title>
<ellipse fill="#ffa500" stroke="#ffa500" cx="1224" cy="-338" rx="36" ry="36"/>
<text text-anchor="middle" x="1224" y="-327.2" font-family="Times,serif" font-size="36.00" fill="#ffffff">Thor: Ragnarok</text>
</g>
<!-- Thor: The Dark World&#45;&gt;Thor: Ragnarok -->
<g id="edge48" class="edge">
<title>Thor: The Dark World&#45;&gt;Thor: Ragnarok</title>
<path fill="none" stroke="#ffffff" stroke-width="4.4721" d="M494.1896,-366.8297C532.5617,-332.7132 607.8077,-276 684,-276 684,-276 684,-276 792,-276 934.4876,-276 1100.7544,-309.4572 1178.9733,-327.2165"/>
<polygon fill="#ffffff" stroke="#ffffff" stroke-width="4.4721" points="1178.3445,-331.0869 1188.9663,-329.5092 1180.0946,-323.4589 1178.3445,-331.0869"/>
</g>
<!-- Captain America: The Winter Soldier&#45;&gt;Avengers: Age of Ultron -->
<g id="edge35" class="edge">
<title>Captain America: The Winter Soldier&#45;&gt;Avengers: Age of Ultron</title>
<path fill="none" stroke="#ffffff" stroke-width="6" d="M697.898,-712.6705C717.3263,-666.0786 752.6206,-581.4377 774.0265,-530.1031"/>
<polygon fill="#ffffff" stroke="#ffffff" stroke-width="6" points="778.9811,-531.8621 777.9843,-520.6118 769.2899,-527.8209 778.9811,-531.8621"/>
</g>
<!-- Captain America: The Winter Soldier&#45;&gt;Ant&#45;Man -->
<g id="edge34" class="edge">
<title>Captain America: The Winter Soldier&#45;&gt;Ant&#45;Man</title>
<path fill="none" stroke="#ffffff" stroke-width="2" d="M718.7041,-756.4434C755.9418,-767.6491 815.1907,-785.4787 855.7526,-797.6848"/>
<polygon fill="#ffffff" stroke="#ffffff" stroke-width="2" points="854.7976,-801.0524 865.382,-800.5825 856.8148,-794.3493 854.7976,-801.0524"/>
</g>
<!-- Captain America: The Winter Soldier&#45;&gt;Captain America: Civil War -->
<g id="edge33" class="edge">
<title>Captain America: The Winter Soldier&#45;&gt;Captain America: Civil War</title>
<path fill="none" stroke="#ffffff" stroke-width="2.8284" d="M720.1089,-743.5804C770.0068,-741.4078 862.2356,-741.6453 936,-766 948.029,-769.9716 960.0956,-776.3478 970.819,-783.0666"/>
<polygon fill="#ffffff" stroke="#ffffff" stroke-width="2.8284" points="969.1985,-786.1893 979.4803,-788.7457 973.0368,-780.3354 969.1985,-786.1893"/>
</g>
<!-- Guardians of the Galaxy Vol. 2 -->
<g id="node11" class="node">
<title>Guardians of the Galaxy Vol. 2</title>
<ellipse fill="#ffa500" stroke="#ffa500" cx="684" cy="-197" rx="36" ry="36"/>
<text text-anchor="middle" x="684" y="-186.2" font-family="Times,serif" font-size="36.00" fill="#ffffff">Guardians of the Galaxy Vol. 2</text>
</g>
<!-- Guardians of the Galaxy&#45;&gt;Guardians of the Galaxy Vol. 2 -->
<g id="edge61" class="edge">
<title>Guardians of the Galaxy&#45;&gt;Guardians of the Galaxy Vol. 2</title>
<path fill="none" stroke="#ffffff" stroke-width="5.6569" d="M612.2629,-197C620.3661,-197 629.0689,-197 637.5209,-197"/>
<polygon fill="#ffffff" stroke="#ffffff" stroke-width="5.6569" points="637.649,-201.9498 647.649,-197 637.6489,-192.0504 637.649,-201.9498"/>
</g>
<!-- Guardians of the Galaxy&#45;&gt;Avengers: Age of Ultron -->
<g id="edge63" class="edge">
<title>Guardians of the Galaxy&#45;&gt;Avengers: Age of Ultron</title>
<path fill="none" stroke="#ffffff" stroke-width="2" d="M597.6999,-226.1341C637.1611,-279.1144 720.6094,-391.1516 764.1847,-449.6554"/>
<polygon fill="#ffffff" stroke="#ffffff" stroke-width="2" points="761.5341,-451.9561 770.3146,-457.8853 767.1481,-447.7747 761.5341,-451.9561"/>
</g>
<!-- Guardians of the Galaxy&#45;&gt;Avengers: Infinity War -->
<g id="edge64" class="edge">
<title>Guardians of the Galaxy&#45;&gt;Avengers: Infinity War</title>
<path fill="none" stroke="#ffffff" stroke-width="2" d="M603.6728,-173.8848C642.9334,-143.517 718.2571,-94 792,-94 792,-94 792,-94 1116,-94 1249.3194,-94 1305.0957,-285.5802 1323.9274,-375.4608"/>
<polygon fill="#ffffff" stroke="#ffffff" stroke-width="2" points="1320.5221,-376.2794 1325.9424,-385.3828 1327.382,-374.8862 1320.5221,-376.2794"/>
</g>
<!-- Guardians of the Galaxy&#45;&gt;Captain Marvel -->
<g id="edge62" class="edge">
<title>Guardians of the Galaxy&#45;&gt;Captain Marvel</title>
<path fill="none" stroke="#ffffff" stroke-width="2" d="M594.3837,-165.7996C607.2913,-146.1418 626.1171,-121.4574 648,-105 703.1422,-63.5292 723.0037,-47 792,-47 792,-47 792,-47 1224,-47 1310.1105,-47 1380.7072,-132.2 1415.8673,-184.3768"/>
<polygon fill="#ffffff" stroke="#ffffff" stroke-width="2" points="1412.9747,-186.348 1421.4065,-192.7634 1418.8157,-182.4902 1412.9747,-186.348"/>
</g>
<!-- Guardians of the Galaxy Vol. 2&#45;&gt;Thor: Ragnarok -->
<g id="edge31" class="edge">
<title>Guardians of the Galaxy Vol. 2&#45;&gt;Thor: Ragnarok</title>
<path fill="none" stroke="#ffffff" stroke-width="2" d="M720.2539,-195.2114C801.9528,-192.6815 1004.7939,-194.8949 1152,-268 1168.3158,-276.1027 1183.3079,-289.2532 1195.3385,-301.9807"/>
<polygon fill="#ffffff" stroke="#ffffff" stroke-width="2" points="1192.7514,-304.3381 1202.0673,-309.3843 1197.9316,-299.63 1192.7514,-304.3381"/>
</g>
<!-- Guardians of the Galaxy Vol. 2&#45;&gt;Avengers: Infinity War -->
<g id="edge30" class="edge">
<title>Guardians of the Galaxy Vol. 2&#45;&gt;Avengers: Infinity War</title>
<path fill="none" stroke="#ffffff" stroke-width="5.2915" d="M719.8234,-193.3948C800.2224,-186.6891 999.8866,-177.8217 1152,-236 1202.6938,-255.3887 1221.1116,-255.1388 1260,-293 1284.5126,-316.8651 1303.1092,-350.8774 1315.2572,-377.8434"/>
<polygon fill="#ffffff" stroke="#ffffff" stroke-width="5.2915" points="1311.0375,-379.7501 1319.2843,-387.0596 1319.5229,-376.0423 1311.0375,-379.7501"/>
</g>
<!-- Avengers: Age of Ultron&#45;&gt;Ant&#45;Man -->
<g id="edge40" class="edge">
<title>Avengers: Age of Ultron&#45;&gt;Ant&#45;Man</title>
<path fill="none" stroke="#ffffff" stroke-width="3.4641" d="M803.4556,-521.3669C823.1808,-580.5424 863.5314,-701.5942 885.2992,-766.8975"/>
<polygon fill="#ffffff" stroke="#ffffff" stroke-width="3.4641" points="882.0165,-768.1178 888.4993,-776.4978 888.6573,-765.9041 882.0165,-768.1178"/>
</g>
<!-- Avengers: Age of Ultron&#45;&gt;Captain America: Civil War -->
<g id="edge39" class="edge">
<title>Avengers: Age of Ultron&#45;&gt;Captain America: Civil War</title>
<path fill="none" stroke="#ffffff" stroke-width="4.899" d="M812.1268,-517.1902C851.5173,-576.276 938.735,-707.1025 982.2561,-772.3842"/>
<polygon fill="#ffffff" stroke="#ffffff" stroke-width="4.899" points="978.7319,-774.8257 987.8456,-780.7684 985.8652,-770.0701 978.7319,-774.8257"/>
</g>
<!-- Black Panther -->
<g id="node15" class="node">
<title>Black Panther</title>
<ellipse fill="#ffa500" stroke="#ffa500" cx="1116" cy="-662" rx="36" ry="36"/>
<text text-anchor="middle" x="1116" y="-651.2" font-family="Times,serif" font-size="36.00" fill="#ffffff">Black Panther</text>
</g>
<!-- Avengers: Age of Ultron&#45;&gt;Black Panther -->
<g id="edge42" class="edge">
<title>Avengers: Age of Ultron&#45;&gt;Black Panther</title>
<path fill="none" stroke="#ffffff" stroke-width="2" d="M823.9531,-504.2586C883.1454,-536.2298 1009.7574,-604.6159 1075.1048,-639.9115"/>
<polygon fill="#ffffff" stroke="#ffffff" stroke-width="2" points="1073.8244,-643.1978 1084.2863,-644.8707 1077.151,-637.0388 1073.8244,-643.1978"/>
</g>
<!-- Doctor Strange -->
<g id="node17" class="node">
<title>Doctor Strange</title>
<ellipse fill="#ffa500" stroke="#ffa500" cx="1116" cy="-456" rx="36" ry="36"/>
<text text-anchor="middle" x="1116" y="-445.2" font-family="Times,serif" font-size="36.00" fill="#ffffff">Doctor Strange</text>
</g>
<!-- Avengers: Age of Ultron&#45;&gt;Doctor Strange -->
<g id="edge38" class="edge">
<title>Avengers: Age of Ultron&#45;&gt;Doctor Strange</title>
<path fill="none" stroke="#ffffff" stroke-width="2" d="M827.9116,-483.564C887.0284,-477.9078 1004.7705,-466.6423 1069.9372,-460.4072"/>
<polygon fill="#ffffff" stroke="#ffffff" stroke-width="2" points="1070.3064,-463.888 1079.9275,-459.4514 1069.6396,-456.9198 1070.3064,-463.888"/>
</g>
<!-- Avengers: Age of Ultron&#45;&gt;Thor: Ragnarok -->
<g id="edge44" class="edge">
<title>Avengers: Age of Ultron&#45;&gt;Thor: Ragnarok</title>
<path fill="none" stroke="#ffffff" stroke-width="2.8284" d="M823.6482,-468.9659C875.4587,-440.3172 982.3983,-384.8121 1080,-357 1111.9662,-347.8911 1149.1906,-343.1252 1177.7836,-340.6449"/>
<polygon fill="#ffffff" stroke="#ffffff" stroke-width="2.8284" points="1178.2146,-344.1216 1187.9016,-339.8307 1177.6531,-337.1442 1178.2146,-344.1216"/>
</g>
<!-- Avengers: Age of Ultron&#45;&gt;Avengers: Infinity War -->
<g id="edge43" class="edge">
<title>Avengers: Age of Ultron&#45;&gt;Avengers: Infinity War</title>
<path fill="none" stroke="#ffffff" stroke-width="3.4641" d="M827.4941,-494.092C892.6335,-505.8528 1035.2902,-525.7675 1152,-501 1202.6687,-490.2474 1256.3911,-464.2136 1291.8166,-444.7453"/>
<polygon fill="#ffffff" stroke="#ffffff" stroke-width="3.4641" points="1293.8331,-447.6282 1300.8601,-439.699 1290.4221,-441.5155 1293.8331,-447.6282"/>
</g>
<!-- Avengers: Age of Ultron&#45;&gt;Captain Marvel -->
<g id="edge41" class="edge">
<title>Avengers: Age of Ultron&#45;&gt;Captain Marvel</title>
<path fill="none" stroke="#ffffff" stroke-width="2" d="M813.8776,-458.1464C827.0381,-442.3095 844.9071,-423.2555 864,-410 1036.5419,-290.2101 1290.801,-244.0894 1393.977,-229.6259"/>
<polygon fill="#ffffff" stroke="#ffffff" stroke-width="2" points="1394.6299,-233.0692 1404.0632,-228.246 1393.6811,-226.1338 1394.6299,-233.0692"/>
</g>
<!-- Ant&#45;Man&#45;&gt;Captain America: Civil War -->
<g id="edge54" class="edge">
<title>Ant&#45;Man&#45;&gt;Captain America: Civil War</title>
<path fill="none" stroke="#ffffff" stroke-width="4.4721" d="M936.2629,-811C944.3661,-811 953.0689,-811 961.5209,-811"/>
<polygon fill="#ffffff" stroke="#ffffff" stroke-width="4.4721" points="961.649,-814.9132 971.649,-811 961.649,-807.087 961.649,-814.9132"/>
</g>
<!-- Ant&#45;Man and the Wasp -->
<g id="node20" class="node">
<title>Ant&#45;Man and the Wasp</title>
<ellipse fill="#ffa500" stroke="#ffa500" cx="1332" cy="-953" rx="36" ry="36"/>
<text text-anchor="middle" x="1332" y="-942.2" font-family="Times,serif" font-size="36.00" fill="#ffffff">Ant&#45;Man and the Wasp</text>
</g>
<!-- Ant&#45;Man&#45;&gt;Ant&#45;Man and the Wasp -->
<g id="edge53" class="edge">
<title>Ant&#45;Man&#45;&gt;Ant&#45;Man and the Wasp</title>
<path fill="none" stroke="#ffffff" stroke-width="3.4641" d="M928.789,-833.0254C963.1618,-858.4383 1023.1584,-900.0488 1080,-926 1125.5409,-946.7918 1138.4557,-950.8145 1188,-958 1220.6316,-962.7326 1257.8361,-961.2661 1286.2533,-958.7295"/>
<polygon fill="#ffffff" stroke="#ffffff" stroke-width="3.4641" points="1286.6847,-962.2042 1296.3005,-957.7561 1286.0096,-955.2368 1286.6847,-962.2042"/>
</g>
<!-- Captain America: Civil War&#45;&gt;Black Panther -->
<g id="edge58" class="edge">
<title>Captain America: Civil War&#45;&gt;Black Panther</title>
<path fill="none" stroke="#ffffff" stroke-width="4" d="M1029.3373,-781.5624C1046.3482,-758.0936 1070.286,-725.0684 1088.6942,-699.6719"/>
<polygon fill="#ffffff" stroke="#ffffff" stroke-width="4" points="1091.672,-701.5273 1094.707,-691.3765 1086.0043,-697.4191 1091.672,-701.5273"/>
</g>
<!-- Captain America: Civil War&#45;&gt;Spider&#45;Man: Homecoming -->
<g id="edge56" class="edge">
<title>Captain America: Civil War&#45;&gt;Spider&#45;Man: Homecoming</title>
<path fill="none" stroke="#ffffff" stroke-width="4" d="M1044.1535,-809.661C1080.833,-808.3025 1137.7471,-806.1946 1177.7039,-804.7147"/>
<polygon fill="#ffffff" stroke="#ffffff" stroke-width="4" points="1177.8649,-808.2112 1187.7285,-804.3434 1177.6058,-801.216 1177.8649,-808.2112"/>
</g>
<!-- Captain America: Civil War&#45;&gt;Thor: Ragnarok -->
<g id="edge60" class="edge">
<title>Captain America: Civil War&#45;&gt;Thor: Ragnarok</title>
<path fill="none" stroke="#ffffff" stroke-width="2" d="M1010.4099,-775.0193C1016.8713,-687.9203 1037.0801,-468.6638 1080,-411 1104.0388,-378.7033 1146.4368,-359.6672 1179.0234,-349.1787"/>
<polygon fill="#ffffff" stroke="#ffffff" stroke-width="2" points="1180.2504,-352.4635 1188.7902,-346.1928 1178.2039,-345.7694 1180.2504,-352.4635"/>
</g>
<!-- Captain America: Civil War&#45;&gt;Avengers: Infinity War -->
<g id="edge59" class="edge">
<title>Captain America: Civil War&#45;&gt;Avengers: Infinity War</title>
<path fill="none" stroke="#ffffff" stroke-width="4.4721" d="M1040.8463,-796.255C1094.3629,-770.6139 1200.3739,-712.8153 1260,-633 1297.3077,-583.06 1316.1282,-512.4927 1324.9831,-466.7404"/>
<polygon fill="#ffffff" stroke="#ffffff" stroke-width="4.4721" points="1328.8497,-467.3509 1326.8249,-456.8052 1321.1546,-465.9244 1328.8497,-467.3509"/>
</g>
<!-- Captain America: Civil War&#45;&gt;Ant&#45;Man and the Wasp -->
<g id="edge55" class="edge">
<title>Captain America: Civil War&#45;&gt;Ant&#45;Man and the Wasp</title>
<path fill="none" stroke="#ffffff" stroke-width="2" d="M1026.5657,-842.1648C1039.3009,-860.8599 1057.8702,-883.5469 1080,-897 1144.2655,-936.0682 1232.5619,-947.98 1285.7688,-951.5507"/>
<polygon fill="#ffffff" stroke="#ffffff" stroke-width="2" points="1285.7333,-955.0547 1295.9247,-952.1592 1286.152,-948.0673 1285.7333,-955.0547"/>
</g>
<!-- Avengers: Endgame -->
<g id="node22" class="node">
<title>Avengers: Endgame</title>
<ellipse fill="#32cd32" stroke="#32cd32" cx="1548" cy="-501" rx="36" ry="36"/>
<text text-anchor="middle" x="1548" y="-490.2" font-family="Times,serif" font-size="36.00" fill="#ffffff">Avengers: Endgame</text>
</g>
<!-- Captain America: Civil War&#45;&gt;Avengers: Endgame -->
<g id="edge57" class="edge">
<title>Captain America: Civil War&#45;&gt;Avengers: Endgame</title>
<path fill="none" stroke="#ffffff" stroke-width="2.8284" d="M1040.4987,-826.5391C1089.9706,-847.8684 1186.2089,-880.12 1260,-848 1389.1755,-791.772 1396.3077,-732.1768 1476,-616 1496.6888,-585.8395 1491.7529,-572.4587 1512,-542 1513.4224,-539.8602 1514.9476,-537.7136 1516.5377,-535.5855"/>
<polygon fill="#ffffff" stroke="#ffffff" stroke-width="2.8284" points="1519.4553,-537.5386 1522.9132,-527.524 1513.9648,-533.1964 1519.4553,-537.5386"/>
</g>
<!-- Black Panther&#45;&gt;Avengers: Infinity War -->
<g id="edge45" class="edge">
<title>Black Panther&#45;&gt;Avengers: Infinity War</title>
<path fill="none" stroke="#ffffff" stroke-width="4.4721" d="M1151.1509,-654.0892C1183.315,-645.1928 1230.2882,-627.7915 1260,-597 1294.8267,-560.9076 1313.6748,-505.6687 1323.2439,-466.7197"/>
<polygon fill="#ffffff" stroke="#ffffff" stroke-width="4.4721" points="1327.1217,-467.3224 1325.5917,-456.6936 1319.5016,-465.5379 1327.1217,-467.3224"/>
</g>
<!-- Spider&#45;Man: Homecoming&#45;&gt;Avengers: Infinity War -->
<g id="edge4" class="edge">
<title>Spider&#45;Man: Homecoming&#45;&gt;Avengers: Infinity War</title>
<path fill="none" stroke="#ffffff" stroke-width="4.4721" d="M1243.2482,-772.4533C1249.2896,-761.8539 1255.5386,-749.6905 1260,-738 1295.4533,-645.0989 1316.2106,-529.9177 1325.7072,-467.1306"/>
<polygon fill="#ffffff" stroke="#ffffff" stroke-width="4.4721" points="1329.5919,-467.6106 1327.1891,-457.1445 1321.8504,-466.4618 1329.5919,-467.6106"/>
</g>
<!-- Spider&#45;Man: Homecoming&#45;&gt;Avengers: Endgame -->
<g id="edge2" class="edge">
<title>Spider&#45;Man: Homecoming&#45;&gt;Avengers: Endgame</title>
<path fill="none" stroke="#ffffff" stroke-width="2" d="M1250.5143,-778.2861C1309.0422,-723.7323 1449.2205,-593.0723 1514.0516,-532.6433"/>
<polygon fill="#ffffff" stroke="#ffffff" stroke-width="2" points="1516.6451,-535.0105 1521.5738,-525.6319 1511.8722,-529.89 1516.6451,-535.0105"/>
</g>
<!-- Spider&#45;Man: Far From Home -->
<g id="node23" class="node">
<title>Spider&#45;Man: Far From Home</title>
<ellipse fill="#32cd32" stroke="#32cd32" cx="1656" cy="-454" rx="36" ry="36"/>
<text text-anchor="middle" x="1656" y="-443.2" font-family="Times,serif" font-size="36.00" fill="#ffffff">Spider&#45;Man: Far From Home</text>
</g>
<!-- Spider&#45;Man: Homecoming&#45;&gt;Spider&#45;Man: Far From Home -->
<g id="edge3" class="edge">
<title>Spider&#45;Man: Homecoming&#45;&gt;Spider&#45;Man: Far From Home</title>
<path fill="none" stroke="#ffffff" stroke-width="2" d="M1255.5045,-785.3844C1321.5056,-747.4939 1477.022,-652.9647 1584,-546 1600.393,-529.609 1616.5003,-509.5153 1629.3092,-492.2924"/>
<polygon fill="#ffffff" stroke="#ffffff" stroke-width="2" points="1632.2279,-494.2308 1635.319,-484.097 1626.583,-490.0913 1632.2279,-494.2308"/>
</g>
<!-- Doctor Strange&#45;&gt;Thor: Ragnarok -->
<g id="edge22" class="edge">
<title>Doctor Strange&#45;&gt;Thor: Ragnarok</title>
<path fill="none" stroke="#ffffff" stroke-width="2.8284" d="M1140.5069,-429.224C1155.9724,-412.3265 1176.0936,-390.3422 1192.7081,-372.1893"/>
<polygon fill="#ffffff" stroke="#ffffff" stroke-width="2.8284" points="1195.4204,-374.4099 1199.5901,-364.6701 1190.2566,-369.6838 1195.4204,-374.4099"/>
</g>
<!-- Doctor Strange&#45;&gt;Avengers: Infinity War -->
<g id="edge21" class="edge">
<title>Doctor Strange&#45;&gt;Avengers: Infinity War</title>
<path fill="none" stroke="#ffffff" stroke-width="2" d="M1151.668,-450.2205C1188.4845,-444.2548 1246.0558,-434.9262 1286.2131,-428.4192"/>
<polygon fill="#ffffff" stroke="#ffffff" stroke-width="2" points="1286.9676,-431.8427 1296.279,-426.7881 1285.8479,-424.9328 1286.9676,-431.8427"/>
</g>
<!-- Doctor Strange&#45;&gt;Avengers: Endgame -->
<g id="edge20" class="edge">
<title>Doctor Strange&#45;&gt;Avengers: Endgame</title>
<path fill="none" stroke="#ffffff" stroke-width="2" d="M1152.089,-459.7593C1230.3275,-467.9091 1415.4649,-487.1943 1501.9678,-496.205"/>
<polygon fill="#ffffff" stroke="#ffffff" stroke-width="2" points="1501.7054,-499.6965 1512.0142,-497.2515 1502.4307,-492.7342 1501.7054,-499.6965"/>
</g>
<!-- Thor: Ragnarok&#45;&gt;Avengers: Infinity War -->
<g id="edge68" class="edge">
<title>Thor: Ragnarok&#45;&gt;Avengers: Infinity War</title>
<path fill="none" stroke="#ffffff" stroke-width="4.899" d="M1252.6585,-360.0246C1265.7182,-370.0612 1281.3353,-382.0633 1295.2464,-392.7542"/>
<polygon fill="#ffffff" stroke="#ffffff" stroke-width="4.899" points="1292.6665,-396.1778 1303.2076,-398.8725 1297.8907,-389.3801 1292.6665,-396.1778"/>
</g>
<!-- Avengers: Infinity War&#45;&gt;Captain Marvel -->
<g id="edge67" class="edge">
<title>Avengers: Infinity War&#45;&gt;Captain Marvel</title>
<path fill="none" stroke="#ffffff" stroke-width="2" d="M1349.3521,-389.3485C1367.9315,-355.4583 1397.4702,-301.5776 1417.7476,-264.5901"/>
<polygon fill="#ffffff" stroke="#ffffff" stroke-width="2" points="1420.9528,-266.0242 1422.691,-255.5729 1414.8147,-262.6591 1420.9528,-266.0242"/>
</g>
<!-- Avengers: Infinity War&#45;&gt;Avengers: Endgame -->
<g id="edge65" class="edge">
<title>Avengers: Infinity War&#45;&gt;Avengers: Endgame</title>
<path fill="none" stroke="#ffffff" stroke-width="8.9443" d="M1366.2258,-433.6762C1403.6695,-447.5443 1463.7758,-469.8058 1504.528,-484.8992"/>
<polygon fill="#ffffff" stroke="#ffffff" stroke-width="8.9443" points="1501.8386,-492.2489 1513.9343,-488.3831 1507.275,-477.5708 1501.8386,-492.2489"/>
</g>
<!-- Avengers: Infinity War&#45;&gt;Spider&#45;Man: Far From Home -->
<g id="edge66" class="edge">
<title>Avengers: Infinity War&#45;&gt;Spider&#45;Man: Far From Home</title>
<path fill="none" stroke="#ffffff" stroke-width="2.8284" d="M1367.9116,-424.6577C1427.0284,-430.6788 1544.7705,-442.6711 1609.9372,-449.3084"/>
<polygon fill="#ffffff" stroke="#ffffff" stroke-width="2.8284" points="1609.6243,-452.7946 1619.9275,-450.326 1610.3337,-445.8306 1609.6243,-452.7946"/>
</g>
<!-- Ant&#45;Man and the Wasp&#45;&gt;Avengers: Endgame -->
<g id="edge1" class="edge">
<title>Ant&#45;Man and the Wasp&#45;&gt;Avengers: Endgame</title>
<path fill="none" stroke="#ffffff" stroke-width="3.4641" d="M1364.3613,-936.722C1397.7217,-918.2009 1448.612,-884.7607 1476,-841 1506.4432,-792.3579 1531.3957,-628.2982 1542.2103,-547.1866"/>
<polygon fill="#ffffff" stroke="#ffffff" stroke-width="3.4641" points="1545.7449,-547.1523 1543.5806,-536.7809 1538.8048,-546.2383 1545.7449,-547.1523"/>
</g>
<!-- Captain Marvel&#45;&gt;Avengers: Endgame -->
<g id="edge36" class="edge">
<title>Captain Marvel&#45;&gt;Avengers: Endgame</title>
<path fill="none" stroke="#ffffff" stroke-width="2.8284" d="M1453.1349,-257.6887C1472.7034,-307.8783 1509.5138,-402.29 1531.0758,-457.5925"/>
<polygon fill="#ffffff" stroke="#ffffff" stroke-width="2.8284" points="1527.8941,-459.0674 1534.7877,-467.1129 1534.416,-456.5246 1527.8941,-459.0674"/>
</g>
<!-- Captain Marvel&#45;&gt;Spider&#45;Man: Far From Home -->
<g id="edge37" class="edge">
<title>Captain Marvel&#45;&gt;Spider&#45;Man: Far From Home</title>
<path fill="none" stroke="#ffffff" stroke-width="2" d="M1464.7779,-250.3839C1504.1414,-292.2987 1580.9301,-374.0645 1624.2651,-420.2082"/>
<polygon fill="#ffffff" stroke="#ffffff" stroke-width="2" points="1621.7822,-422.677 1631.1792,-427.5705 1626.8848,-417.885 1621.7822,-422.677"/>
</g>
<!-- Avengers: Endgame&#45;&gt;Spider&#45;Man: Far From Home -->
<g id="edge32" class="edge">
<title>Avengers: Endgame&#45;&gt;Spider&#45;Man: Far From Home</title>
<path fill="none" stroke="#ffffff" stroke-width="2.8284" d="M1581.2848,-486.5149C1591.4473,-482.0924 1602.7636,-477.1677 1613.4524,-472.5161"/>
<polygon fill="#ffffff" stroke="#ffffff" stroke-width="2.8284" points="1614.8665,-475.7178 1622.6392,-468.5181 1612.0732,-469.2993 1614.8665,-475.7178"/>
</g>
</g>
</svg>
