<?xml version="1.0" encoding="UTF-8" standalone="no"?>
<!DOCTYPE svg PUBLIC "-//W3C//DTD SVG 1.1//EN"
 "http://www.w3.org/Graphics/SVG/1.1/DTD/svg11.dtd">
<!-- Generated by graphviz version 2.38.0 (20140413.2041)
 -->
<!-- Title: marvel Pages: 1 -->
<svg width="1167pt" height="1052pt"
 viewBox="0.00 0.00 1166.89 1052.00" xmlns="http://www.w3.org/2000/svg" xmlns:xlink="http://www.w3.org/1999/xlink">
<g id="graph0" class="graph" transform="scale(1 1) rotate(0) translate(4 1048)">
<title>marvel</title>
<polygon fill="white" stroke="none" points="-4,4 -4,-1048 1162.89,-1048 1162.89,4 -4,4"/>
<!-- Thor -->
<g id="node1" class="node"><title>Thor</title>
<ellipse fill="none" stroke="black" cx="901.892" cy="-810" rx="27.8951" ry="18"/>
<text text-anchor="middle" x="901.892" y="-806.3" font-family="Times,serif" font-size="14.00">Thor</text>
</g>
<!-- The Avengers -->
<g id="node2" class="node"><title>The Avengers</title>
<ellipse fill="none" stroke="black" cx="962.892" cy="-666" rx="60.3893" ry="18"/>
<text text-anchor="middle" x="962.892" y="-662.3" font-family="Times,serif" font-size="14.00">The Avengers</text>
</g>
<!-- Thor&#45;&gt;The Avengers -->
<g id="edge1" class="edge"><title>Thor&#45;&gt;The Avengers</title>
<path fill="none" stroke="black" stroke-width="3" d="M916.012,-793.888C924.673,-783.848 935.324,-769.982 941.892,-756 951.145,-736.3 956.51,-712.176 959.497,-694.016"/>
<polygon fill="black" stroke="black" stroke-width="3" points="962.964,-694.501 960.993,-684.091 956.042,-693.458 962.964,-694.501"/>
</g>
<!-- Captain America: The First Avenger -->
<g id="node3" class="node"><title>Captain America: The First Avenger</title>
<ellipse fill="none" stroke="black" cx="791.892" cy="-738" rx="141.075" ry="18"/>
<text text-anchor="middle" x="791.892" y="-734.3" font-family="Times,serif" font-size="14.00">Captain America: The First Avenger</text>
</g>
<!-- Thor&#45;&gt;Captain America: The First Avenger -->
<g id="edge2" class="edge"><title>Thor&#45;&gt;Captain America: The First Avenger</title>
<path fill="none" stroke="black" d="M882.731,-796.807C867.321,-787 845.262,-772.963 826.741,-761.177"/>
<polygon fill="black" stroke="black" points="828.564,-758.188 818.248,-755.772 824.806,-764.094 828.564,-758.188"/>
</g>
<!-- Captain Marvel -->
<g id="node4" class="node"><title>Captain Marvel</title>
<ellipse fill="none" stroke="black" cx="672.892" cy="-162" rx="66.0889" ry="18"/>
<text text-anchor="middle" x="672.892" y="-158.3" font-family="Times,serif" font-size="14.00">Captain Marvel</text>
</g>
<!-- Thor&#45;&gt;Captain Marvel -->
<g id="edge3" class="edge"><title>Thor&#45;&gt;Captain Marvel</title>
<path fill="none" stroke="black" d="M927.002,-801.539C991.67,-780.609 1158.89,-714.896 1158.89,-595 1158.89,-595 1158.89,-595 1158.89,-305 1158.89,-219.972 881.343,-182.361 745.735,-169.06"/>
<polygon fill="black" stroke="black" points="745.722,-165.542 735.433,-168.069 745.052,-172.51 745.722,-165.542"/>
</g>
<!-- Thor: The Dark World -->
<g id="node5" class="node"><title>Thor: The Dark World</title>
<ellipse fill="none" stroke="black" cx="536.892" cy="-594" rx="91.784" ry="18"/>
<text text-anchor="middle" x="536.892" y="-590.3" font-family="Times,serif" font-size="14.00">Thor: The Dark World</text>
</g>
<!-- Thor&#45;&gt;Thor: The Dark World -->
<g id="edge4" class="edge"><title>Thor&#45;&gt;Thor: The Dark World</title>
<path fill="none" stroke="black" d="M874.6,-806.12C815.881,-799.501 679.8,-781.768 641.892,-756 592.826,-722.649 561.269,-657.971 546.566,-621.563"/>
<polygon fill="black" stroke="black" points="549.765,-620.134 542.866,-612.093 543.246,-622.682 549.765,-620.134"/>
</g>
<!-- The Avengers&#45;&gt;Thor: The Dark World -->
<g id="edge10" class="edge"><title>The Avengers&#45;&gt;Thor: The Dark World</title>
<path fill="none" stroke="black" stroke-width="2" d="M911.093,-656.636C846.946,-646.26 734.336,-627.98 637.892,-612 630.097,-610.708 621.965,-609.353 613.849,-607.995"/>
<polygon fill="black" stroke="black" stroke-width="2" points="614.42,-604.542 603.979,-606.341 613.263,-611.446 614.42,-604.542"/>
</g>
<!-- Captain America: The Winter Soldier -->
<g id="node10" class="node"><title>Captain America: The Winter Soldier</title>
<ellipse fill="none" stroke="black" cx="791.892" cy="-594" rx="144.874" ry="18"/>
<text text-anchor="middle" x="791.892" y="-590.3" font-family="Times,serif" font-size="14.00">Captain America: The Winter Soldier</text>
</g>
<!-- The Avengers&#45;&gt;Captain America: The Winter Soldier -->
<g id="edge7" class="edge"><title>The Avengers&#45;&gt;Captain America: The Winter Soldier</title>
<path fill="none" stroke="black" stroke-width="3" d="M928.698,-651.003C903.763,-640.795 869.589,-626.806 841.635,-615.363"/>
<polygon fill="black" stroke="black" stroke-width="3" points="842.613,-611.981 832.032,-611.432 839.961,-618.46 842.613,-611.981"/>
</g>
<!-- Iron Man 3 -->
<g id="node11" class="node"><title>Iron Man 3</title>
<ellipse fill="none" stroke="black" cx="1043.89" cy="-594" rx="51.1914" ry="18"/>
<text text-anchor="middle" x="1043.89" y="-590.3" font-family="Times,serif" font-size="14.00">Iron Man 3</text>
</g>
<!-- The Avengers&#45;&gt;Iron Man 3 -->
<g id="edge8" class="edge"><title>The Avengers&#45;&gt;Iron Man 3</title>
<path fill="none" stroke="black" stroke-width="2" d="M981.678,-648.765C992.386,-639.511 1005.97,-627.772 1017.71,-617.626"/>
<polygon fill="black" stroke="black" stroke-width="2" points="1020.21,-620.093 1025.49,-610.906 1015.63,-614.796 1020.21,-620.093"/>
</g>
<!-- Avengers: Age of Ultron -->
<g id="node12" class="node"><title>Avengers: Age of Ultron</title>
<ellipse fill="none" stroke="black" cx="761.892" cy="-522" rx="98.5829" ry="18"/>
<text text-anchor="middle" x="761.892" y="-518.3" font-family="Times,serif" font-size="14.00">Avengers: Age of Ultron</text>
</g>
<!-- The Avengers&#45;&gt;Avengers: Age of Ultron -->
<g id="edge9" class="edge"><title>The Avengers&#45;&gt;Avengers: Age of Ultron</title>
<path fill="none" stroke="black" d="M964.544,-647.955C965.478,-628.136 963.808,-595.64 945.892,-576 924.361,-552.399 893.067,-539.048 862.373,-531.578"/>
<polygon fill="black" stroke="black" points="862.964,-528.124 852.441,-529.354 861.435,-534.955 862.964,-528.124"/>
</g>
<!-- Captain America: The First Avenger&#45;&gt;The Avengers -->
<g id="edge37" class="edge"><title>Captain America: The First Avenger&#45;&gt;The Avengers</title>
<path fill="none" stroke="black" stroke-width="2" d="M831.983,-720.588C858.183,-709.863 892.397,-695.858 919.276,-684.854"/>
<polygon fill="black" stroke="black" stroke-width="2" points="920.89,-687.976 928.818,-680.948 918.238,-681.498 920.89,-687.976"/>
</g>
<!-- Captain America: The First Avenger&#45;&gt;Captain America: The Winter Soldier -->
<g id="edge38" class="edge"><title>Captain America: The First Avenger&#45;&gt;Captain America: The Winter Soldier</title>
<path fill="none" stroke="black" d="M791.892,-719.871C791.892,-695.67 791.892,-651.211 791.892,-622.393"/>
<polygon fill="black" stroke="black" points="795.392,-622.189 791.892,-612.189 788.392,-622.189 795.392,-622.189"/>
</g>
<!-- Avengers 4 -->
<g id="node9" class="node"><title>Avengers 4</title>
<ellipse fill="none" stroke="black" cx="456.892" cy="-90" rx="51.1914" ry="18"/>
<text text-anchor="middle" x="456.892" y="-86.3" font-family="Times,serif" font-size="14.00">Avengers 4</text>
</g>
<!-- Captain Marvel&#45;&gt;Avengers 4 -->
<g id="edge26" class="edge"><title>Captain Marvel&#45;&gt;Avengers 4</title>
<path fill="none" stroke="black" d="M632.01,-147.751C595.296,-135.853 541.439,-118.4 503.16,-105.994"/>
<polygon fill="black" stroke="black" points="503.886,-102.551 493.294,-102.797 501.728,-109.21 503.886,-102.551"/>
</g>
<!-- Spider&#45;Man: Far From Home -->
<g id="node21" class="node"><title>Spider&#45;Man: Far From Home</title>
<ellipse fill="none" stroke="black" cx="672.892" cy="-18" rx="116.18" ry="18"/>
<text text-anchor="middle" x="672.892" y="-14.3" font-family="Times,serif" font-size="14.00">Spider&#45;Man: Far From Home</text>
</g>
<!-- Captain Marvel&#45;&gt;Spider&#45;Man: Far From Home -->
<g id="edge25" class="edge"><title>Captain Marvel&#45;&gt;Spider&#45;Man: Far From Home</title>
<path fill="none" stroke="black" d="M672.892,-143.871C672.892,-119.67 672.892,-75.2108 672.892,-46.3932"/>
<polygon fill="black" stroke="black" points="676.392,-46.1892 672.892,-36.1893 669.392,-46.1893 676.392,-46.1892"/>
</g>
<!-- Thor: The Dark World&#45;&gt;Avengers: Age of Ultron -->
<g id="edge35" class="edge"><title>Thor: The Dark World&#45;&gt;Avengers: Age of Ultron</title>
<path fill="none" stroke="black" d="M583.512,-578.496C618.605,-567.578 666.904,-552.552 704.394,-540.888"/>
<polygon fill="black" stroke="black" points="705.66,-544.16 714.168,-537.847 703.58,-537.476 705.66,-544.16"/>
</g>
<!-- Thor: Ragnarok -->
<g id="node17" class="node"><title>Thor: Ragnarok</title>
<ellipse fill="none" stroke="black" cx="720.892" cy="-306" rx="66.8882" ry="18"/>
<text text-anchor="middle" x="720.892" y="-302.3" font-family="Times,serif" font-size="14.00">Thor: Ragnarok</text>
</g>
<!-- Thor: The Dark World&#45;&gt;Thor: Ragnarok -->
<g id="edge36" class="edge"><title>Thor: The Dark World&#45;&gt;Thor: Ragnarok</title>
<path fill="none" stroke="black" stroke-width="2" d="M535.463,-575.664C533.728,-544.604 533.85,-478.388 560.892,-432 588.877,-383.993 643.067,-347.711 680.577,-326.918"/>
<polygon fill="black" stroke="black" stroke-width="2" points="682.598,-329.804 689.728,-321.968 679.267,-323.647 682.598,-329.804"/>
</g>
<!-- Spider&#45;Man: Homecoming -->
<g id="node6" class="node"><title>Spider&#45;Man: Homecoming</title>
<ellipse fill="none" stroke="black" cx="490.892" cy="-306" rx="106.681" ry="18"/>
<text text-anchor="middle" x="490.892" y="-302.3" font-family="Times,serif" font-size="14.00">Spider&#45;Man: Homecoming</text>
</g>
<!-- Avengers: Infinity War -->
<g id="node7" class="node"><title>Avengers: Infinity War</title>
<ellipse fill="none" stroke="black" cx="672.892" cy="-234" rx="93.6835" ry="18"/>
<text text-anchor="middle" x="672.892" y="-230.3" font-family="Times,serif" font-size="14.00">Avengers: Infinity War</text>
</g>
<!-- Spider&#45;Man: Homecoming&#45;&gt;Avengers: Infinity War -->
<g id="edge5" class="edge"><title>Spider&#45;Man: Homecoming&#45;&gt;Avengers: Infinity War</title>
<path fill="none" stroke="black" stroke-width="3" d="M531.736,-289.291C558.948,-278.824 594.862,-265.011 623.654,-253.938"/>
<polygon fill="black" stroke="black" stroke-width="3" points="625.045,-257.152 633.122,-250.296 622.532,-250.619 625.045,-257.152"/>
</g>
<!-- Avengers: Infinity War&#45;&gt;Captain Marvel -->
<g id="edge48" class="edge"><title>Avengers: Infinity War&#45;&gt;Captain Marvel</title>
<path fill="none" stroke="black" d="M672.892,-215.697C672.892,-207.983 672.892,-198.712 672.892,-190.112"/>
<polygon fill="black" stroke="black" points="676.392,-190.104 672.892,-180.104 669.392,-190.104 676.392,-190.104"/>
</g>
<!-- Avengers: Infinity War&#45;&gt;Avengers 4 -->
<g id="edge49" class="edge"><title>Avengers: Infinity War&#45;&gt;Avengers 4</title>
<path fill="none" stroke="black" stroke-width="21" d="M647.691,-216.433C608.128,-190.424 531.517,-140.059 488.381,-111.702"/>
<polygon fill="black" stroke="black" stroke-width="21" points="498.416,-96.3083 479.966,-106.169 478.228,-127.017 498.416,-96.3083"/>
</g>
<!-- Ant&#45;Man and the Wasp -->
<g id="node8" class="node"><title>Ant&#45;Man and the Wasp</title>
<ellipse fill="none" stroke="black" cx="94.8916" cy="-306" rx="94.7833" ry="18"/>
<text text-anchor="middle" x="94.8916" y="-302.3" font-family="Times,serif" font-size="14.00">Ant&#45;Man and the Wasp</text>
</g>
<!-- Ant&#45;Man and the Wasp&#45;&gt;Avengers 4 -->
<g id="edge6" class="edge"><title>Ant&#45;Man and the Wasp&#45;&gt;Avengers 4</title>
<path fill="none" stroke="black" stroke-width="2" d="M101.303,-287.924C114.78,-254.515 149.377,-180.586 203.892,-144 261.128,-105.587 340.761,-94.1899 395.31,-91.218"/>
<polygon fill="black" stroke="black" stroke-width="2" points="395.704,-94.7035 405.531,-90.7434 395.379,-87.7111 395.704,-94.7035"/>
</g>
<!-- Avengers 4&#45;&gt;Spider&#45;Man: Far From Home -->
<g id="edge27" class="edge"><title>Avengers 4&#45;&gt;Spider&#45;Man: Far From Home</title>
<path fill="none" stroke="black" d="M493.533,-77.1255C526.932,-66.3018 576.811,-50.1374 615.496,-37.6004"/>
<polygon fill="black" stroke="black" points="616.64,-40.9091 625.074,-34.4966 614.482,-34.25 616.64,-40.9091"/>
</g>
<!-- Guardians of the Galaxy Vol. 3 -->
<g id="node22" class="node"><title>Guardians of the Galaxy Vol. 3</title>
<ellipse fill="none" stroke="black" cx="415.892" cy="-18" rx="122.379" ry="18"/>
<text text-anchor="middle" x="415.892" y="-14.3" font-family="Times,serif" font-size="14.00">Guardians of the Galaxy Vol. 3</text>
</g>
<!-- Avengers 4&#45;&gt;Guardians of the Galaxy Vol. 3 -->
<g id="edge28" class="edge"><title>Avengers 4&#45;&gt;Guardians of the Galaxy Vol. 3</title>
<path fill="none" stroke="black" stroke-width="5" d="M446.967,-72.055C442.203,-63.922 436.39,-53.998 431.087,-44.9426"/>
<polygon fill="black" stroke="black" stroke-width="5" points="434.839,-42.693 426.01,-36.2753 427.289,-47.1153 434.839,-42.693"/>
</g>
<!-- Captain America: The Winter Soldier&#45;&gt;Avengers: Age of Ultron -->
<g id="edge24" class="edge"><title>Captain America: The Winter Soldier&#45;&gt;Avengers: Age of Ultron</title>
<path fill="none" stroke="black" stroke-width="6" d="M784.476,-575.697C781.097,-567.813 777.022,-558.304 773.269,-549.546"/>
<polygon fill="black" stroke="black" stroke-width="6" points="777.987,-547.228 769.222,-540.104 768.336,-551.364 777.987,-547.228"/>
</g>
<!-- Ant&#45;Man -->
<g id="node20" class="node"><title>Ant&#45;Man</title>
<ellipse fill="none" stroke="black" cx="613.892" cy="-450" rx="43.5923" ry="18"/>
<text text-anchor="middle" x="613.892" y="-446.3" font-family="Times,serif" font-size="14.00">Ant&#45;Man</text>
</g>
<!-- Captain America: The Winter Soldier&#45;&gt;Ant&#45;Man -->
<g id="edge23" class="edge"><title>Captain America: The Winter Soldier&#45;&gt;Ant&#45;Man</title>
<path fill="none" stroke="black" d="M722.805,-578.065C698.681,-570.056 672.91,-557.988 653.892,-540 636.261,-523.325 625.836,-497.443 620.074,-477.88"/>
<polygon fill="black" stroke="black" points="623.4,-476.77 617.404,-468.034 616.644,-478.602 623.4,-476.77"/>
</g>
<!-- Iron Man 3&#45;&gt;Avengers: Age of Ultron -->
<g id="edge12" class="edge"><title>Iron Man 3&#45;&gt;Avengers: Age of Ultron</title>
<path fill="none" stroke="black" stroke-width="3" d="M1004.04,-582.469C995.737,-580.304 987.034,-578.059 978.892,-576 928.664,-563.299 871.763,-549.42 828.833,-539.052"/>
<polygon fill="black" stroke="black" stroke-width="3" points="829.607,-535.639 819.065,-536.696 827.965,-542.444 829.607,-535.639"/>
</g>
<!-- Avengers: Age of Ultron&#45;&gt;Avengers: Infinity War -->
<g id="edge32" class="edge"><title>Avengers: Age of Ultron&#45;&gt;Avengers: Infinity War</title>
<path fill="none" stroke="black" d="M762.237,-503.757C763.205,-473.936 766.888,-411.027 780.892,-360 789.567,-328.388 814.95,-315.358 796.892,-288 785.254,-270.369 766.414,-258.583 746.896,-250.711"/>
<polygon fill="black" stroke="black" points="747.881,-247.343 737.288,-247.152 745.45,-253.908 747.881,-247.343"/>
</g>
<!-- Doctor Strange -->
<g id="node16" class="node"><title>Doctor Strange</title>
<ellipse fill="none" stroke="black" cx="853.892" cy="-378" rx="64.189" ry="18"/>
<text text-anchor="middle" x="853.892" y="-374.3" font-family="Times,serif" font-size="14.00">Doctor Strange</text>
</g>
<!-- Avengers: Age of Ultron&#45;&gt;Doctor Strange -->
<g id="edge29" class="edge"><title>Avengers: Age of Ultron&#45;&gt;Doctor Strange</title>
<path fill="none" stroke="black" d="M772.989,-503.871C789.031,-479.111 818.812,-433.144 837.422,-404.42"/>
<polygon fill="black" stroke="black" points="840.54,-406.044 843.041,-395.748 834.666,-402.238 840.54,-406.044"/>
</g>
<!-- Avengers: Age of Ultron&#45;&gt;Thor: Ragnarok -->
<g id="edge33" class="edge"><title>Avengers: Age of Ultron&#45;&gt;Thor: Ragnarok</title>
<path fill="none" stroke="black" d="M756.949,-503.911C754.067,-493.573 750.497,-480.095 747.892,-468 737.809,-421.203 729.278,-366.071 724.64,-333.975"/>
<polygon fill="black" stroke="black" points="728.096,-333.424 723.219,-324.019 721.167,-334.413 728.096,-333.424"/>
</g>
<!-- Captain America: Civil War -->
<g id="node18" class="node"><title>Captain America: Civil War</title>
<ellipse fill="none" stroke="black" cx="403.892" cy="-378" rx="111.581" ry="18"/>
<text text-anchor="middle" x="403.892" y="-374.3" font-family="Times,serif" font-size="14.00">Captain America: Civil War</text>
</g>
<!-- Avengers: Age of Ultron&#45;&gt;Captain America: Civil War -->
<g id="edge30" class="edge"><title>Avengers: Age of Ultron&#45;&gt;Captain America: Civil War</title>
<path fill="none" stroke="black" stroke-width="6" d="M744.958,-504.17C720.192,-479.707 676.032,-436.71 666.892,-432 619.926,-407.797 562.943,-394.637 514.043,-387.486"/>
<polygon fill="black" stroke="black" stroke-width="6" points="514.687,-382.275 504.057,-386.091 513.235,-392.674 514.687,-382.275"/>
</g>
<!-- Avengers: Age of Ultron&#45;&gt;Ant&#45;Man -->
<g id="edge31" class="edge"><title>Avengers: Age of Ultron&#45;&gt;Ant&#45;Man</title>
<path fill="none" stroke="black" stroke-width="2" d="M727.937,-504.941C704.985,-494.085 674.678,-479.75 651.076,-468.587"/>
<polygon fill="black" stroke="black" stroke-width="2" points="652.275,-465.283 641.739,-464.171 649.282,-471.611 652.275,-465.283"/>
</g>
<!-- Iron Man -->
<g id="node13" class="node"><title>Iron Man</title>
<ellipse fill="none" stroke="black" cx="971.892" cy="-1026" rx="44.393" ry="18"/>
<text text-anchor="middle" x="971.892" y="-1022.3" font-family="Times,serif" font-size="14.00">Iron Man</text>
</g>
<!-- Iron Man 2 -->
<g id="node14" class="node"><title>Iron Man 2</title>
<ellipse fill="none" stroke="black" cx="971.892" cy="-954" rx="51.1914" ry="18"/>
<text text-anchor="middle" x="971.892" y="-950.3" font-family="Times,serif" font-size="14.00">Iron Man 2</text>
</g>
<!-- Iron Man&#45;&gt;Iron Man 2 -->
<g id="edge11" class="edge"><title>Iron Man&#45;&gt;Iron Man 2</title>
<path fill="none" stroke="black" stroke-width="4" d="M971.892,-1007.7C971.892,-999.983 971.892,-990.712 971.892,-982.112"/>
<polygon fill="black" stroke="black" stroke-width="4" points="975.392,-982.104 971.892,-972.104 968.392,-982.104 975.392,-982.104"/>
</g>
<!-- Iron Man 2&#45;&gt;Thor -->
<g id="edge17" class="edge"><title>Iron Man 2&#45;&gt;Thor</title>
<path fill="none" stroke="black" d="M934.276,-941.629C914.34,-933.47 891.606,-920.268 879.892,-900 868.377,-880.077 876.884,-854.272 886.472,-835.582"/>
<polygon fill="black" stroke="black" points="889.561,-837.227 891.332,-826.781 883.434,-833.843 889.561,-837.227"/>
</g>
<!-- Iron Man 2&#45;&gt;The Avengers -->
<g id="edge18" class="edge"><title>Iron Man 2&#45;&gt;The Avengers</title>
<path fill="none" stroke="black" d="M1009.51,-941.629C1029.44,-933.47 1052.18,-920.268 1063.89,-900 1071.9,-886.147 1067.65,-879.553 1063.89,-864 1047.84,-797.526 1005.32,-728.294 980.868,-692.247"/>
<polygon fill="black" stroke="black" points="983.621,-690.073 975.069,-683.819 977.854,-694.041 983.621,-690.073"/>
</g>
<!-- Iron Man 2&#45;&gt;Iron Man 3 -->
<g id="edge20" class="edge"><title>Iron Man 2&#45;&gt;Iron Man 3</title>
<path fill="none" stroke="black" d="M1009.96,-941.868C1032.96,-933.505 1061.48,-920.01 1080.89,-900 1111.09,-868.876 1120.89,-854.367 1120.89,-811 1120.89,-811 1120.89,-811 1120.89,-737 1120.89,-690.999 1089.28,-645.649 1066.56,-619.002"/>
<polygon fill="black" stroke="black" points="1069.07,-616.556 1059.85,-611.352 1063.82,-621.175 1069.07,-616.556"/>
</g>
<!-- The Incredible Hulk -->
<g id="node15" class="node"><title>The Incredible Hulk</title>
<ellipse fill="none" stroke="black" cx="971.892" cy="-882" rx="82.5854" ry="18"/>
<text text-anchor="middle" x="971.892" y="-878.3" font-family="Times,serif" font-size="14.00">The Incredible Hulk</text>
</g>
<!-- Iron Man 2&#45;&gt;The Incredible Hulk -->
<g id="edge21" class="edge"><title>Iron Man 2&#45;&gt;The Incredible Hulk</title>
<path fill="none" stroke="black" stroke-width="2" d="M971.892,-935.697C971.892,-927.983 971.892,-918.712 971.892,-910.112"/>
<polygon fill="black" stroke="black" stroke-width="2" points="975.392,-910.104 971.892,-900.104 968.392,-910.104 975.392,-910.104"/>
</g>
<!-- Iron Man 2&#45;&gt;Captain America: Civil War -->
<g id="edge19" class="edge"><title>Iron Man 2&#45;&gt;Captain America: Civil War</title>
<path fill="none" stroke="black" d="M920.755,-951.038C781.675,-944.321 406.892,-916.439 406.892,-811 406.892,-811 406.892,-811 406.892,-521 406.892,-480.987 405.686,-434.646 404.804,-406.076"/>
<polygon fill="black" stroke="black" points="408.301,-405.93 404.484,-396.047 401.304,-406.153 408.301,-405.93"/>
</g>
<!-- The Incredible Hulk&#45;&gt;Thor -->
<g id="edge13" class="edge"><title>The Incredible Hulk&#45;&gt;Thor</title>
<path fill="none" stroke="black" d="M954.947,-864.055C945.531,-854.64 933.716,-842.824 923.627,-832.735"/>
<polygon fill="black" stroke="black" points="925.862,-830.021 916.316,-825.424 920.912,-834.97 925.862,-830.021"/>
</g>
<!-- The Incredible Hulk&#45;&gt;The Avengers -->
<g id="edge14" class="edge"><title>The Incredible Hulk&#45;&gt;The Avengers</title>
<path fill="none" stroke="black" stroke-width="2" d="M971.17,-863.849C969.613,-826.832 965.927,-739.181 964.043,-694.386"/>
<polygon fill="black" stroke="black" stroke-width="2" points="967.534,-694.077 963.616,-684.232 960.54,-694.371 967.534,-694.077"/>
</g>
<!-- Doctor Strange&#45;&gt;Avengers: Infinity War -->
<g id="edge15" class="edge"><title>Doctor Strange&#45;&gt;Avengers: Infinity War</title>
<path fill="none" stroke="black" d="M853.877,-359.979C852.939,-340.183 848.412,-307.709 829.892,-288 810.938,-267.83 784.057,-255.335 757.883,-247.595"/>
<polygon fill="black" stroke="black" points="758.474,-244.128 747.904,-244.855 756.62,-250.878 758.474,-244.128"/>
</g>
<!-- Doctor Strange&#45;&gt;Thor: Ragnarok -->
<g id="edge16" class="edge"><title>Doctor Strange&#45;&gt;Thor: Ragnarok</title>
<path fill="none" stroke="black" stroke-width="2" d="M825.033,-361.811C805.733,-351.653 780.126,-338.176 759.134,-327.128"/>
<polygon fill="black" stroke="black" stroke-width="2" points="760.633,-323.961 750.154,-322.401 757.373,-330.156 760.633,-323.961"/>
</g>
<!-- Thor: Ragnarok&#45;&gt;Avengers: Infinity War -->
<g id="edge50" class="edge"><title>Thor: Ragnarok&#45;&gt;Avengers: Infinity War</title>
<path fill="none" stroke="black" stroke-width="5" d="M709.272,-288.055C703.637,-279.837 696.748,-269.791 690.487,-260.66"/>
<polygon fill="black" stroke="black" stroke-width="5" points="694.001,-258.048 684.737,-252.275 686.785,-262.997 694.001,-258.048"/>
</g>
<!-- Captain America: Civil War&#45;&gt;Spider&#45;Man: Homecoming -->
<g id="edge44" class="edge"><title>Captain America: Civil War&#45;&gt;Spider&#45;Man: Homecoming</title>
<path fill="none" stroke="black" stroke-width="3" d="M424.952,-360.055C436.066,-351.113 449.871,-340.005 461.973,-330.268"/>
<polygon fill="black" stroke="black" stroke-width="3" points="464.428,-332.785 470.025,-323.789 460.04,-327.331 464.428,-332.785"/>
</g>
<!-- Captain America: Civil War&#45;&gt;Avengers: Infinity War -->
<g id="edge43" class="edge"><title>Captain America: Civil War&#45;&gt;Avengers: Infinity War</title>
<path fill="none" stroke="black" stroke-width="4" d="M492.994,-367.082C530.58,-359.658 573.312,-346.681 606.892,-324 630.286,-308.199 648.548,-281.265 659.874,-261.156"/>
<polygon fill="black" stroke="black" stroke-width="4" points="663.046,-262.648 664.726,-252.187 656.889,-259.317 663.046,-262.648"/>
</g>
<!-- Captain America: Civil War&#45;&gt;Ant&#45;Man and the Wasp -->
<g id="edge40" class="edge"><title>Captain America: Civil War&#45;&gt;Ant&#45;Man and the Wasp</title>
<path fill="none" stroke="black" d="M341.733,-362.919C290.076,-351.217 216.666,-334.586 163.339,-322.506"/>
<polygon fill="black" stroke="black" points="163.816,-319.025 153.29,-320.229 162.27,-325.852 163.816,-319.025"/>
</g>
<!-- Captain America: Civil War&#45;&gt;Avengers 4 -->
<g id="edge39" class="edge"><title>Captain America: Civil War&#45;&gt;Avengers 4</title>
<path fill="none" stroke="black" d="M309.503,-368.268C281.643,-360.771 254.047,-347.443 236.892,-324 227.443,-311.088 230.364,-302.608 236.892,-288 274.581,-203.66 368.2,-140.452 420.348,-110.41"/>
<polygon fill="black" stroke="black" points="422.293,-113.332 429.272,-105.36 418.845,-107.24 422.293,-113.332"/>
</g>
<!-- Captain America: Civil War&#45;&gt;Thor: Ragnarok -->
<g id="edge41" class="edge"><title>Captain America: Civil War&#45;&gt;Thor: Ragnarok</title>
<path fill="none" stroke="black" d="M466.9,-363.087C523.333,-350.625 605.515,-332.477 660.981,-320.229"/>
<polygon fill="black" stroke="black" points="662.004,-323.588 671.014,-318.014 660.495,-316.753 662.004,-323.588"/>
</g>
<!-- Black Panther -->
<g id="node23" class="node"><title>Black Panther</title>
<ellipse fill="none" stroke="black" cx="305.892" cy="-306" rx="60.3893" ry="18"/>
<text text-anchor="middle" x="305.892" y="-302.3" font-family="Times,serif" font-size="14.00">Black Panther</text>
</g>
<!-- Captain America: Civil War&#45;&gt;Black Panther -->
<g id="edge42" class="edge"><title>Captain America: Civil War&#45;&gt;Black Panther</title>
<path fill="none" stroke="black" stroke-width="2" d="M380.169,-360.055C367.033,-350.673 350.561,-338.907 336.469,-328.841"/>
<polygon fill="black" stroke="black" stroke-width="2" points="338.224,-325.794 328.053,-322.829 334.156,-331.49 338.224,-325.794"/>
</g>
<!-- Guardians of the Galaxy Vol. 2 -->
<g id="node19" class="node"><title>Guardians of the Galaxy Vol. 2</title>
<ellipse fill="none" stroke="black" cx="1006.89" cy="-306" rx="122.379" ry="18"/>
<text text-anchor="middle" x="1006.89" y="-302.3" font-family="Times,serif" font-size="14.00">Guardians of the Galaxy Vol. 2</text>
</g>
<!-- Guardians of the Galaxy Vol. 2&#45;&gt;Avengers: Infinity War -->
<g id="edge22" class="edge"><title>Guardians of the Galaxy Vol. 2&#45;&gt;Avengers: Infinity War</title>
<path fill="none" stroke="black" stroke-width="7" d="M939.703,-290.919C882.799,-278.993 801.473,-261.948 743.592,-249.817"/>
<polygon fill="black" stroke="black" stroke-width="7" points="744.835,-243.82 733.791,-247.763 742.322,-255.809 744.835,-243.82"/>
</g>
<!-- Ant&#45;Man&#45;&gt;Ant&#45;Man and the Wasp -->
<g id="edge46" class="edge"><title>Ant&#45;Man&#45;&gt;Ant&#45;Man and the Wasp</title>
<path fill="none" stroke="black" d="M571.217,-446.046C507.312,-440.761 383.51,-427.175 282.892,-396 228.038,-379.004 168.789,-348.781 131.772,-328.322"/>
<polygon fill="black" stroke="black" points="133.294,-325.163 122.856,-323.345 129.882,-331.275 133.294,-325.163"/>
</g>
<!-- Ant&#45;Man&#45;&gt;Captain America: Civil War -->
<g id="edge47" class="edge"><title>Ant&#45;Man&#45;&gt;Captain America: Civil War</title>
<path fill="none" stroke="black" stroke-width="4" d="M581.079,-438.062C548.644,-427.251 498.397,-410.502 459.683,-397.597"/>
<polygon fill="black" stroke="black" stroke-width="4" points="460.701,-394.247 450.107,-394.405 458.487,-400.888 460.701,-394.247"/>
</g>
<!-- Black Panther&#45;&gt;Avengers: Infinity War -->
<g id="edge34" class="edge"><title>Black Panther&#45;&gt;Avengers: Infinity War</title>
<path fill="none" stroke="black" stroke-width="2" d="M350.334,-293.596C358.481,-291.635 366.926,-289.688 374.892,-288 448.392,-272.427 532.747,-257.717 592.905,-247.763"/>
<polygon fill="black" stroke="black" stroke-width="2" points="593.798,-251.164 603.096,-246.085 592.66,-244.257 593.798,-251.164"/>
</g>
<!-- Guardians of the Galaxy -->
<g id="node24" class="node"><title>Guardians of the Galaxy</title>
<ellipse fill="none" stroke="black" cx="1033.89" cy="-378" rx="97.4827" ry="18"/>
<text text-anchor="middle" x="1033.89" y="-374.3" font-family="Times,serif" font-size="14.00">Guardians of the Galaxy</text>
</g>
<!-- Guardians of the Galaxy&#45;&gt;Guardians of the Galaxy Vol. 2 -->
<g id="edge45" class="edge"><title>Guardians of the Galaxy&#45;&gt;Guardians of the Galaxy Vol. 2</title>
<path fill="none" stroke="black" stroke-width="6" d="M1027.22,-359.697C1024.18,-351.813 1020.51,-342.304 1017.13,-333.546"/>
<polygon fill="black" stroke="black" stroke-width="6" points="1021.99,-331.545 1013.49,-324.104 1012.19,-335.324 1021.99,-331.545"/>
</g>
</g>
</svg>
